<svg width="222" height="223" viewBox="0 0 222 223" fill="none" xmlns="http://www.w3.org/2000/svg">
<circle cx="111" cy="111.5" r="111" fill="#3A98B9"/>
<path d="M93.7803 127.789L144.578 76.8732C146.157 75.2911 148.166 74.5 150.605 74.5C153.045 74.5 155.054 75.2911 156.632 76.8732C158.211 78.4553 159 80.4689 159 82.914C159 85.3591 158.211 87.3727 156.632 88.9548L99.8072 145.911C98.0852 147.637 96.0762 148.5 93.7803 148.5C91.4843 148.5 89.4753 147.637 87.7534 145.911L65.3677 123.474C63.7892 121.892 63 119.878 63 117.433C63 114.988 63.7892 112.974 65.3677 111.392C66.9462 109.81 68.9552 109.019 71.3946 109.019C73.8341 109.019 75.8431 109.81 77.4215 111.392L93.7803 127.789Z" fill="#F8FAFC"/>
</svg>
