<svg width="12" height="21" viewBox="0 0 12 21" fill="none" xmlns="http://www.w3.org/2000/svg">
<path d="M2.37788 20.1042L11.6958 11.2388C11.8064 11.1332 11.885 11.0189 11.9314 10.8958C11.9779 10.7726 12.0007 10.6407 12 10.5C12 10.3593 11.9771 10.2274 11.9314 10.1042C11.8857 9.98109 11.8072 9.86675 11.6958 9.76121L2.37788 0.869393C2.11981 0.623131 1.79723 0.5 1.41014 0.5C1.02304 0.5 0.691243 0.631926 0.414745 0.895778C0.138248 1.15963 -9.53674e-07 1.46746 -9.53674e-07 1.81926C-9.53674e-07 2.17106 0.138248 2.47889 0.414745 2.74274L8.54377 10.5L0.414745 18.2573C0.156681 18.5035 0.0276489 18.8071 0.0276489 19.1681C0.0276489 19.529 0.165897 19.8411 0.442395 20.1042C0.718892 20.3681 1.04147 20.5 1.41014 20.5C1.7788 20.5 2.10138 20.3681 2.37788 20.1042Z" fill="#CBD5E1"/>
</svg>
