<svg width="20" height="24" viewBox="0 0 20 24" fill="none" xmlns="http://www.w3.org/2000/svg">
<path d="M9.86133 12C10.5316 12 11.1057 11.7648 11.5834 11.2944C12.0612 10.824 12.2996 10.2592 12.2988 9.6C12.2988 8.94 12.06 8.3748 11.5822 7.9044C11.1045 7.434 10.5308 7.1992 9.86133 7.2C9.19102 7.2 8.61698 7.4352 8.13923 7.9056C7.66148 8.376 7.42302 8.9408 7.42383 9.6C7.42383 10.26 7.6627 10.8252 8.14045 11.2956C8.6182 11.766 9.19183 12.0008 9.86133 12ZM9.86133 20.82C12.3395 18.58 14.1777 16.5448 15.3762 14.7144C16.5746 12.884 17.1738 11.2592 17.1738 9.84C17.1738 7.66 16.4678 5.8752 15.0556 4.4856C13.6435 3.096 11.9121 2.4008 9.86133 2.4C7.80977 2.4 6.07792 3.0952 4.6658 4.4856C3.25367 5.876 2.54802 7.6608 2.54883 9.84C2.54883 11.26 3.14805 12.8852 4.34648 14.7156C5.54492 16.546 7.3832 18.5808 9.86133 20.82ZM9.86133 24C6.59102 21.26 4.14864 18.7152 2.5342 16.3656C0.919766 14.016 0.112141 11.8408 0.111328 9.84C0.111328 6.84 1.09161 4.45 3.05217 2.67C5.01273 0.89 7.28245 0 9.86133 0C12.441 0 14.7111 0.89 16.6717 2.67C18.6323 4.45 19.6121 6.84 19.6113 9.84C19.6113 11.84 18.8037 14.0152 17.1885 16.3656C15.5732 18.716 13.1308 21.2608 9.86133 24Z" fill="#334155"/>
</svg>
