<svg width="625" height="580" viewBox="0 0 625 580" fill="none" xmlns="http://www.w3.org/2000/svg">
<path d="M232.016 380.054C232.016 380.054 156.338 346.285 93.7146 351.223C37.0007 355.719 27.9379 363.831 0.0219727 360.238C7.23249 378.246 37.8607 437.695 100.925 459.318C163.99 480.942 225.268 470.119 248.686 452.11C272.103 434.102 246.414 387.262 232.016 380.054Z" fill="#FF731D"/>
<path d="M23.8809 371.964C23.8809 371.964 131.995 419.245 229.304 409.789" stroke="white" stroke-width="1.2258" stroke-miterlimit="10"/>
<path d="M49.5474 409.789L88.4004 394.249" stroke="white" stroke-width="1.2258" stroke-miterlimit="10"/>
<path d="M112.744 373.64C112.744 374.654 131.994 403.705 131.994 403.705" stroke="white" stroke-width="1.2258" stroke-miterlimit="10"/>
<path d="M365.619 385.168C365.619 385.168 388.795 325.455 425.884 294.111C459.467 265.72 468.86 265.257 482.245 248.086C488.088 261.907 503.634 311.216 480.745 357.394C457.879 403.573 418.342 430.95 395.674 433.815C373.028 436.659 361.628 396.96 365.619 385.168Z" fill="#FF731D"/>
<path d="M475.519 267.506C475.519 267.506 441.87 352.28 383.282 400.024" stroke="white" stroke-width="0.9477" stroke-miterlimit="10"/>
<path d="M482.002 302.245L452.212 314.853" stroke="white" stroke-width="0.9477" stroke-miterlimit="10"/>
<path d="M427.625 316.771C428.177 317.322 433.403 343.75 433.403 343.75" stroke="white" stroke-width="0.9477" stroke-miterlimit="10"/>
<path d="M272.104 399.87C272.104 399.87 254.088 302.597 191.024 257.565C127.959 212.532 84.6961 212.532 46.8574 189.123C46.8574 189.123 43.2632 226.948 68.489 284.589C93.7148 342.229 124.343 389.069 182.005 414.286C239.667 439.502 272.104 399.87 272.104 399.87Z" fill="#3A98B9"/>
<path d="M63.0645 210.747C63.0645 210.747 167.584 335.044 232.457 390.877" stroke="white" stroke-width="1.2258" stroke-miterlimit="10"/>
<path d="M76.5815 272.884L120.727 278.285" stroke="white" stroke-width="1.2258" stroke-miterlimit="10"/>
<path d="M163.99 261.18L152.259 310.709" stroke="white" stroke-width="1.2258" stroke-miterlimit="10"/>
<path d="M139.646 358.452L194.618 355.741" stroke="white" stroke-width="1.2258" stroke-miterlimit="10"/>
<path d="M398.607 421.405C398.607 421.405 437.174 351.355 496.997 332.839C556.842 314.324 590.006 325.301 625 316.969C625 316.969 618.142 346.902 584.141 384.705C550.139 422.507 514.725 450.656 464.075 455.351C413.425 460.046 398.607 421.405 398.607 421.405Z" fill="#3A98B9"/>
<path d="M607.073 329.423C607.073 329.423 495.299 398.217 431.331 424.558" stroke="white" stroke-width="0.9906" stroke-miterlimit="10"/>
<path d="M580.899 373.662L545.64 366.586" stroke="white" stroke-width="0.9906" stroke-miterlimit="10"/>
<path d="M516.82 342.472L513.204 383.448" stroke="white" stroke-width="0.9906" stroke-miterlimit="10"/>
<path d="M510.756 423.279L469.279 407.232" stroke="white" stroke-width="0.9906" stroke-miterlimit="10"/>
<path d="M453.315 481.735C472.102 492.58 472.19 510.148 453.535 520.993L365.95 571.866C347.296 582.711 316.932 582.711 298.167 571.866L210.009 520.993C191.222 510.148 191.134 492.58 209.789 481.735L297.373 430.862C316.028 420.017 346.392 420.017 365.157 430.862L453.315 481.735Z" fill="url(#paint0_linear_257_654)"/>
<path d="M453.315 458.282C472.102 469.127 472.19 486.695 453.535 497.54L365.95 548.413C347.296 559.258 316.932 559.258 298.167 548.413L210.009 497.54C191.222 486.695 191.134 469.127 209.789 458.282L297.373 407.409C316.028 396.564 346.392 396.564 365.157 407.409L453.315 458.282Z" stroke="#94C3FF" stroke-width="0.9256" stroke-miterlimit="10"/>
<path d="M484.56 426.828L374.682 490.663C351.265 504.263 313.206 504.263 289.634 490.663L179.028 426.828C167.165 419.995 161.256 411.002 161.278 402.03L161.233 414.727C161.211 423.698 167.121 432.669 178.984 439.524L289.59 503.359C313.162 516.959 351.221 516.959 374.638 503.359L484.516 439.524C496.137 432.779 501.958 423.918 502.002 415.079L502.046 402.383C502.002 411.244 496.181 420.083 484.56 426.828Z" fill="#A6D0F4"/>
<path d="M484.273 377.585C507.845 391.186 507.956 413.228 484.56 426.828L374.682 490.663C351.265 504.263 313.205 504.263 289.633 490.663L179.028 426.828C155.456 413.228 155.346 391.186 178.741 377.585L288.619 313.751C312.037 300.151 350.096 300.151 373.668 313.751L484.273 377.585Z" fill="url(#paint1_linear_257_654)"/>
<path d="M505.155 73.1806L382.885 2.60102C377.593 -0.440826 372.808 -0.727377 369.346 1.27848L359.225 7.16378C362.687 5.15793 367.472 5.44448 372.764 8.48632L495.034 79.0438C505.53 85.1055 514.02 99.7857 513.998 111.865L513.887 153.988C513.865 159.983 511.749 164.193 508.331 166.177L518.452 160.292C521.87 158.308 523.987 154.098 524.009 148.102L524.119 105.98C524.163 93.9224 515.651 79.2202 505.155 73.1806Z" fill="#C7D8F2"/>
<path d="M495.034 79.0659C505.53 85.1276 514.02 99.8078 513.998 111.887L513.887 154.01C513.843 166.089 505.288 170.938 494.814 164.877L372.544 94.3192C362.025 88.2576 353.558 73.5774 353.58 61.4982L353.69 19.3753C353.734 7.29609 362.268 2.44677 372.764 8.50842L495.034 79.0659Z" fill="#EAF1F7"/>
<path d="M505.155 185.156L382.885 114.598C377.593 111.556 372.808 111.27 369.346 113.276L359.225 119.161C362.687 117.155 367.472 117.442 372.764 120.483L495.034 191.041C505.53 197.103 514.02 211.783 513.998 223.862L513.887 265.985C513.865 271.98 511.749 276.19 508.331 278.174L518.452 272.289C521.87 270.305 523.987 266.095 524.009 260.1L524.119 217.977C524.163 205.897 515.651 191.217 505.155 185.156Z" fill="#94C3FF"/>
<path d="M495.034 191.041C505.53 197.102 514.02 211.783 513.998 223.862L513.887 265.985C513.843 278.064 505.288 282.913 494.814 276.852L372.544 206.294C362.025 200.232 353.558 185.552 353.58 173.473L353.69 131.35C353.734 119.271 362.268 114.422 372.764 120.483L495.034 191.041Z" fill="#3A98B9"/>
<path d="M491.417 145.061C491.351 145.104 491.285 145.17 491.219 145.214C491.307 145.148 491.351 145.104 491.417 145.061Z" fill="#A6D0F4"/>
<path d="M474.042 145.325C473.998 145.303 473.954 145.281 473.932 145.259C473.976 145.303 474.02 145.325 474.042 145.325Z" fill="#A6D0F4"/>
<path d="M474.748 145.656C474.638 145.612 474.527 145.546 474.395 145.501C474.505 145.546 474.616 145.612 474.748 145.656Z" fill="#A6D0F4"/>
<path d="M489.763 146.163C489.697 146.207 489.631 146.229 489.565 146.272C489.631 146.25 489.697 146.207 489.763 146.163Z" fill="#A6D0F4"/>
<path d="M456.159 128.396C456.071 128.264 456.005 128.154 455.917 128.022C456.005 128.154 456.071 128.286 456.159 128.396Z" fill="#A6D0F4"/>
<path d="M453.954 124.738C453.579 124.054 453.204 123.349 452.852 122.644C453.204 123.349 453.579 124.032 453.954 124.738Z" fill="#A6D0F4"/>
<path d="M457.769 130.777C457.306 130.138 456.865 129.499 456.424 128.837C456.865 129.477 457.306 130.138 457.769 130.777Z" fill="#A6D0F4"/>
<path d="M458.033 131.152C457.945 131.042 457.857 130.909 457.769 130.799C457.879 130.909 457.967 131.019 458.033 131.152Z" fill="#A6D0F4"/>
<path d="M472.631 144.598C472.587 144.576 472.542 144.554 472.52 144.531C472.41 144.465 472.278 144.399 472.168 144.333C472.057 144.267 471.947 144.201 471.815 144.135C471.771 144.113 471.749 144.091 471.705 144.069C471.616 144.025 471.55 143.98 471.462 143.936C471.418 143.914 471.374 143.87 471.33 143.848C471.264 143.804 471.197 143.76 471.109 143.716C471.065 143.694 471.021 143.65 470.977 143.628C470.911 143.584 470.845 143.54 470.778 143.495C470.734 143.473 470.69 143.429 470.646 143.407C470.58 143.363 470.514 143.319 470.448 143.275C470.404 143.253 470.359 143.209 470.315 143.187C470.249 143.143 470.161 143.099 470.095 143.033C470.051 143.011 470.007 142.966 469.963 142.944C469.874 142.878 469.786 142.834 469.72 142.768C469.522 142.636 469.411 142.548 469.301 142.459C469.169 142.371 469.058 142.283 468.97 142.217C468.926 142.195 468.904 142.173 468.86 142.129C468.794 142.085 468.706 142.019 468.64 141.975C468.595 141.953 468.551 141.908 468.507 141.886C468.441 141.842 468.375 141.776 468.287 141.732C468.243 141.71 468.199 141.666 468.154 141.644C468.088 141.6 468.022 141.534 467.934 141.49C467.89 141.468 467.846 141.424 467.802 141.401C467.735 141.335 467.669 141.291 467.581 141.225C467.537 141.203 467.493 141.159 467.471 141.137C467.405 141.071 467.317 141.005 467.25 140.961C467.228 140.939 467.184 140.917 467.14 140.872C467.052 140.784 466.942 140.718 466.853 140.63C466.699 140.498 466.589 140.41 466.479 140.321C466.346 140.211 466.258 140.123 466.148 140.035C465.971 139.881 465.905 139.814 465.817 139.748C465.773 139.726 465.751 139.682 465.707 139.66C465.641 139.594 465.552 139.528 465.486 139.462C465.442 139.44 465.42 139.396 465.376 139.374C465.31 139.307 465.222 139.241 465.156 139.175C465.111 139.153 465.089 139.109 465.045 139.087C464.957 139.021 464.891 138.955 464.825 138.867C464.648 138.712 464.56 138.624 464.472 138.536C464.207 138.271 463.987 138.073 463.766 137.875C463.656 137.764 463.546 137.654 463.458 137.566C463.303 137.412 463.237 137.346 463.149 137.258C462.995 137.103 462.906 137.015 462.84 136.949C462.686 136.795 462.598 136.706 462.532 136.618C462.377 136.464 462.289 136.354 462.201 136.266C461.848 135.891 461.539 135.538 461.231 135.208C461.12 135.097 461.032 134.987 460.944 134.877C460.812 134.723 460.723 134.634 460.657 134.524C460.525 134.37 460.437 134.26 460.371 134.172C460.238 134.017 460.15 133.907 460.062 133.819C459.93 133.643 459.841 133.532 459.753 133.422C459.356 132.915 458.959 132.43 458.585 131.945C458.474 131.791 458.386 131.681 458.298 131.571C458.188 131.416 458.099 131.306 458.011 131.196C457.901 131.042 457.813 130.909 457.725 130.799C457.261 130.138 456.798 129.499 456.379 128.837C456.291 128.683 456.203 128.573 456.115 128.441C456.005 128.286 455.938 128.154 455.85 128.044C455.321 127.228 454.836 126.413 454.373 125.597C454.285 125.443 454.219 125.311 454.13 125.178C454.042 125.024 453.976 124.892 453.888 124.76C453.491 124.032 453.116 123.349 452.763 122.643C456.865 121.872 465.266 121.696 465.707 121.674C465.707 121.696 465.839 121.916 466.104 122.291C467.008 123.635 469.367 126.854 472.543 128.683C474.505 129.807 476.754 130.424 479.18 129.763C479.312 129.719 479.422 129.697 479.555 129.653C479.951 130.116 487.515 139.021 491.815 144.664C491.682 144.796 491.528 144.906 491.374 145.038C491.285 145.105 491.219 145.149 491.153 145.215C491.065 145.281 490.999 145.325 490.933 145.369C490.822 145.435 490.756 145.501 490.712 145.545C490.602 145.612 490.536 145.678 490.47 145.722C490.227 145.876 489.984 146.03 489.742 146.163C489.632 146.229 489.566 146.251 489.499 146.295C489.389 146.361 489.323 146.383 489.257 146.427C489.147 146.493 489.058 146.515 488.992 146.559C488.706 146.692 488.463 146.802 488.198 146.912C488.088 146.956 488.022 146.978 487.934 147C487.824 147.044 487.735 147.066 487.669 147.088C487.537 147.132 487.471 147.155 487.382 147.177C487.074 147.265 486.809 147.353 486.523 147.419C486.412 147.441 486.324 147.463 486.258 147.485C486.126 147.507 486.059 147.529 485.971 147.551C485.839 147.573 485.773 147.595 485.685 147.595C485.552 147.617 485.464 147.639 485.376 147.639C485.155 147.662 484.979 147.684 484.758 147.706C484.648 147.706 484.56 147.728 484.472 147.728C484.34 147.728 484.251 147.75 484.185 147.75C484.031 147.75 483.965 147.772 483.876 147.772C483.722 147.772 483.656 147.772 483.568 147.772C483.325 147.772 483.127 147.772 482.906 147.772C482.796 147.772 482.708 147.772 482.598 147.772C482.465 147.772 482.377 147.75 482.289 147.75C482.134 147.75 482.046 147.728 481.98 147.728C481.826 147.706 481.738 147.706 481.649 147.706C481.495 147.684 481.385 147.684 481.297 147.661C481.054 147.639 480.856 147.595 480.635 147.573C480.481 147.551 480.392 147.529 480.326 147.529C480.304 147.529 480.26 147.529 480.238 147.507C480.172 147.485 480.084 147.485 480.018 147.463C479.996 147.463 479.951 147.441 479.929 147.441C479.841 147.419 479.775 147.419 479.687 147.397C479.665 147.397 479.621 147.375 479.599 147.375C479.51 147.353 479.422 147.331 479.334 147.309C479.047 147.243 478.827 147.199 478.606 147.132C478.452 147.088 478.364 147.066 478.276 147.044C478.232 147.044 478.209 147.022 478.165 147.022C478.099 147 478.011 146.978 477.945 146.956C477.901 146.934 477.879 146.934 477.835 146.912C477.768 146.89 477.68 146.868 477.614 146.846C477.57 146.824 477.526 146.824 477.504 146.802C477.438 146.78 477.35 146.758 477.283 146.736C477.239 146.714 477.217 146.714 477.173 146.692C477.085 146.67 476.975 146.626 476.886 146.581C476.732 146.537 476.622 146.493 476.512 146.449C476.357 146.383 476.269 146.361 476.181 146.317C476.137 146.295 476.115 146.295 476.071 146.273C476.004 146.251 475.916 146.207 475.85 146.185C475.806 146.163 475.762 146.141 475.718 146.141C475.652 146.119 475.563 146.074 475.497 146.052C475.453 146.03 475.409 146.008 475.365 146.008C475.299 145.986 475.211 145.942 475.144 145.92C475.1 145.898 475.056 145.876 475.034 145.876C474.946 145.832 474.858 145.81 474.77 145.766C474.571 145.678 474.461 145.612 474.329 145.567C474.174 145.501 474.086 145.457 473.976 145.391C473.932 145.369 473.888 145.347 473.866 145.325C473.799 145.281 473.711 145.259 473.645 145.215C473.601 145.193 473.557 145.171 473.513 145.149C473.447 145.105 473.358 145.083 473.292 145.038C473.248 145.016 473.204 144.994 473.16 144.972C473.094 144.928 473.006 144.884 472.939 144.862C472.895 144.84 472.851 144.818 472.807 144.796C472.785 144.686 472.719 144.642 472.631 144.598Z" fill="#4B5CC0"/>
<path d="M459.379 132.893C459.136 132.585 458.871 132.254 458.629 131.945C458.871 132.254 459.114 132.585 459.379 132.893Z" fill="#A6D0F4"/>
<path d="M460.657 134.457C460.569 134.369 460.503 134.259 460.415 134.172C460.481 134.259 460.569 134.347 460.657 134.457Z" fill="#A6D0F4"/>
<path d="M461.275 135.186C461.187 135.075 461.076 134.965 460.988 134.855C461.099 134.965 461.187 135.075 461.275 135.186Z" fill="#A6D0F4"/>
<path d="M462.223 136.221C461.914 135.891 461.606 135.538 461.297 135.208C461.606 135.538 461.914 135.869 462.223 136.221Z" fill="#A6D0F4"/>
<path d="M463.126 137.169C463.038 137.081 462.972 137.015 462.884 136.927C462.972 137.015 463.06 137.103 463.126 137.169Z" fill="#A6D0F4"/>
<path d="M463.81 137.852C463.722 137.764 463.612 137.654 463.524 137.566C463.612 137.676 463.722 137.764 463.81 137.852Z" fill="#A6D0F4"/>
<path d="M464.472 138.492C464.251 138.294 464.053 138.073 463.833 137.875C464.053 138.095 464.251 138.294 464.472 138.492Z" fill="#A6D0F4"/>
<path d="M465.751 139.66C465.685 139.594 465.597 139.528 465.531 139.462C465.597 139.55 465.685 139.616 465.751 139.66Z" fill="#A6D0F4"/>
<path d="M467.161 140.872C467.073 140.784 466.963 140.718 466.875 140.63C466.963 140.696 467.073 140.784 467.161 140.872Z" fill="#A6D0F4"/>
<path d="M487.691 147.088C487.603 147.11 487.537 147.132 487.449 147.154C487.537 147.132 487.625 147.11 487.691 147.088Z" fill="#A6D0F4"/>
<path d="M464.384 104.855L464.648 108.095C464.693 108.492 464.737 108.911 464.803 109.33C464.737 109.308 464.648 109.286 464.56 109.242C464.516 109.22 464.472 109.176 464.428 109.154C462.487 107.611 461.407 102.387 462.752 102.32C462.973 102.298 463.171 102.364 463.347 102.475C463.524 102.585 463.678 102.717 463.833 102.871C464.097 104.084 464.318 104.988 464.318 105.032L464.384 104.855Z" fill="#CBDCEB"/>
<path d="M490.514 145.722C490.271 145.876 490.051 146.031 489.808 146.163C490.051 146.008 490.293 145.876 490.514 145.722Z" fill="#A6D0F4"/>
<path d="M478.231 128C478.54 128.617 478.893 129.212 479.268 129.763C476.842 130.424 474.593 129.807 472.631 128.683C469.455 126.854 467.096 123.635 466.192 122.291C466.589 122.181 467.008 122.004 467.316 121.718C467.824 120.638 468.11 118.632 468.243 117.397L470.955 121.277C471.462 122.004 472.057 122.555 472.653 122.886C473.248 123.239 473.843 123.349 474.351 123.217L477.151 122.467C477.217 122.445 477.261 122.445 477.305 122.423C477.438 123.79 477.702 126.258 478.231 128Z" fill="#CBDCEB"/>
<path d="M491.197 145.237C491.131 145.281 491.087 145.325 491.021 145.369C491.065 145.325 491.131 145.281 491.197 145.237Z" fill="#A6D0F4"/>
<path d="M479.025 110.322C480.018 110.895 480.238 110.873 480.238 110.873L480.9 115.744L480.745 117.375C480.723 117.706 480.657 118.015 480.613 118.323C480.172 120.439 479.025 121.894 477.327 122.423C477.283 122.445 477.217 122.445 477.173 122.467L474.373 123.217C473.866 123.349 473.27 123.217 472.675 122.886C472.079 122.533 471.484 121.982 470.977 121.277L468.265 117.397L468.199 117.309C466.457 114.841 465.266 111.997 464.803 109.33C464.737 108.911 464.67 108.492 464.648 108.096L464.384 104.855L466.655 97.7137C466.677 97.6917 467.008 97.2067 467.868 97.7137C468.331 97.9782 468.926 98.5293 469.698 99.6093C471.881 102.695 472.101 105.473 475.872 108.206C477.372 109.286 478.364 109.947 479.025 110.322Z" fill="#CBDCEB"/>
<path d="M482.84 113.915C484.163 115.524 483.061 119.491 481.12 118.786C481.076 118.764 481.032 118.742 480.988 118.72C480.811 118.632 480.679 118.478 480.569 118.323C480.635 118.015 480.679 117.706 480.701 117.375L480.856 115.744L480.922 116.163C480.944 116.097 481.407 114.973 481.826 113.231C481.958 113.253 482.09 113.298 482.223 113.364C482.443 113.496 482.642 113.672 482.84 113.915Z" fill="#CBDCEB"/>
<path d="M475.652 93.8342C479.643 97.405 481.826 102.144 482.421 106.553C482.73 108.845 482.311 111.358 481.848 113.231C481.407 114.951 480.966 116.097 480.944 116.163L480.878 115.744L480.216 110.873C480.194 110.873 479.996 110.895 479.003 110.322C478.342 109.947 477.35 109.308 475.85 108.206C472.079 105.473 471.859 102.695 469.676 99.6093C468.904 98.5292 468.309 97.9782 467.846 97.7136C467.008 97.2287 466.655 97.6916 466.633 97.7136L464.362 104.855L464.318 105.032C464.296 104.988 464.097 104.084 463.833 102.872C463.546 101.571 463.193 99.9399 463.017 98.8158C462.642 96.6556 463.634 92.3353 465.222 90.8585C466.457 89.7123 469.72 89.9988 473.006 91.8945C473.888 92.4235 474.792 93.0627 475.652 93.8342Z" fill="#3A98B9"/>
<path d="M466.192 122.291C465.927 121.894 465.795 121.674 465.795 121.674C465.354 121.674 456.953 121.872 452.851 122.644C449.323 115.656 447.229 108.096 447.251 101.196C447.295 85.3258 458.518 78.9335 472.322 86.9129C486.126 94.8922 497.283 114.201 497.239 130.05C497.217 137.015 495.056 142.151 491.44 145.039C491.594 144.928 491.727 144.796 491.881 144.664C487.581 139.021 480.04 130.116 479.621 129.653C479.489 129.697 479.378 129.719 479.246 129.763C478.871 129.212 478.518 128.617 478.21 128C477.68 126.258 477.416 123.79 477.283 122.423C478.959 121.894 480.128 120.439 480.569 118.323C480.679 118.478 480.812 118.632 480.988 118.72C483.061 119.491 484.185 115.524 482.84 113.915C482.62 113.65 482.421 113.496 482.245 113.386C482.113 113.298 481.98 113.253 481.848 113.253C482.311 111.38 482.73 108.845 482.421 106.575C481.826 102.188 479.643 97.4271 475.652 93.8562C474.792 93.0847 473.888 92.4455 472.984 91.9165C469.698 90.0208 466.457 89.7563 465.2 90.8805C463.612 92.3353 462.62 96.6556 462.995 98.8378C463.171 99.9619 463.524 101.571 463.811 102.894C463.656 102.717 463.502 102.585 463.325 102.497C463.149 102.387 462.951 102.32 462.73 102.343C461.385 102.409 462.466 107.633 464.406 109.176C464.626 109.308 464.715 109.352 464.781 109.352C465.244 112.019 466.435 114.841 468.177 117.331C468.11 118.654 467.824 120.66 467.317 121.74C467.008 122.004 466.589 122.181 466.192 122.291Z" fill="#25437F"/>
<path d="M463.457 137.499C463.369 137.411 463.303 137.323 463.215 137.258C463.281 137.345 463.369 137.433 463.457 137.499Z" fill="#A6D0F4"/>
<path d="M466.456 140.277C466.368 140.189 466.258 140.123 466.17 140.035C466.28 140.123 466.368 140.211 466.456 140.277Z" fill="#A6D0F4"/>
<path d="M468.617 141.996C468.573 141.974 468.529 141.93 468.485 141.908C468.529 141.93 468.573 141.952 468.617 141.996Z" fill="#A6D0F4"/>
<path d="M477.349 146.692C477.305 146.67 477.283 146.67 477.239 146.648C477.283 146.67 477.305 146.692 477.349 146.692Z" fill="#A6D0F4"/>
<path d="M477.9 146.89C477.834 146.868 477.746 146.846 477.68 146.824C477.768 146.846 477.834 146.868 477.9 146.89Z" fill="#A6D0F4"/>
<path d="M478.033 146.912C477.989 146.89 477.967 146.89 477.923 146.868C477.945 146.89 477.989 146.912 478.033 146.912Z" fill="#A6D0F4"/>
<path d="M478.253 146.978C478.187 146.956 478.099 146.934 478.033 146.912C478.099 146.934 478.165 146.956 478.253 146.978Z" fill="#A6D0F4"/>
<path d="M482.288 147.728C482.2 147.728 482.134 147.728 482.046 147.706C482.134 147.706 482.222 147.706 482.288 147.728Z" fill="#A6D0F4"/>
<path d="M488.242 146.89C488.176 146.912 488.088 146.956 488.022 146.978C488.088 146.956 488.154 146.912 488.242 146.89Z" fill="#A6D0F4"/>
<path d="M476.048 233.098C476.092 233.274 476.159 233.45 476.225 233.627L476.07 233.671C476.048 233.472 476.048 233.274 476.048 233.098Z" fill="#25437F"/>
<path d="M462.399 206.889C462.553 208.278 462.862 209.534 463.325 210.416C463.325 210.416 463.413 210.328 463.546 210.174L463.744 212.532C463.788 212.929 463.832 213.348 463.899 213.766C463.81 213.744 463.722 213.722 463.612 213.656C463.59 213.656 463.59 213.634 463.568 213.634C463.546 213.634 463.524 213.612 463.524 213.59C462.179 212.532 461.252 209.733 461.252 208.057C461.252 207.308 461.429 206.779 461.848 206.757C462.024 206.735 462.223 206.779 462.399 206.889Z" fill="#CBDCEB"/>
<path d="M475.145 227.19C475.189 228.336 475.365 230.783 476.049 233.075C476.049 233.274 476.049 233.472 476.049 233.671C474.549 234.178 473.16 233.891 471.947 233.274C471.859 233.23 471.793 233.186 471.705 233.142C471.661 233.12 471.616 233.098 471.572 233.075C469.235 231.665 467.647 228.998 467.427 228.579C467.405 228.535 467.405 228.535 467.405 228.535C468.177 227.058 468.397 224.699 468.463 223.487L470.029 225.735C470.536 226.463 471.131 227.014 471.727 227.367C472.322 227.719 472.917 227.851 473.425 227.697L475.145 227.19Z" fill="#CBDCEB"/>
<path d="M485.508 244.031C484.78 243.083 483.81 241.959 482.796 240.768C482.686 241.584 482.487 242.378 482.134 243.149C480.128 247.712 476.511 247.425 476.313 247.403C476.357 247.271 477.107 244.626 477.107 241.826C477.107 240.967 477.041 240.107 476.842 239.336C476.644 238.564 476.489 237.749 476.357 236.933C476.181 235.831 476.092 234.729 476.048 233.671C474.549 234.178 473.16 233.891 471.947 233.274C471.859 233.23 471.793 233.186 471.704 233.142C471.66 233.12 471.616 233.098 471.572 233.076C469.235 231.665 467.647 228.998 467.427 228.579C467.404 228.535 467.405 228.535 467.382 228.513C467.184 228.491 460.944 227.874 458.121 228.248C457.129 228.381 456.225 230.144 455.453 232.414C459.863 239.556 465.729 245.728 472.145 249.431C478.275 252.98 483.92 253.663 488.264 251.966C487.515 248.527 486.544 245.375 485.508 244.031Z" fill="#4B5CC0"/>
<path d="M479.687 228.799C479.07 227.367 478.717 226.22 478.54 225.339C477.989 226.044 477.283 226.551 476.468 226.838C476.379 226.86 476.313 226.904 476.225 226.926L475.145 227.212C475.189 228.358 475.365 230.805 476.049 233.098C476.093 233.274 476.159 233.45 476.225 233.627L476.071 233.671C476.093 234.729 476.203 235.853 476.379 236.933C476.512 237.77 476.666 238.564 476.864 239.336C477.063 240.107 477.129 240.967 477.129 241.826C477.129 244.626 476.379 247.271 476.335 247.403C476.534 247.425 480.15 247.69 482.157 243.149C482.509 242.377 482.708 241.562 482.818 240.768C482.884 240.327 482.906 239.909 482.906 239.468C482.862 235.919 481.142 232.172 479.687 228.799Z" fill="#3A98B9"/>
<path d="M479.312 221.217L478.232 216.345C468.794 210.504 465.817 202.657 465.663 202.238C465.707 202.679 465.729 203.098 465.729 203.495C465.707 206.338 464.737 208.366 464.031 209.446C463.833 209.755 463.656 209.975 463.546 210.151L463.744 212.51C463.788 212.907 463.833 213.326 463.899 213.744C464.34 216.412 465.553 219.255 467.272 221.724L468.485 223.443C468.507 223.024 468.507 223.024 468.485 223.443L470.051 225.691C470.558 226.419 471.153 226.97 471.749 227.322C472.344 227.675 472.939 227.807 473.447 227.653L475.167 227.19L476.247 226.904C476.335 226.882 476.401 226.838 476.49 226.815C477.327 226.529 478.033 226.022 478.562 225.317C479.092 224.633 479.466 223.774 479.687 222.716C479.422 222.341 479.334 221.79 479.312 221.217Z" fill="#CBDCEB"/>
<path d="M479.665 222.738L479.73 222.826L479.709 222.914L479.665 222.76V222.738Z" fill="#25437F"/>
<path d="M479.312 221.217L479.665 222.738C479.422 222.341 479.334 221.79 479.312 221.217Z" fill="#FF8D68"/>
<path d="M481.363 217.822C481.539 217.932 481.738 218.087 481.936 218.329C482.355 218.836 482.531 219.564 482.509 220.313C482.487 221.966 481.539 223.685 480.216 223.201C480.172 223.178 480.128 223.156 480.084 223.134C480.04 223.112 480.018 223.09 479.974 223.068C479.863 223.002 479.775 222.914 479.709 222.804C479.841 222.407 480.569 220.247 481.12 217.69C481.164 217.712 481.186 217.712 481.23 217.734C481.275 217.8 481.319 217.8 481.363 217.822Z" fill="#CBDCEB"/>
<path d="M472.322 191.989C486.126 199.946 497.283 219.277 497.239 235.126C497.217 243.92 493.733 249.806 488.287 251.944C487.493 248.505 486.545 245.375 485.486 244.031C484.758 243.083 483.788 241.959 482.774 240.768C482.84 240.328 482.862 239.909 482.862 239.468C482.862 235.897 481.142 232.172 479.687 228.799C479.069 227.367 478.717 226.22 478.54 225.339C479.069 224.655 479.444 223.796 479.665 222.76C479.797 222.936 479.885 223.024 479.996 223.09C481.561 223.708 482.509 221.966 482.531 220.335C482.553 219.586 482.355 218.858 481.958 218.351C481.76 218.109 481.561 217.932 481.385 217.844C481.517 216.081 481.804 214.273 481.826 212.642C481.826 212.179 481.804 211.739 481.76 211.32C481.274 206.845 478.298 201.335 472.675 197.125C472.565 197.036 472.476 196.97 472.366 196.904C471.947 196.618 471.55 196.353 471.153 196.111C466.677 193.576 463.788 195.141 462.906 198.094C462.84 198.337 462.774 198.579 462.73 198.822C462.465 200.343 462.289 202.128 462.289 203.869C462.289 204.905 462.333 205.941 462.443 206.911C462.267 206.801 462.068 206.757 461.87 206.757C461.451 206.779 461.275 207.308 461.275 208.058C461.297 209.733 462.223 212.532 463.546 213.59C463.744 213.722 463.855 213.744 463.921 213.766C464.362 216.434 465.575 219.277 467.294 221.746L468.507 223.465C468.441 224.677 468.221 227.036 467.427 228.513C467.228 228.491 460.988 227.874 458.166 228.248C457.173 228.381 456.269 230.144 455.497 232.414C450.426 224.215 447.251 214.758 447.273 206.294C447.295 190.424 458.518 184.009 472.322 191.989Z" fill="#25437F"/>
<path d="M481.716 211.32C481.231 206.845 478.254 201.335 472.631 197.125C472.521 197.036 472.432 196.97 472.322 196.904C471.903 196.618 471.506 196.353 471.065 196.089C471.021 196.067 470.999 196.045 470.955 196.023C466.633 193.576 463.745 195.141 462.863 198.095C462.796 198.337 462.73 198.579 462.686 198.822C462.422 200.343 462.245 202.128 462.245 203.87C462.245 204.906 462.289 205.942 462.422 206.911C462.399 206.911 462.399 206.889 462.377 206.889C462.532 208.278 462.84 209.534 463.304 210.416C463.304 210.416 463.392 210.328 463.524 210.174C463.656 210.019 463.833 209.777 464.009 209.468C464.715 208.366 465.685 206.338 465.707 203.517C465.707 203.12 465.685 202.679 465.641 202.261C465.795 202.679 468.772 210.526 478.21 216.368L479.29 221.239L479.643 222.76L479.709 222.848C479.841 222.451 480.569 220.291 481.12 217.734C481.473 216.081 481.76 214.252 481.76 212.642C481.782 212.18 481.76 211.739 481.716 211.32Z" fill="#3A98B9"/>
<path d="M437.416 84.5985C438.364 85.1495 439.114 86.4721 439.114 87.5521C439.114 88.6322 438.364 89.0731 437.394 88.522L367.758 48.3388C366.832 47.8098 366.083 46.4873 366.083 45.4072C366.083 44.3271 366.832 43.8863 367.78 44.4153L437.416 84.5985Z" fill="#79AEF5"/>
<path d="M417.35 83.0114C418.276 83.5404 419.026 84.8409 419.026 85.921C419.026 87.0011 418.276 87.4419 417.328 86.9129L367.736 58.302C366.81 57.7729 366.061 56.4504 366.061 55.3703C366.061 54.2903 366.81 53.8715 367.758 54.4005L417.35 83.0114Z" fill="#79AEF5"/>
<path d="M437.416 196.596C438.364 197.147 439.114 198.469 439.114 199.549C439.114 200.629 438.364 201.07 437.394 200.519L367.758 160.336C366.832 159.807 366.083 158.484 366.083 157.404C366.083 156.324 366.832 155.883 367.78 156.412L437.416 196.596Z" fill="#254DA1"/>
<path d="M417.35 194.987C418.276 195.516 419.026 196.816 419.026 197.896C419.026 198.976 418.276 199.417 417.328 198.888L367.736 170.277C366.81 169.748 366.061 168.425 366.061 167.345C366.061 166.265 366.81 165.847 367.758 166.376L417.35 194.987Z" fill="#254DA1"/>
<path d="M417.13 217.558C420.084 215.838 424.164 216.081 428.662 218.682C437.615 223.84 444.847 236.36 444.803 246.654C444.781 251.767 442.995 255.36 440.084 257.058L436.534 259.13C439.445 257.432 441.253 253.839 441.253 248.726C441.275 238.454 434.065 225.934 425.112 220.754C420.614 218.153 416.512 217.91 413.58 219.63L417.13 217.558Z" fill="#86E563"/>
<path d="M425.112 220.754C434.065 225.912 441.297 238.432 441.253 248.726C441.231 258.997 433.954 263.163 425.002 257.983C416.049 252.826 408.817 240.283 408.839 230.012C408.883 219.718 416.16 215.596 425.112 220.754Z" fill="#2AB774"/>
<path d="M430.933 234.266L434.417 240.283L421.121 247.866L414.66 236.691L418.166 234.685L421.143 239.843L430.933 234.266Z" fill="white"/>
<path d="M417.13 269.247C420.084 267.528 424.164 267.77 428.662 270.371C437.615 275.529 444.847 288.049 444.803 298.343C444.781 303.457 442.995 307.05 440.084 308.747L436.534 310.819C439.445 309.122 441.253 305.529 441.253 300.415C441.275 290.143 434.065 277.623 425.112 272.443C420.614 269.842 416.512 269.6 413.58 271.319L417.13 269.247Z" fill="#FF7363"/>
<path d="M425.112 272.443C434.065 277.601 441.297 290.121 441.253 300.415C441.231 310.687 433.954 314.853 425.002 309.673C416.049 304.515 408.817 291.973 408.839 281.701C408.883 271.407 416.16 267.263 425.112 272.443Z" fill="#FF465C"/>
<path d="M429.677 285.426L433.138 291.444L428.089 294.353L433.116 303.038L429.61 305.044L424.583 296.315L419.533 299.225L416.049 293.185L421.099 290.32L416.093 281.613L419.599 279.607L424.605 288.314L429.677 285.426Z" fill="white"/>
<path d="M345.73 161.923C344.143 156.412 338.784 151.607 330.758 151.982C323.04 152.357 317.351 155.773 315.455 161.526C314.33 164.943 314.595 170.916 316.646 175.215C317.66 177.331 319.6 179.27 321.916 180.879L319.667 188.837C321.673 191.261 330.052 194.193 335.94 193.884C335.962 193.884 336.645 191.107 337.395 188.131C341.32 189.234 344.209 186.015 345.62 181.629C346.634 178.587 346.965 166.221 345.73 161.923Z" fill="#FF8E54"/>
<path d="M345.73 161.923C344.142 156.412 338.784 151.607 330.757 151.982C330.625 151.982 330.493 152.004 330.361 152.026L315.102 162.981C314.44 166.464 314.859 171.467 316.667 175.215C317.682 177.331 319.622 179.27 321.937 180.879L319.688 188.837C321.695 191.261 330.074 194.193 335.961 193.884C335.983 193.884 336.667 191.107 337.417 188.131C338.828 188.528 340.107 188.352 341.254 187.757C340.107 187.294 339.203 186.104 338.299 184.45C336.865 181.827 341.65 180.152 341.893 177.507C342.136 174.884 340.46 170.321 343.569 168.183C345.179 167.081 345.818 165.163 346.061 163.532C345.972 162.959 345.862 162.386 345.73 161.923Z" fill="#FF5F4D"/>
<path d="M332.764 441.905C369.141 441.905 398.629 423.174 398.629 400.068C398.629 376.963 369.141 358.232 332.764 358.232C296.388 358.232 266.899 376.963 266.899 400.068C266.899 423.174 296.388 441.905 332.764 441.905Z" fill="#CBDCEB"/>
<path d="M362.797 185.618L365.62 183.458L369.28 175.788C369.28 175.788 371.287 174.95 371.772 174.796C372.279 174.619 376.094 175.457 376.094 175.457C376.094 175.457 377.924 173.297 378.431 172.966C378.938 172.635 380.923 170.475 381.761 170.96C382.599 171.467 382.422 172.283 381.937 172.966C381.43 173.627 379.776 175.303 379.776 175.303L377.946 179.799L378.122 181.474C378.122 181.474 379.115 181.474 379.446 182.466C379.776 183.458 379.776 184.472 378.608 184.803C377.439 185.133 376.447 185.64 376.447 185.64C376.447 185.64 374.109 187.316 372.786 187.801C371.463 188.308 369.964 188.638 369.964 188.638L369.126 190.644L362.797 185.618Z" fill="#FF8E54"/>
<path d="M379.446 182.444C379.423 182.4 379.401 182.4 379.401 182.356C378.718 182.378 377.902 182.444 377.417 182.643C376.491 183.04 375.146 184.913 374.616 185.31C374.087 185.707 370.868 187.183 369.413 185.839C368.332 184.847 365.951 184.318 364.782 184.098L362.797 185.618L369.126 190.622L369.964 188.616C369.964 188.616 371.463 188.286 372.786 187.779C374.109 187.272 376.447 185.618 376.447 185.618C376.447 185.618 377.439 185.111 378.608 184.781C379.798 184.45 379.798 183.458 379.446 182.444Z" fill="#FF5F4D"/>
<path d="M359.666 186.897L363.216 183.987C363.216 183.987 369.17 185.266 369.831 190.269L366.921 193.333L359.666 186.897Z" fill="#F9FBFC"/>
<path d="M340.46 202.657L359.798 184.781C359.798 184.781 368.508 185.266 369.456 192.518L350.118 214.736C350.118 214.736 340.46 212.819 340.46 202.657Z" fill="#253C72"/>
<path d="M350.118 214.736L369.456 192.518C369.192 190.534 368.332 189.057 367.229 187.955C360.724 197.124 348.839 207.198 348.839 207.198L347.229 213.678C348.839 214.494 350.118 214.736 350.118 214.736Z" fill="#252F4C"/>
<path d="M303.922 391.692L303.327 399.782C303.239 401.082 303.967 402.295 305.157 402.802C306.26 403.264 307.869 403.617 309.986 403.286C314.617 402.581 316.756 400.09 317.461 398.658C318.167 397.225 327.45 390.81 326.37 387.614C324.584 384.418 321.386 387.614 318.167 387.614C314.97 387.592 308.2 386.005 303.922 391.692Z" fill="#171E26"/>
<path d="M306.061 267.88C306.061 267.88 303.922 322.391 305.003 339.496C305.003 339.496 300.725 382.258 302.864 392.398C302.864 392.398 310.339 397.732 316.756 393.456C318.366 392.927 318.366 390.788 318.366 390.788C318.366 390.788 322.643 350.715 323.702 338.416C324.76 326.116 333.316 289.239 331.728 281.238C330.118 273.237 319.953 262.017 306.061 267.88Z" fill="#171E26"/>
<path d="M340.548 403.088C340.548 403.088 337.616 412.169 339.755 414.308C341.893 416.446 344.562 416.975 346.524 416.357C348.487 415.74 350.361 414.837 350.361 414.837L350.978 412.963L351.684 414.219C351.684 414.219 352.742 414.043 354.176 413.249C355.609 412.456 359.71 410.847 361.386 409.767C363.084 408.709 366.105 406.835 366.37 404.521C366.546 402.206 358.255 403 356.028 403.088C353.801 403.176 352.367 402.294 351.574 402.294C350.78 402.294 342.136 403.352 342.136 403.352" fill="#171E26"/>
<path d="M354.065 266.888C354.065 266.888 356.293 275.022 356.293 291.422C356.293 307.821 354.859 349.128 354.859 349.128C354.859 349.128 354.154 391.163 353.426 401.854C353.426 401.854 348.443 408.268 339.887 403.286C335.609 398.305 337.042 394.734 337.042 394.734C337.042 394.734 331.331 369.077 333.47 345.558C333.47 345.558 325.62 297.814 324.209 292.127C322.776 286.418 297.925 283.971 307.627 256.154L354.065 266.888Z" fill="#1F2F3F"/>
<path d="M340.46 292.149C340.46 292.149 351.949 297.175 350.515 313.684C349.082 330.194 346.215 340.973 347.649 351.002C349.082 361.053 351.243 366.784 349.81 378.996C348.641 388.915 344.628 398.371 347.803 405.028C351.463 404.411 353.47 401.832 353.47 401.832C354.176 391.141 354.903 349.106 354.903 349.106C354.903 349.106 356.337 307.777 356.337 291.4C356.337 284.346 355.918 278.835 355.455 274.824L337.616 282.825L340.46 292.149Z" fill="#25437F"/>
<path d="M359.049 214.384C359.203 210.835 357.505 207.462 354.55 205.501C348.023 201.158 339.137 195.626 333.404 192.606C326.259 188.836 318.872 184.869 314.925 184.494C303.922 183.48 297.285 193.708 298.321 207.154C298.961 215.331 301.122 224.435 304.099 233.781C305.355 237.77 306.215 244.824 306.546 251.304C306.48 254.434 306.215 257.983 305.355 260.055C303.569 264.332 301.783 281.436 301.783 281.436C301.783 281.436 313.911 293.912 329.589 294.97C345.267 296.028 351.331 292.832 351.331 292.832L352.389 285.713L354.528 292.127C354.528 292.127 357.373 291.069 357.725 288.203C358.056 285.624 355.19 263.648 354.616 259.372C355.52 250.489 357.306 237.418 357.858 231.488C358.387 226 358.806 219.74 359.049 214.384Z" fill="#25437F"/>
<path d="M319.953 184.583C319.953 184.583 325.113 189.035 337.417 190.821L339.269 195.251C339.269 195.251 334.572 196.507 328.509 195.802C322.445 195.097 317.461 190.269 316.932 189.211C316.403 188.153 316.403 188.153 316.403 188.153L319.953 184.583Z" fill="#F9FBFC"/>
<path d="M312.808 161.504C312.808 161.504 312.808 153.238 321.783 150.747C330.758 148.235 331.838 149.315 334.352 147.507C336.866 145.722 340.107 145.347 344.76 146.78C349.434 148.213 350.14 152.886 348.707 157.184C347.273 161.482 346.546 163.995 342.951 165.802C339.357 167.588 340.085 171.908 340.085 171.908C340.085 171.908 340.813 176.581 338.299 178.367L336.138 172.988C336.138 172.988 334.352 179.094 332.544 181.232C330.758 183.392 326.788 184.472 322.841 184.472C318.894 184.472 313.867 174.774 312.434 171.555C311 168.315 313.867 165.45 313.867 165.45C313.867 165.45 312.103 164.017 312.808 161.504Z" fill="#25437F"/>
<path d="M344.76 214.626C341.166 206.008 328.244 208.168 311.001 201.709C302.71 198.601 301.563 193.84 302.621 189.718C299.358 193.84 297.748 200.034 298.299 207.154C298.939 215.331 301.1 224.435 304.077 233.781C305.334 237.771 306.193 244.824 306.524 251.305C306.458 254.435 306.194 257.983 305.334 260.055C303.547 264.332 301.761 281.436 301.761 281.436C301.761 281.436 313.889 293.912 329.567 294.97C338.321 295.566 344.054 294.838 347.45 294.067C349.942 276.102 338.872 267.285 336.138 259.13C333.272 250.511 348.354 223.245 344.76 214.626Z" fill="#252F4C"/>
<path d="M341.651 150.02C340.019 147.022 336.822 146.978 334.374 147.485C334.374 147.485 334.352 147.485 334.352 147.507C331.838 149.293 330.758 148.235 321.783 150.748C312.809 153.26 312.809 161.504 312.809 161.504C312.081 164.017 313.889 165.45 313.889 165.45C313.889 165.45 311.023 168.315 312.456 171.555C313.426 173.738 316.05 178.874 318.873 181.982C324.429 181.012 326.855 176.449 325.863 173.473C324.429 169.175 329.214 172.988 330.67 170.189C332.125 167.367 325.863 165.34 332.081 159.609C338.299 153.856 344.54 155.288 341.651 150.02Z" fill="#252F4C"/>
<path d="M411.087 245.133L414.108 244.449C414.108 244.449 419.136 240.46 419.841 240.239C420.547 240.019 426.633 235.456 427.228 236.492C427.824 237.55 427.14 238.476 426.258 239.049C425.376 239.622 423.634 240.416 423.634 240.416L422.113 242.642C422.113 242.642 423.083 244.207 423.127 245.111C423.171 246.014 423.039 247.271 423.039 247.271C423.039 247.271 423.656 248.858 422.818 250.335C421.98 251.812 420.062 252.803 418.783 252.671C417.526 252.539 414.638 252.319 414.638 252.319L412.675 252.583L411.087 245.133Z" fill="#FF8E54"/>
<path d="M422.818 250.379C423.304 249.541 423.281 248.682 423.215 248.087C422.466 248.902 421.407 249.894 420.591 249.982C419.158 250.159 417.35 251.415 416.093 249.453C414.836 247.469 412.322 245.86 412.322 245.86L411.176 245.662L412.653 252.627L414.616 252.363C414.616 252.363 417.504 252.583 418.761 252.715C420.04 252.826 421.981 251.834 422.818 250.379Z" fill="#FF5F4D"/>
<path d="M407.979 244.648L411.705 244.009C411.705 244.009 414.439 245.662 414.726 249.431C414.792 252.87 413.491 254.104 413.491 254.104L410.47 254.479L407.979 244.648Z" fill="#CBDCEB"/>
<path d="M354.153 205.831C354.153 205.831 358.034 206.537 360.989 213.193C363.944 219.85 373.822 242.686 376.248 244.582C378.673 246.455 408.023 243.105 408.023 243.105C408.023 243.105 413.822 246.852 412.455 251.657C411.066 255.977 409.147 255.537 409.147 255.537C409.147 255.537 380.327 262.238 374.594 262.789C368.861 263.34 366.435 260.981 364.98 260.055C363.525 259.108 351.728 236.294 349.28 232.502C346.832 228.711 340.438 215.398 345.157 210.548C349.897 205.699 354.153 205.831 354.153 205.831Z" fill="#25437F"/>
<path d="M409.147 255.537C409.147 255.537 411.066 256 412.455 251.657C412.741 250.643 412.697 249.695 412.477 248.814C409.147 249.85 404.406 251.216 399.533 252.319C390.47 254.346 378.806 256.507 370.647 253.751C362.466 250.996 354.065 231.004 351.044 220.026C349.5 214.428 349.964 209.821 350.801 206.625C349.214 207.264 347.251 208.388 345.179 210.526C340.46 215.376 346.854 228.689 349.302 232.48C351.75 236.272 363.547 259.086 365.002 260.033C366.457 260.981 368.883 263.34 374.616 262.767C380.327 262.238 409.147 255.537 409.147 255.537Z" fill="#252F4C"/>
<path d="M137.86 132.695L138.455 338.284L255.61 270.658L255.036 65.0691L137.86 132.695Z" fill="#CBDCEB"/>
<path d="M153.185 141.314L149.127 138.955L149.723 344.544L153.758 346.88L153.185 141.314Z" fill="#BDC5CB"/>
<path d="M270.339 73.6876L266.304 71.3291L149.127 138.955L153.185 141.314L270.339 73.6876Z" fill="white"/>
<path d="M153.185 141.314L153.758 346.88L270.934 279.277L270.339 73.6877L153.185 141.314Z" fill="#EAF1F7"/>
<path d="M245.422 117.772V120.726L177.22 160.093V157.14L245.422 117.772Z" fill="#A6D0F4"/>
<path d="M215.919 146.604V149.557L177.264 171.864L177.242 168.91L215.919 146.604Z" fill="#A6D0F4"/>
<path d="M239.976 190.468V193.399L177.418 229.505V226.573L239.976 190.468Z" fill="#A6D0F4"/>
<path d="M216.029 191.239L216.051 194.171L177.375 216.478V213.546L216.029 191.239Z" fill="#A6D0F4"/>
<path d="M226.327 173.495V176.427L177.353 204.707L177.331 201.753L226.327 173.495Z" fill="#A6D0F4"/>
<path d="M195.037 171.71V174.663L177.286 184.891V181.959L195.037 171.71Z" fill="#A6D0F4"/>
<path d="M196.117 238.344C206.988 232.062 217.286 233.671 221.541 243.568C226.856 255.934 220.814 276.786 208.002 291.179L205.026 284.258C213.714 274.141 217.749 259.813 214.066 251.261C211.067 244.295 203.813 243.149 196.139 247.58C194.265 248.66 192.369 250.07 190.516 251.812L187.54 244.89C190.384 242.179 193.273 239.997 196.117 238.344Z" fill="#4385FF"/>
<path d="M187.54 244.912L190.516 251.834C190.053 252.274 189.59 252.737 189.127 253.2C179.249 263.362 174.442 278.968 178.345 288.093C178.499 288.424 178.631 288.733 178.808 289.041C178.874 289.151 178.918 289.262 178.984 289.372C181.851 294.397 187.297 295.632 193.361 293.185C194.309 292.81 195.279 292.347 196.25 291.774C196.514 291.62 196.779 291.466 197.021 291.311C197.484 291.025 197.859 290.782 198.212 290.54L198.366 290.43C199.138 289.879 199.91 289.284 200.704 288.622C200.792 288.534 200.902 288.446 200.99 288.358C201.277 288.115 201.564 287.851 201.85 287.586C201.961 287.498 202.071 287.388 202.159 287.278C202.534 286.925 202.909 286.55 203.284 286.176C203.879 285.558 204.452 284.919 205.004 284.28L207.98 291.201C207.407 291.84 206.834 292.458 206.26 293.075C205.731 293.626 205.202 294.133 204.673 294.64C204.518 294.794 204.364 294.926 204.21 295.059C203.813 295.433 203.394 295.808 202.975 296.161C202.843 296.293 202.71 296.403 202.556 296.513C201.453 297.461 200.351 298.321 199.248 299.092C199.16 299.159 199.072 299.225 198.984 299.269C198.477 299.621 197.969 299.952 197.484 300.261L197.308 300.371C196.955 300.591 196.624 300.79 196.272 300.988C195.456 301.451 194.64 301.892 193.824 302.267C193.207 302.553 192.633 302.796 192.06 303.038C182.799 306.697 174.53 304.383 170.825 295.786C165.269 282.869 172.104 260.717 186.106 246.301C186.613 245.816 187.077 245.353 187.54 244.912Z" fill="#94C3FF"/>
<path d="M251.619 246.72V248.219C251.619 249.101 252.567 249.652 253.339 249.211L260.395 245.155C260.748 244.957 260.968 244.582 260.968 244.163V242.664C260.968 241.782 260.02 241.231 259.248 241.672L252.192 245.728C251.839 245.948 251.619 246.323 251.619 246.72Z" fill="#94C3FF"/>
<path d="M229.281 266.933V268.432C229.281 269.313 230.229 269.864 231.001 269.424L260.395 252.583C260.747 252.385 260.968 252.01 260.968 251.591V250.092C260.968 249.211 260.02 248.66 259.248 249.1L229.855 265.941C229.48 266.139 229.281 266.536 229.281 266.933Z" fill="#94C3FF"/>
<g opacity="0.53">
<path d="M241.387 274.846V276.345C241.387 277.227 242.335 277.778 243.107 277.337L260.395 267.44C260.748 267.241 260.968 266.867 260.968 266.448V264.949C260.968 264.067 260.02 263.516 259.248 263.957L241.961 273.854C241.608 274.075 241.387 274.449 241.387 274.846Z" fill="#94C3FF"/>
</g>
<path d="M233.824 271.76V273.259C233.824 274.141 234.772 274.692 235.544 274.251L260.373 260.011C260.725 259.813 260.946 259.438 260.946 259.019V257.521C260.946 256.639 259.998 256.088 259.226 256.529L234.397 270.768C234.044 270.966 233.824 271.341 233.824 271.76Z" fill="#94C3FF"/>
<defs>
<linearGradient id="paint0_linear_257_654" x1="195.834" y1="501.369" x2="467.465" y2="501.369" gradientUnits="userSpaceOnUse">
<stop stop-color="white"/>
<stop offset="1" stop-color="#CBDCEB"/>
</linearGradient>
<linearGradient id="paint1_linear_257_654" x1="299.919" y1="314.803" x2="416.855" y2="637.177" gradientUnits="userSpaceOnUse">
<stop stop-color="white"/>
<stop offset="1" stop-color="#CBDCEB"/>
</linearGradient>
</defs>
</svg>
