<svg width="80" height="80" viewBox="0 0 80 80" fill="none" xmlns="http://www.w3.org/2000/svg">
<path d="M80 40.0047C80 40.8656 79.9719 41.7265 79.9158 42.5781C78.5962 63.4647 61.2354 80 40 80H39.6912C17.7445 79.8316 0 61.9862 0 40.0047C0 17.9109 17.913 0 40 0C62.0964 0 80 17.9109 80 40.0047Z" fill="#FF731D"/>
<path d="M62.2744 50.4572C62.2744 51.1403 61.7222 51.683 61.039 51.683H18.9614C18.2875 51.683 17.7354 51.1309 17.7354 50.4572V25.2098C17.7354 24.536 18.2875 23.9839 18.9614 23.9839H61.0484C61.7316 23.9839 62.2838 24.536 62.2838 25.2098V50.4572H62.2744Z" fill="#284962"/>
<path d="M59.4101 25.9395H20.5986V49.7364H59.4101V25.9395Z" fill="white"/>
<path d="M65.4749 55.1645C64.8292 56.016 63.5096 56.0067 62.8264 56.0067H17.183C16.5091 56.0067 15.5826 56.1377 14.5344 55.1645L13.1212 53.4707C12.7843 53.0777 12.7655 52.6191 14.3472 52.6191H65.6621C67.2344 52.6191 67.2344 53.087 66.8881 53.4707L65.4749 55.1645Z" fill="#284962"/>
<path d="M56.8648 46.7142C56.8648 47.4909 56.2284 48.1272 55.4516 48.1272H24.0431C23.2663 48.1272 22.6299 47.4909 22.6299 46.7142V28.8408C22.6299 28.0547 23.2663 27.4277 24.0431 27.4277H55.4516C56.2284 27.4277 56.8648 28.0641 56.8648 28.8408V46.7142Z" fill="#A6DAE8"/>
<path d="M56.8648 30.0199C56.8648 30.7966 56.2284 31.4329 55.4516 31.4329H24.0431C23.2663 31.4329 22.6299 30.7966 22.6299 30.0199V28.8408C22.6299 28.0547 23.2663 27.4277 24.0431 27.4277H55.4516C56.2284 27.4277 56.8648 28.0641 56.8648 28.8408V30.0199Z" fill="#14B0BF"/>
<path d="M26.1582 29.3457C26.1582 29.851 25.7558 30.2534 25.2504 30.2534H24.062C23.5567 30.2534 23.1543 29.851 23.1543 29.3457C23.1543 28.8404 23.5567 28.438 24.062 28.438H25.2504C25.7558 28.438 26.1582 28.8497 26.1582 29.3457Z" fill="#FFB700"/>
<path d="M29.5361 29.3457C29.5361 29.851 29.1337 30.2534 28.6284 30.2534H27.4399C26.9346 30.2534 26.5322 29.851 26.5322 29.3457C26.5322 28.8404 26.9346 28.438 27.4399 28.438H28.6284C29.1243 28.438 29.5361 28.8497 29.5361 29.3457Z" fill="#FC611F"/>
<path d="M33.0087 29.3457C33.0087 29.851 32.6064 30.2534 32.101 30.2534H30.9126C30.4073 30.2534 30.0049 29.851 30.0049 29.3457C30.0049 28.8404 30.4073 28.438 30.9126 28.438H32.101C32.6064 28.438 33.0087 28.8497 33.0087 29.3457Z" fill="#D5ECFC"/>
<path d="M53.6733 33.0894H24.6606V47.0044H53.6733V33.0894Z" fill="#D5ECFC"/>
<path d="M33.008 35.5596H27.019V36.9726H33.008V35.5596Z" fill="#284962"/>
<path d="M36.9582 39.3403H27.019V40.7534H36.9582V39.3403Z" fill="#284962"/>
<path d="M33.0174 42.8774H27.019V44.2905H33.0174V42.8774Z" fill="#284962"/>
<path d="M43.4149 42.8774H35.1426V44.2905H43.4149V42.8774Z" fill="#284962"/>
<path d="M45.2964 39.3403H39.167V40.7534H45.2964V39.3403Z" fill="#284962"/>
<path d="M51.5577 39.3403H46.8413V40.7534H51.5577V39.3403Z" fill="#284962"/>
<path d="M46.0362 41.3428H43.416V42.054H46.0362V41.3428Z" fill="#284962"/>
<path d="M46.0362 45.1138H43.416V45.825H46.0362V45.1138Z" fill="#284962"/>
<path d="M45.0823 41.6982H44.3711V45.4694H45.0823V41.6982Z" fill="#284962"/>
</svg>
