<svg width="80" height="80" viewBox="0 0 80 80" fill="none" xmlns="http://www.w3.org/2000/svg">
<path d="M80 39.9953C80 41.2867 79.9438 42.5594 79.8222 43.8133C77.8942 64.1198 60.8049 80 40 80C38.4371 80 36.8835 79.9064 35.3673 79.738C15.4609 77.436 0 60.517 0 39.9953C0 17.9109 17.913 0 40 0C62.0964 0 80 17.9109 80 39.9953Z" fill="#FF731D"/>
<path d="M57.2951 21.6821H22.7981C22.2459 21.6821 21.7874 22.1313 21.7874 22.6928V43.3829C21.7874 43.935 22.2366 44.3936 22.7981 44.3936H36.6025V46.0405H29.6676C29.2183 46.0405 28.844 46.4055 28.844 46.864V47.4816C28.844 47.9308 29.209 48.3051 29.6676 48.3051H50.4256C50.8842 48.3051 51.2492 47.9402 51.2492 47.4816V46.864C51.2492 46.4055 50.8842 46.0405 50.4256 46.0405H43.4907V44.3936H57.2951C57.8473 44.3936 58.3058 43.9444 58.3058 43.3829V22.6928C58.2965 22.1313 57.8473 21.6821 57.2951 21.6821Z" fill="#14B0BF"/>
<path d="M55.7602 23.4507H24.3892V42.681H55.7602V23.4507Z" fill="#D5ECFC"/>
<path d="M14.0571 58.1494C13.6078 58.1494 13.2522 57.7845 13.2522 57.3353V42.4377C13.2522 41.9885 13.6078 41.6235 14.0571 41.6235H37.941C38.3902 41.6235 38.7552 41.9885 38.7552 42.4377V57.3353C38.7552 57.7845 38.3902 58.1494 37.941 58.1494H14.0571Z" fill="#284962"/>
<path d="M36.79 43.5327H15.9009V56.2406H36.79V43.5327Z" fill="white"/>
<path d="M14.5902 50.5689C14.1972 50.5689 13.8696 50.2507 13.8696 49.8577C13.8696 49.4646 14.1878 49.1465 14.5902 49.1465C14.9832 49.1465 15.3014 49.4646 15.3014 49.8577C15.3107 50.2413 14.9832 50.5689 14.5902 50.5689Z" fill="white"/>
<path d="M14.6372 53.9284C14.4781 53.9284 14.3564 53.7974 14.3564 53.6477V51.982C14.3564 51.8229 14.4875 51.6919 14.6372 51.6919C14.7963 51.6919 14.9273 51.8229 14.9273 51.982V53.6477C14.9273 53.7974 14.7963 53.9284 14.6372 53.9284Z" fill="white"/>
<path d="M14.6372 48.0886C14.4781 48.0886 14.3564 47.9576 14.3564 47.8079V46.1329C14.3564 45.9738 14.4875 45.8428 14.6372 45.8428C14.7963 45.8428 14.9273 45.9738 14.9273 46.1329V47.7986C14.9273 47.9576 14.7963 48.0886 14.6372 48.0886Z" fill="white"/>
<path d="M28.1885 47.6418C28.1885 48.6618 27.365 49.476 26.3544 49.476C25.3344 49.476 24.5203 48.6525 24.5203 47.6418C24.5203 46.6312 25.3438 45.8077 26.3544 45.8077C27.365 45.7983 28.1885 46.6218 28.1885 47.6418Z" fill="#FFB700"/>
<path d="M29.5922 55.4453H23.0979C23.388 52.2824 24.7355 49.8774 26.3451 49.8774C27.964 49.8868 29.3021 52.2824 29.5922 55.4453Z" fill="#FFB700"/>
<path d="M28.881 49.6337L28.4505 49.2781C28.8529 48.7915 29.0775 48.1832 29.0775 47.5469C29.0775 46.059 27.8703 44.8518 26.3824 44.8518C24.8945 44.8518 23.6874 46.059 23.6874 47.5469C23.6874 48.1177 23.8652 48.6605 24.1927 49.119L23.7435 49.4465C23.3411 48.8944 23.1353 48.2394 23.1353 47.5562C23.1353 45.7689 24.5951 44.3091 26.3824 44.3091C28.1698 44.3091 29.6296 45.7689 29.6296 47.5562C29.6389 48.3049 29.3769 49.0441 28.881 49.6337Z" fill="#14B0BF"/>
<path d="M28.7689 48.7638C28.4507 48.9697 28.0764 49.082 27.674 49.0726C27.2249 49.0632 26.7944 48.8948 26.4575 48.5954L26.6727 48.3521C26.9535 48.5954 27.3091 48.7357 27.6834 48.7544C28.039 48.7638 28.3759 48.6515 28.6472 48.4643L28.7689 48.7638Z" fill="#14B0BF"/>
<path d="M26.4951 48.2677C26.3922 48.2396 26.2799 48.3051 26.2612 48.4174L26.205 48.6701C26.1769 48.773 26.2424 48.8853 26.3454 48.904L27.3747 49.1473C27.4777 49.1754 27.59 49.1099 27.6087 48.9976L27.6742 48.745C27.7023 48.642 27.6368 48.5297 27.5245 48.511L26.4951 48.2677Z" fill="#285A73"/>
<path d="M23.7528 47.9398C23.6686 47.8088 23.5283 47.7246 23.3692 47.7246C23.2849 47.7246 23.2007 47.7527 23.1259 47.7995L22.8171 47.996C22.7141 48.0615 22.6393 48.1644 22.6205 48.2767C22.5925 48.3984 22.6112 48.5107 22.6767 48.623L23.4721 49.8863C23.5563 50.0173 23.6967 50.1015 23.8558 50.1015C23.94 50.1015 24.0242 50.0734 24.0991 50.036L24.4079 49.8395C24.5108 49.774 24.5857 49.671 24.6044 49.5587C24.6325 49.4371 24.6138 49.3154 24.5483 49.2125L23.7528 47.9398Z" fill="#285A73"/>
<path d="M30.0702 48.2769C30.0421 48.1553 29.9673 48.0617 29.8737 47.9962L29.5649 47.7997C29.359 47.6687 29.0689 47.7342 28.9379 47.94L28.1425 49.2034C28.077 49.3063 28.0583 49.4279 28.0864 49.5402C28.1144 49.6619 28.1893 49.7555 28.2829 49.821L28.5917 50.0175C28.6665 50.0643 28.7508 50.083 28.835 50.083C28.9941 50.083 29.1344 50.0081 29.2187 49.8678L30.0141 48.6045C30.0796 48.5202 30.0983 48.3986 30.0702 48.2769Z" fill="#285A73"/>
<path d="M65.9428 41.8013C66.392 41.8013 66.7477 42.1663 66.7477 42.6155V57.5131C66.7477 57.9623 66.3827 58.3273 65.9428 58.3273H42.0589C41.6096 58.3273 41.2446 57.9623 41.2446 57.5131V42.6061C41.2446 42.1569 41.6096 41.792 42.0589 41.792H65.9428V41.8013Z" fill="#284962"/>
<path d="M64.1084 43.7012H43.21V56.4091H64.1084V43.7012Z" fill="white"/>
<path d="M65.4094 49.3813C65.8025 49.3813 66.13 49.6995 66.13 50.0925C66.13 50.4856 65.8118 50.8037 65.4094 50.8037C65.0164 50.8037 64.6982 50.4856 64.6982 50.0925C64.6982 49.6995 65.0164 49.3813 65.4094 49.3813Z" fill="white"/>
<path d="M65.3625 46.0127C65.5216 46.0127 65.6433 46.1437 65.6433 46.3028V47.9685C65.6433 48.1276 65.5216 48.2586 65.3625 48.2586C65.2034 48.2586 65.0818 48.1276 65.0818 47.9685V46.3028C65.0818 46.1437 65.2034 46.0127 65.3625 46.0127Z" fill="white"/>
<path d="M65.3625 51.8608C65.5216 51.8608 65.6433 51.9919 65.6433 52.1509V53.8166C65.6433 53.9757 65.5216 54.0974 65.3625 54.0974C65.2034 54.0974 65.0818 53.9663 65.0818 53.8166V52.1509C65.0818 51.9825 65.2034 51.8608 65.3625 51.8608Z" fill="white"/>
<path d="M55.4978 47.7536C55.4978 48.7736 54.6743 49.5971 53.6543 49.5971C52.6343 49.5971 51.8108 48.7736 51.8108 47.7536C51.8108 46.7336 52.6343 45.9102 53.6543 45.9102C54.6743 45.9102 55.4978 46.7336 55.4978 47.7536Z" fill="#D93D15"/>
<path d="M56.9104 55.5757H50.4067C50.6968 52.4034 52.0444 50.0078 53.6539 50.0078C55.2728 50.0078 56.6203 52.4034 56.9104 55.5757Z" fill="#D93D15"/>
<path d="M56.1996 49.7554L55.7691 49.3998C56.1715 48.9132 56.3961 48.305 56.3961 47.6686C56.3961 46.1807 55.1889 44.9736 53.701 44.9736C52.2131 44.9736 51.006 46.1807 51.006 47.6686C51.006 48.2395 51.1838 48.7822 51.5113 49.2407L51.0621 49.5683C50.6597 49.0162 50.4539 48.3611 50.4539 47.6686C50.4539 45.8719 51.9137 44.4121 53.7104 44.4121C55.5071 44.4121 56.9669 45.8719 56.9669 47.6686C56.9575 48.4266 56.6862 49.1659 56.1996 49.7554Z" fill="#285A73"/>
<path d="M56.0785 48.8854C55.7603 49.0913 55.386 49.2035 54.9836 49.1942C54.5344 49.1848 54.104 49.007 53.7671 48.7169L53.9823 48.4736C54.2631 48.7169 54.6186 48.8667 54.993 48.876C55.3486 48.8854 55.6854 48.7731 55.9568 48.5859L56.0785 48.8854Z" fill="#285A73"/>
<path d="M53.804 48.3883C53.701 48.3602 53.5888 48.4258 53.57 48.538L53.5045 48.7907C53.4765 48.8936 53.542 49.0059 53.6543 49.0247L54.6836 49.268C54.7866 49.296 54.8988 49.2305 54.9176 49.1182L54.9831 48.8656C55.0111 48.7626 54.9456 48.6503 54.8333 48.6316L53.804 48.3883Z" fill="#14B0BF"/>
<path d="M51.062 48.0619C50.9778 47.9309 50.8374 47.8467 50.6783 47.8467C50.5941 47.8467 50.5099 47.8748 50.435 47.9215L50.1262 48.1181C50.0233 48.1836 49.9484 48.2865 49.9203 48.3988C49.8923 48.5204 49.911 48.6327 49.9765 48.745L50.7719 50.0083C50.8561 50.1393 50.9965 50.2236 51.1556 50.2236C51.2398 50.2236 51.324 50.1955 51.3989 50.1487L51.7077 49.9522C51.8106 49.8867 51.8855 49.7837 51.9042 49.6715C51.9323 49.5498 51.9136 49.4281 51.8481 49.3252L51.062 48.0619Z" fill="#14B0BF"/>
<path d="M57.3886 48.399C57.3605 48.2774 57.2856 48.1744 57.1921 48.1183L56.8833 47.9218C56.6774 47.7907 56.3873 47.8562 56.2563 48.0621L55.4609 49.3254C55.3954 49.4284 55.3766 49.55 55.4047 49.6717C55.4328 49.7933 55.5077 49.8869 55.6012 49.9524L55.91 50.1489C55.9849 50.1957 56.0691 50.2238 56.1533 50.2238C56.3124 50.2238 56.4528 50.1396 56.537 50.0085L57.3324 48.7452C57.3979 48.6329 57.4167 48.5207 57.3886 48.399Z" fill="#14B0BF"/>
<path d="M42.7784 29.5421C42.7784 31.0487 41.5526 32.2652 40.046 32.2652C38.5394 32.2652 37.3135 31.0487 37.3135 29.5421C37.3135 28.0354 38.53 26.8096 40.046 26.8096C41.5526 26.8096 42.7784 28.0354 42.7784 29.5421Z" fill="#284962"/>
<path d="M44.8654 41.1276H35.2268C35.6573 36.43 37.6505 32.874 40.0461 32.874C42.4417 32.874 44.4349 36.43 44.8654 41.1276Z" fill="#284962"/>
<path d="M43.8171 32.4996L43.1808 31.9662C43.7797 31.2457 44.1166 30.338 44.1166 29.4022C44.1166 27.2031 42.3292 25.4064 40.1208 25.4064C37.9123 25.4064 36.125 27.2031 36.125 29.4022C36.125 30.2444 36.387 31.0492 36.8736 31.7323L36.1999 32.2189C35.6103 31.3954 35.3015 30.4222 35.3015 29.4116C35.3015 26.7539 37.4632 24.5923 40.1208 24.5923C42.7784 24.5923 44.9401 26.7539 44.9401 29.4116C44.9401 30.5345 44.5377 31.6294 43.8171 32.4996Z" fill="#F99A24"/>
<path d="M43.64 31.2177C43.1722 31.5172 42.62 31.6856 42.0211 31.6762C41.3567 31.6575 40.7111 31.4049 40.2151 30.9651L40.5333 30.6001C40.945 30.9651 41.4784 31.1803 42.0305 31.1896C42.5545 31.2084 43.0505 31.0399 43.4529 30.7592L43.64 31.2177Z" fill="#F99A24"/>
<path d="M40.2709 30.4789C40.1118 30.4415 39.9527 30.5351 39.9153 30.6942L39.8217 31.0685C39.7843 31.2276 39.8778 31.3866 40.0369 31.4241L41.5623 31.789C41.7213 31.8265 41.8804 31.7329 41.9179 31.5738L42.0114 31.1995C42.0489 31.0404 41.9553 30.8813 41.7962 30.8439L40.2709 30.4789Z" fill="#D93D15"/>
<path d="M37.3232 29.6829L37.9876 29.7952C38.0999 30.1321 38.4087 30.3754 38.7831 30.3754C39.1574 30.3754 39.4662 30.1321 39.5785 29.7859L39.5972 29.8046C39.5972 29.7952 39.8124 29.5145 40.0744 29.5051H40.0838C40.2335 29.5051 40.3832 29.5987 40.5236 29.7952C40.6266 30.1321 40.9447 30.3754 41.319 30.3754C41.7027 30.3754 42.0209 30.1134 42.1238 29.7671L42.7882 29.5613L42.7788 29.2899L42.1519 29.4677C42.1144 29.0279 41.7588 28.691 41.319 28.691C40.9166 28.691 40.5798 28.9811 40.4955 29.3554C40.3645 29.2618 40.2242 29.2057 40.0838 29.2057C40.0744 29.2057 40.0744 29.2057 40.0744 29.2057C39.8873 29.215 39.7282 29.2899 39.6159 29.3741C39.5504 28.9811 39.2042 28.6816 38.7924 28.6816C38.3432 28.6816 37.9689 29.0372 37.9596 29.4864L37.3326 29.3835V29.6829H37.3232Z" fill="white"/>
<path d="M36.2095 29.9915C36.0878 29.795 35.8726 29.6733 35.6387 29.6733C35.517 29.6733 35.386 29.7108 35.2831 29.7763L34.8245 30.0664C34.6748 30.1599 34.5625 30.3097 34.5251 30.4875C34.4876 30.6653 34.5157 30.8431 34.6093 30.9928L35.7884 32.8644C35.91 33.0609 36.1253 33.1825 36.3592 33.1825C36.4809 33.1825 36.6119 33.1451 36.7148 33.0796L37.1733 32.7895C37.3231 32.6959 37.4354 32.5462 37.4728 32.3684C37.5102 32.1906 37.4821 32.0128 37.3886 31.8631L36.2095 29.9915Z" fill="#D93D15"/>
<path d="M45.5773 30.4971C45.5399 30.3193 45.4276 30.1695 45.2778 30.076L44.8193 29.7859C44.5105 29.5893 44.08 29.6923 43.8929 30.0011L42.7138 31.8727C42.6202 32.0224 42.5921 32.2095 42.6296 32.378C42.667 32.5558 42.7699 32.7055 42.929 32.7991L43.3876 33.0892C43.4998 33.1547 43.6215 33.1921 43.7432 33.1921C43.9771 33.1921 44.1923 33.0705 44.314 32.8739L45.4931 31.0024C45.5866 30.8527 45.6147 30.6655 45.5773 30.4971Z" fill="#D93D15"/>
<path d="M40.6923 33.5197C40.6923 33.8753 40.4022 34.1654 40.0466 34.1654C39.691 34.1654 39.4009 33.8753 39.4009 33.5197C39.4009 33.1641 39.691 32.874 40.0466 32.874C40.4022 32.874 40.6923 33.1641 40.6923 33.5197Z" fill="white"/>
<path d="M39.8875 33.8848L39.2886 34.8299L40.1308 37.4595L40.9075 34.8299L40.2899 33.8848H39.8875Z" fill="white"/>
<path d="M54.1498 35.9336C54.1498 34.455 52.7087 33.2666 50.9213 33.2666C49.1433 33.2666 47.6929 34.4644 47.6929 35.9336C47.6929 37.4028 49.134 38.6006 50.9213 38.6006C51.1459 38.6006 51.3705 38.5818 51.5857 38.5444C51.932 39.4802 52.1846 40.7435 52.1846 40.7435L52.4654 38.2824C53.4666 37.8239 54.1498 36.9442 54.1498 35.9336Z" fill="white"/>
<path d="M30.6871 33.0327C28.7874 33.0327 27.2527 34.1182 27.2527 35.447C27.2527 35.9056 27.4399 36.336 27.7581 36.701L26.0549 38.3105L28.8436 37.487C29.377 37.7303 30.0133 37.8707 30.6871 37.8707C32.5867 37.8707 34.1214 36.7852 34.1214 35.4564C34.1214 34.1089 32.5773 33.0327 30.6871 33.0327Z" fill="white"/>
</svg>
