<svg width="80" height="80" viewBox="0 0 80 80" fill="none" xmlns="http://www.w3.org/2000/svg">
<path d="M80 40.0047V40.1357C79.9251 62.164 62.0423 80 39.9953 80C34.7456 80 29.7298 78.9894 25.1351 77.1459C10.4059 71.2504 0 56.8394 0 40.0047C0 17.9109 17.9109 0 39.9953 0C62.0891 0 80 17.9109 80 40.0047Z" fill="#85C3D9"/>
<path d="M58.6174 58.5612C58.6174 59.2443 58.0653 59.787 57.3822 59.787H15.3001C14.6263 59.787 14.0742 59.2349 14.0742 58.5612V33.3138C14.0742 32.64 14.6263 32.0879 15.3001 32.0879H57.3822C58.0653 32.0879 58.6174 32.64 58.6174 33.3138V58.5612Z" fill="#284962"/>
<path d="M55.7444 34.0347H16.9375V57.8316H55.7444V34.0347Z" fill="white"/>
<path d="M55.7537 57.8316H16.9375L55.7537 34.0347V57.8316Z" fill="#D5ECFC"/>
<path d="M61.8082 63.2587C61.1625 64.1103 59.843 64.1009 59.1599 64.1009H13.5218C12.848 64.1009 11.9216 64.2319 10.8735 63.2587L9.46052 61.5649C9.12363 61.1719 9.10492 60.7134 10.6864 60.7134H61.986C63.5581 60.7134 63.5581 61.1813 63.2118 61.5649L61.8082 63.2587Z" fill="#284962"/>
<path d="M61.069 41.4735C60.3297 43.4199 53.33 44.4212 46.1994 41.7074C39.0594 38.9936 34.4927 33.6035 35.232 31.6571L39.574 20.2312C43.2049 17.6204 48.1926 22.7765 52.7405 24.4984C57.3913 26.267 64.4846 25.6494 65.4203 30.0476L61.069 41.4735Z" fill="#285A73"/>
<path d="M49.5773 31.9197C49.4089 31.9197 49.2404 31.8448 49.1281 31.7231L35.7558 17.5554C35.578 17.3682 35.5406 17.0969 35.6435 16.8629C35.7465 16.6477 35.9711 16.5073 36.205 16.5073C36.2144 16.5073 55.1359 17.6303 55.1359 17.6303C55.2762 17.6396 55.4072 17.6958 55.5195 17.7893L69.8932 30.8154C70.0803 30.9839 70.1458 31.2646 70.0522 31.4986C69.9587 31.7419 69.7247 31.8916 69.472 31.9009L49.5773 31.9197Z" fill="#284962"/>
<path d="M70.3145 30.3568L55.9409 17.3308C55.735 17.1436 55.4636 17.0313 55.1829 17.0126L36.2801 15.8896C36.252 15.8896 36.2333 15.8896 36.2052 15.8896C35.728 15.8896 35.2882 16.1704 35.0729 16.6102C34.8577 17.0687 34.9419 17.6208 35.2975 17.9952L48.6698 32.1629C48.9038 32.4156 49.2313 32.5559 49.5775 32.5559L69.4816 32.5372C69.9963 32.5372 70.4548 32.219 70.642 31.7418C70.8198 31.2458 70.6888 30.7031 70.3145 30.3568ZM49.5775 31.2926L36.2052 17.1342L55.108 18.2572L69.4816 31.2833L49.5775 31.2926Z" fill="#284962"/>
<path d="M63.521 49.1565C63.1748 49.1565 62.9034 48.8757 62.9034 48.5389V35.2788L52.301 24.9384C52.0577 24.6951 52.0483 24.3021 52.2916 24.0588C52.5349 23.8155 52.928 23.8061 53.1713 24.0494L63.9608 34.577C64.0825 34.6986 64.148 34.8577 64.148 35.0262V48.5389C64.148 48.8757 63.8673 49.1565 63.521 49.1565Z" fill="#FFB700"/>
<path d="M66.2437 50.8032C66.2531 51.7952 65.4576 52.6186 64.4564 52.628L62.6503 52.6467C61.649 52.6561 60.8349 51.8607 60.8255 50.8594L60.7974 48.3702C60.7881 47.3783 61.5648 44.7581 62.5661 44.7487L64.3721 44.73C65.3641 44.7206 66.1969 47.3221 66.2063 48.3141L66.2437 50.8032Z" fill="#F99A24"/>
<path d="M21.9439 49.0816H19.6138V45.0391H21.9439V45.7409H20.4747V46.6299H21.8409V47.3317H20.4747V48.3704H21.9439V49.0816Z" fill="#14B0BF"/>
<path d="M22.4492 47.9122V47.2197H23.9371V47.9122H22.4492Z" fill="#14B0BF"/>
<path d="M24.6108 49.0816V45.0391H25.4718V48.3704H27.1094V49.0816H24.6108Z" fill="#14B0BF"/>
<path d="M30.1323 49.0816H27.8022V45.0391H30.1323V45.7409H28.6632V46.6299H30.0294V47.3317H28.6632V48.3704H30.1323V49.0816Z" fill="#14B0BF"/>
<path d="M33.4538 49.0818L33.1637 48.1179H31.6945L31.4045 49.0818H30.478L31.9004 45.0205H32.9485L34.3802 49.0818H33.4538ZM32.9579 47.3974C32.6865 46.5271 32.5367 46.0312 32.4993 45.9189C32.4619 45.8066 32.4432 45.713 32.4245 45.6475C32.3683 45.8814 32.1905 46.471 31.9004 47.3974H32.9579Z" fill="#14B0BF"/>
<path d="M35.7467 47.5282V49.0816H34.8857V45.0391H36.0648C36.6169 45.0391 37.0193 45.142 37.2813 45.3385C37.5434 45.535 37.6744 45.8438 37.6744 46.2462C37.6744 46.4802 37.6089 46.6954 37.4779 46.8826C37.3468 47.0697 37.1597 47.2101 36.9257 47.3224C37.534 48.2301 37.927 48.8196 38.1142 49.0816H37.1597L36.1958 47.5282H35.7467ZM35.7467 46.8358H36.018C36.2894 46.8358 36.4859 46.789 36.6169 46.7048C36.748 46.6112 36.8135 46.4708 36.8135 46.2743C36.8135 46.0871 36.748 45.9468 36.6169 45.8625C36.4859 45.7783 36.2801 45.7409 36.0087 45.7409H35.7467V46.8358Z" fill="#14B0BF"/>
<path d="M42.213 49.0812H41.1182L39.3589 46.0212H39.3308C39.3683 46.564 39.387 46.9477 39.387 47.1722V49.0719H38.6196V45.0293H39.6958L41.455 48.0519H41.4738C41.4457 47.5278 41.4363 47.1535 41.4363 46.9383V45.0293H42.2037V49.0812H42.213Z" fill="#14B0BF"/>
<path d="M43.2236 49.0816V45.0391H44.0846V49.0816H43.2236Z" fill="#14B0BF"/>
<path d="M48.689 49.0812H47.5942L45.8349 46.0212H45.8068C45.8442 46.564 45.863 46.9477 45.863 47.1722V49.0719H45.105V45.0293H46.1811L47.9404 48.0519H47.9591C47.931 47.5278 47.9217 47.1535 47.9217 46.9383V45.0293H48.6984V49.0812H48.689Z" fill="#14B0BF"/>
<path d="M51.234 46.8077H52.8342V48.9038C52.5722 48.9881 52.3289 49.0442 52.095 49.0816C51.8704 49.1191 51.6271 49.1284 51.3931 49.1284C50.7849 49.1284 50.317 48.9506 49.9988 48.595C49.6806 48.2394 49.5122 47.7248 49.5122 47.051C49.5122 46.3959 49.6994 45.8906 50.0737 45.5257C50.448 45.1607 50.9627 44.9829 51.6271 44.9829C52.0388 44.9829 52.4412 45.0671 52.8249 45.2356L52.5441 45.9187C52.2447 45.769 51.9452 45.6941 51.6271 45.6941C51.2528 45.6941 50.9627 45.8158 50.7381 46.0684C50.5135 46.3211 50.4012 46.6486 50.4012 47.0697C50.4012 47.5095 50.4948 47.8464 50.6726 48.071C50.8504 48.3049 51.1124 48.4172 51.4586 48.4172C51.6364 48.4172 51.8142 48.3985 52.0014 48.3611V47.5189H51.234V46.8077Z" fill="#14B0BF"/>
</svg>
