<svg width="80" height="80" viewBox="0 0 80 80" fill="none" xmlns="http://www.w3.org/2000/svg">
<path d="M80 40.0047V40.1357C79.9251 62.164 62.0423 80 39.9953 80C34.7456 80 29.7298 78.9894 25.1351 77.1459C10.4059 71.2504 0 56.8394 0 40.0047C0 17.9109 17.9109 0 39.9953 0C62.0891 0 80 17.9109 80 40.0047Z" fill="#85C3D9"/>
<path d="M58.6174 58.5612C58.6174 59.2443 58.0653 59.787 57.3822 59.787H15.3001C14.6263 59.787 14.0742 59.2349 14.0742 58.5612V33.3138C14.0742 32.64 14.6263 32.0879 15.3001 32.0879H57.3822C58.0653 32.0879 58.6174 32.64 58.6174 33.3138V58.5612Z" fill="#284962"/>
<path d="M55.7441 34.0347H16.9373V57.8316H55.7441V34.0347Z" fill="white"/>
<path d="M55.7535 57.8316H16.9373L55.7535 34.0347V57.8316Z" fill="#D5ECFC"/>
<path d="M61.8082 63.2587C61.1625 64.1103 59.843 64.1009 59.1599 64.1009H13.5218C12.848 64.1009 11.9216 64.2319 10.8735 63.2587L9.46052 61.5649C9.12363 61.1719 9.10492 60.7134 10.6864 60.7134H61.986C63.5581 60.7134 63.5581 61.1813 63.2118 61.5649L61.8082 63.2587Z" fill="#284962"/>
<path d="M61.0692 41.4735C60.3299 43.4199 53.3303 44.4212 46.1996 41.7074C39.0596 38.9936 34.493 33.6035 35.2323 31.6571L39.5743 20.2312C43.2051 17.6204 48.1928 22.7765 52.7407 24.4984C57.3916 26.267 64.4848 25.6494 65.4206 30.0476L61.0692 41.4735Z" fill="#285A73"/>
<path d="M49.5776 31.9197C49.4091 31.9197 49.2407 31.8448 49.1284 31.7231L35.7561 17.5554C35.5783 17.3682 35.5408 17.0969 35.6438 16.8629C35.7467 16.6477 35.9713 16.5073 36.2052 16.5073C36.2146 16.5073 55.1361 17.6303 55.1361 17.6303C55.2765 17.6396 55.4075 17.6958 55.5198 17.7893L69.8934 30.8154C70.0806 30.9839 70.1461 31.2646 70.0525 31.4986C69.9589 31.7419 69.7249 31.8916 69.4723 31.9009L49.5776 31.9197Z" fill="#284962"/>
<path d="M70.3145 30.3568L55.9409 17.3308C55.735 17.1436 55.4636 17.0313 55.1829 17.0126L36.2801 15.8896C36.252 15.8896 36.2333 15.8896 36.2052 15.8896C35.728 15.8896 35.2882 16.1704 35.0729 16.6102C34.8577 17.0687 34.9419 17.6208 35.2975 17.9952L48.6698 32.1629C48.9038 32.4156 49.2313 32.5559 49.5775 32.5559L69.4816 32.5372C69.9963 32.5372 70.4548 32.219 70.642 31.7418C70.8198 31.2458 70.6888 30.7031 70.3145 30.3568ZM49.5775 31.2926L36.2052 17.1342L55.108 18.2572L69.4816 31.2833L49.5775 31.2926Z" fill="#284962"/>
<path d="M63.5208 49.1565C63.1745 49.1565 62.9032 48.8757 62.9032 48.5389V35.2788L52.3007 24.9384C52.0574 24.6951 52.0481 24.3021 52.2914 24.0588C52.5347 23.8155 52.9277 23.8061 53.171 24.0494L63.9606 34.577C64.0822 34.6986 64.1478 34.8577 64.1478 35.0262V48.5389C64.1478 48.8757 63.867 49.1565 63.5208 49.1565Z" fill="#FFB700"/>
<path d="M66.2439 50.8032C66.2533 51.7952 65.4579 52.6186 64.4566 52.628L62.6505 52.6467C61.6492 52.6561 60.8351 51.8607 60.8258 50.8594L60.7977 48.3702C60.7883 47.3783 61.565 44.7581 62.5663 44.7487L64.3724 44.73C65.3643 44.7206 66.1972 47.3221 66.2065 48.3141L66.2439 50.8032Z" fill="#F99A24"/>
<path d="M21.9444 49.0816H19.6143V45.0391H21.9444V45.7409H20.4752V46.6299H21.8414V47.3317H20.4752V48.3704H21.9444V49.0816Z" fill="#14B0BF"/>
<path d="M22.4495 47.9122V47.2197H23.9374V47.9122H22.4495Z" fill="#14B0BF"/>
<path d="M24.6111 49.0816V45.0391H25.472V48.3704H27.1096V49.0816H24.6111Z" fill="#14B0BF"/>
<path d="M30.1323 49.0816H27.8022V45.0391H30.1323V45.7409H28.6632V46.6299H30.0294V47.3317H28.6632V48.3704H30.1323V49.0816Z" fill="#14B0BF"/>
<path d="M33.4543 49.0818L33.1642 48.1179H31.695L31.4049 49.0818H30.4785L31.9009 45.0205H32.949L34.3807 49.0818H33.4543ZM32.9583 47.3974C32.687 46.5271 32.5372 46.0312 32.4998 45.9189C32.4624 45.8066 32.4437 45.713 32.4249 45.6475C32.3688 45.8814 32.191 46.471 31.9009 47.3974H32.9583Z" fill="#14B0BF"/>
<path d="M35.7469 47.5282V49.0816H34.886V45.0391H36.0651C36.6172 45.0391 37.0196 45.142 37.2816 45.3385C37.5436 45.535 37.6746 45.8438 37.6746 46.2462C37.6746 46.4802 37.6091 46.6954 37.4781 46.8826C37.3471 47.0697 37.1599 47.2101 36.926 47.3224C37.5342 48.2301 37.9273 48.8196 38.1144 49.0816H37.1599L36.1961 47.5282H35.7469ZM35.7469 46.8358H36.0183C36.2897 46.8358 36.4862 46.789 36.6172 46.7048C36.7482 46.6112 36.8137 46.4708 36.8137 46.2743C36.8137 46.0871 36.7482 45.9468 36.6172 45.8625C36.4862 45.7783 36.2803 45.7409 36.0089 45.7409H35.7469V46.8358Z" fill="#14B0BF"/>
<path d="M42.2133 49.0812H41.1184L39.3591 46.0212H39.3311C39.3685 46.564 39.3872 46.9477 39.3872 47.1722V49.0719H38.6199V45.0293H39.696L41.4553 48.0519H41.474C41.4459 47.5278 41.4366 47.1535 41.4366 46.9383V45.0293H42.2039V49.0812H42.2133Z" fill="#14B0BF"/>
<path d="M43.2239 49.0816V45.0391H44.0848V49.0816H43.2239Z" fill="#14B0BF"/>
<path d="M48.6893 49.0812H47.5944L45.8351 46.0212H45.8071C45.8445 46.564 45.8632 46.9477 45.8632 47.1722V49.0719H45.1052V45.0293H46.1814L47.9406 48.0519H47.9594C47.9313 47.5278 47.9219 47.1535 47.9219 46.9383V45.0293H48.6986V49.0812H48.6893Z" fill="#14B0BF"/>
<path d="M51.2345 46.8077H52.8347V48.9038C52.5727 48.9881 52.3294 49.0442 52.0955 49.0816C51.8709 49.1191 51.6276 49.1284 51.3936 49.1284C50.7854 49.1284 50.3175 48.9506 49.9993 48.595C49.6811 48.2394 49.5127 47.7248 49.5127 47.051C49.5127 46.3959 49.6999 45.8906 50.0742 45.5257C50.4485 45.1607 50.9632 44.9829 51.6276 44.9829C52.0393 44.9829 52.4417 45.0671 52.8254 45.2356L52.5446 45.9187C52.2452 45.769 51.9457 45.6941 51.6276 45.6941C51.2532 45.6941 50.9632 45.8158 50.7386 46.0684C50.514 46.3211 50.4017 46.6486 50.4017 47.0697C50.4017 47.5095 50.4953 47.8464 50.6731 48.071C50.8509 48.3049 51.1129 48.4172 51.4591 48.4172C51.6369 48.4172 51.8147 48.3985 52.0019 48.3611V47.5189H51.2345V46.8077Z" fill="#14B0BF"/>
</svg>
