<svg width="622" height="531" viewBox="0 0 622 531" fill="none" xmlns="http://www.w3.org/2000/svg">
<g clip-path="url(#clip0_257_2501)">
<path opacity="0.2" d="M395.229 521.11L446.209 491.673C451.965 488.358 451.241 482.551 444.593 478.714L324.708 409.506C318.06 405.669 308.029 405.248 302.273 408.581L251.293 438.017C245.537 441.333 246.261 447.14 252.909 450.977L372.794 520.185C379.425 524.022 389.473 524.443 395.229 521.11Z" fill="#92B4D1"/>
<path d="M395.229 516.801L446.209 487.365C448.784 485.884 450.063 483.897 450.097 481.827C450.097 481.642 450.097 477.653 450.08 477.468C449.861 475.061 448.027 476.391 444.61 474.422L324.725 405.214C318.077 401.377 308.046 400.956 302.29 404.289L251.31 433.725C248.735 435.206 247.473 432.598 247.422 434.668C247.422 434.853 247.422 439.616 247.439 439.801C247.641 442.208 249.493 444.699 252.909 446.668L372.794 515.876C379.425 519.696 389.473 520.117 395.229 516.801Z" fill="#3A98B9"/>
<path d="M395.229 512.426L446.209 482.989C451.965 479.673 451.241 473.867 444.593 470.029L324.708 400.822C318.06 396.984 308.029 396.564 302.273 399.896L251.293 429.333C245.537 432.648 246.261 438.455 252.909 442.292L372.794 511.5C379.425 515.337 389.473 515.741 395.229 512.426Z" fill="#D1EBFF"/>
<path d="M446.209 482.417L395.229 511.854C389.473 515.169 379.425 514.765 372.793 510.928L252.909 441.72C249.408 439.701 247.557 437.142 247.422 434.685C247.271 437.311 249.139 440.121 252.909 442.293L372.793 511.5C379.442 515.337 389.473 515.758 395.229 512.426L446.209 482.989C448.935 481.424 450.198 479.286 450.08 477.081C449.962 479.084 448.7 480.986 446.209 482.417Z" fill="white"/>
<path d="M440.924 471.897L321.494 402.942C316.613 400.132 309.258 399.829 305.033 402.252L255.4 430.898C251.175 433.338 251.714 437.597 256.578 440.407L376.008 509.362C380.872 512.173 388.244 512.476 392.468 510.052L442.102 481.407C446.327 478.966 445.788 474.708 440.924 471.897Z" fill="#022652"/>
<path d="M305.471 403.178C309.443 400.889 315.873 400.872 319.828 403.144L440.571 472.857C444.526 475.146 444.509 478.849 440.52 481.137L392.048 509.127C388.076 511.416 381.647 511.433 377.691 509.16L256.948 439.448C252.993 437.159 253.01 433.456 256.999 431.167L305.471 403.178Z" fill="#03336E"/>
<path opacity="0.2" d="M419.903 421.742L325.887 367.144C320.232 363.878 320.938 358.173 327.469 354.386L409.972 322.643C416.503 318.873 426.399 318.453 432.054 321.735L495.236 358.745C500.892 362.01 500.185 367.716 493.654 371.503L441.984 420.816C435.454 424.603 425.574 425.024 419.903 421.742Z" fill="#92B4D1"/>
<path d="M419.902 416.659L325.886 362.061C323.362 360.596 322.1 358.661 322.066 356.624C322.066 356.557 322.066 349.589 322.066 349.522C322.116 347.048 323.934 351.339 327.469 349.303L409.972 317.56C416.503 313.79 426.399 313.37 432.054 316.652L495.236 353.662C497.121 354.756 498.501 350.128 498.99 351.592C499.158 352.08 499.057 358.577 499.057 359.082C499.107 361.623 497.273 364.316 493.654 366.403L441.984 415.717C435.454 419.52 425.574 419.924 419.902 416.659Z" fill="#3A98B9"/>
<path d="M419.903 409.691L325.887 355.093C320.232 351.828 320.938 346.122 327.469 342.335L409.972 310.593C416.503 306.823 426.399 306.402 432.054 309.684L495.236 346.694C500.892 349.959 500.185 355.665 493.654 359.452L441.984 408.766C435.454 412.536 425.574 412.957 419.903 409.691Z" fill="#D1EBFF"/>
<path opacity="0.5" d="M495.253 346.694L432.071 309.684C426.416 306.419 416.519 306.823 409.989 310.593L368.417 326.582C368.805 326.885 369.225 327.188 369.713 327.474L463.729 382.072C465.025 382.83 466.574 383.368 468.223 383.739L493.671 359.452C500.201 355.682 500.925 349.959 495.253 346.694Z" fill="#A8CFF0"/>
<path d="M493.671 358.257L442.001 407.571C435.471 411.341 425.575 411.762 419.919 408.48L325.904 353.881C323.547 352.518 322.319 350.751 322.117 348.866C321.831 351.172 323.059 353.427 325.904 355.059L419.919 409.658C425.575 412.923 435.471 412.519 442.001 408.749L493.671 359.435C497.492 357.231 499.31 354.353 499.04 351.693C498.737 354.016 496.936 356.389 493.671 358.257Z" fill="white"/>
<path d="M565.74 412.704L310.117 264.998C297.056 257.458 286.453 237.211 286.453 219.791V24.2864C286.453 6.86669 297.039 -1.14469 310.117 6.39543L565.74 154.101C578.801 161.641 589.404 181.888 589.404 199.308V394.796C589.404 412.233 578.818 420.244 565.74 412.704Z" fill="#A8CFF0"/>
<path d="M568.803 399.088L316.781 253.486C306.262 246.804 299.766 233.441 299.766 219.774V23.0073C299.766 19.7758 303.283 17.7562 306.077 19.3887C306.397 19.5739 306.666 19.7253 306.818 19.8263L559.092 165.613C571.614 172.834 576.108 185.659 576.108 199.325V395.486C576.108 398.953 572.355 401.141 569.342 399.408C569.106 399.273 568.921 399.155 568.803 399.088Z" fill="#084C94"/>
<path d="M559.092 165.614L306.818 19.8266C306.666 19.7425 306.397 19.591 306.077 19.389C303.283 17.7565 299.766 19.7593 299.766 23.0076V219.791C299.766 233.458 306.262 246.805 316.781 253.503L568.803 399.105C568.921 399.172 569.123 399.29 569.359 399.425C572.371 401.142 576.125 398.97 576.125 395.503V199.309C576.125 185.642 571.614 172.817 559.092 165.614ZM573.465 395.47C573.465 396.631 572.489 397.338 571.58 397.338C571.261 397.338 570.958 397.254 570.655 397.085L318.094 251.181C308.602 245.138 302.408 232.801 302.408 219.775V23.0076C302.408 22.0651 303.216 21.476 303.956 21.476C304.226 21.476 304.478 21.5434 304.731 21.6948L557.762 167.903C570.739 175.375 573.449 189.109 573.449 199.309V395.47H573.465Z" fill="#03336E"/>
<path d="M572.456 150.533L316.832 2.8443C311.665 -0.134719 306.885 -0.69013 302.98 0.807797C302.492 0.992934 295.895 4.51054 295.423 4.763C295.406 4.763 295.406 4.77983 295.39 4.77983C299.429 2.81064 304.546 3.18092 310.116 6.39557L565.74 154.101C578.801 161.641 589.404 181.889 589.404 199.308V394.796C589.404 405.669 585.281 412.872 579.003 414.926C579.508 414.959 580.147 414.757 581.073 414.219C581.376 414.05 588.529 410.011 588.815 409.809C593.309 406.662 596.103 400.199 596.103 391.245V195.757C596.119 178.321 585.516 158.09 572.456 150.533Z" fill="#5CAFCC"/>
<path d="M566.885 153.529L311.261 5.8402C305.909 2.74336 300.977 2.30576 297.005 4.02249C300.388 3.48391 304.276 4.30861 308.417 6.69856L564.04 154.404C577.101 161.944 587.704 182.192 587.704 199.611V395.099C587.704 405.383 584.001 412.351 578.296 414.808C585.6 413.646 590.548 406.157 590.548 394.241V198.753C590.548 181.316 579.945 161.086 566.885 153.529Z" fill="white"/>
<path d="M557.039 178.354L520.415 157.181C514.02 153.478 508.819 157.4 508.819 165.95V208.329C508.819 216.863 514.003 226.776 520.415 230.479L557.039 251.651C563.434 255.354 568.635 251.433 568.635 242.883V200.503C568.618 191.97 563.434 182.04 557.039 178.354Z" fill="#03336E"/>
<path d="M561.566 248.201L524.943 227.028C518.547 223.325 513.346 213.412 513.346 204.879V162.483C513.346 159.79 513.868 157.551 514.777 155.868C511.226 156.457 508.819 160.126 508.819 165.933V208.312C508.819 216.846 514.003 226.759 520.415 230.462L557.039 251.634C561.415 254.159 565.218 253.116 567.204 249.48C565.521 249.766 563.603 249.379 561.566 248.201Z" fill="#001A46"/>
<path d="M528.595 190.203L491.972 169.03C485.576 165.327 480.375 169.249 480.375 177.799V220.178C480.375 228.711 485.559 238.624 491.972 242.327L528.595 263.5C534.991 267.203 540.192 263.281 540.192 254.731V212.352C540.175 203.819 534.991 193.905 528.595 190.203Z" fill="#F0F8FF"/>
<path d="M534.57 186.702L497.963 165.529C495.22 163.947 492.712 163.762 490.726 164.738L490.659 164.671L484.331 168.39L484.347 168.475C486.384 167.263 489.06 167.33 491.988 169.03L528.612 190.203C535.008 193.906 540.208 203.819 540.208 212.352V254.732C540.208 258.872 538.98 261.918 536.977 263.551L540.511 261.228C543.473 259.528 546.183 256.886 546.183 251.231V208.851C546.149 200.318 540.966 190.388 534.57 186.702Z" fill="#A8CFF0"/>
<path d="M540.174 212.352C540.174 203.819 534.991 193.905 528.578 190.203L491.955 169.03C485.559 165.327 480.358 169.249 480.358 177.799L540.174 212.352Z" fill="#F76195"/>
<path d="M546.149 208.851C546.149 200.318 540.965 190.405 534.553 186.702L497.946 165.529C495.203 163.947 492.695 163.762 490.709 164.738L490.642 164.671L484.313 168.39L484.33 168.475C486.367 167.263 489.043 167.33 491.971 169.03L528.595 190.203C534.991 193.906 540.191 203.819 540.191 212.352L546.149 208.851Z" fill="#D62D69"/>
<path opacity="0.7" d="M529.235 189.664L492.628 168.474C489.447 166.64 486.569 166.69 484.482 168.239C486.384 167.515 488.706 167.784 491.231 169.232L527.854 190.405C534.25 194.107 539.451 204.021 539.451 212.554V254.933C539.451 259.225 538.138 262.356 536.017 263.921C538.946 262.81 540.865 259.343 540.865 254.159V211.78C540.831 203.263 535.647 193.35 529.235 189.664Z" fill="white"/>
<path d="M490.726 226.203C490.726 223.308 491.13 221.07 491.938 219.454C492.746 217.855 494.193 216.408 496.28 215.095C498.334 213.766 499.747 212.453 500.538 211.123C501.329 209.81 501.733 208.178 501.733 206.259C501.733 204.526 501.481 203.179 500.993 202.22C500.505 201.26 499.798 200.52 498.855 199.964C496.937 198.854 495.977 199.628 495.977 202.304V206.646L490.726 203.617V199.678C490.726 196.396 491.433 194.292 492.847 193.35C494.261 192.407 496.314 192.71 499.007 194.276C501.7 195.824 503.753 197.894 505.167 200.469C506.581 203.044 507.287 205.973 507.287 209.255C507.287 211.729 506.783 213.85 505.756 215.6C504.729 217.367 502.962 219.05 500.437 220.632C498.788 221.693 497.677 222.686 497.105 223.595C496.533 224.52 496.247 225.698 496.247 227.129V228.004L506.799 234.097V239.887L490.76 230.63V226.203H490.726Z" fill="#5CAFCC"/>
<path d="M512.993 241.401C511.579 238.826 510.873 235.898 510.873 232.616V229.435L516.124 232.464V236.116C516.124 238.742 517.083 240.61 519.002 241.721C520.92 242.832 521.88 242.075 521.88 239.449V230.36C521.88 227.701 520.92 225.816 519.002 224.705C517.083 223.594 516.124 224.369 516.124 227.045V227.398L510.873 224.369L511.882 202.304L526.508 210.753V216.542L516.814 210.955L516.359 220.363L516.46 220.413C517.504 219.05 519.103 218.983 521.257 220.228C523.277 221.39 524.808 223.073 525.852 225.261C526.895 227.449 527.417 230.041 527.417 233.053V242.209C527.417 245.491 526.71 247.595 525.296 248.537C523.883 249.48 521.829 249.177 519.136 247.612C516.46 246.03 514.407 243.976 512.993 241.401Z" fill="#5CAFCC"/>
<path d="M521.694 241.048C522.384 240.812 522.738 239.92 522.738 238.355V229.266C522.738 226.607 521.779 224.722 519.86 223.611C518.429 222.787 517.537 223.005 517.167 224.268C517.621 224.116 518.227 224.251 518.985 224.689C520.903 225.799 521.863 227.684 521.863 230.344V239.432C521.863 240.089 521.812 240.627 521.694 241.048Z" fill="#3A98B9"/>
<path d="M517.689 209.861L517.604 211.392L526.508 216.526V214.944L517.689 209.861Z" fill="#3A98B9"/>
<path d="M516.123 227.028C516.123 226.574 516.157 226.203 516.224 225.85L511.748 223.258L512.69 202.742L511.899 202.287L510.889 224.352L516.14 227.382V227.028H516.123Z" fill="#3A98B9"/>
<path d="M526.155 247.427C524.741 248.369 522.687 248.067 519.994 246.501C517.302 244.953 515.248 242.883 513.834 240.308C512.421 237.733 511.714 234.804 511.714 231.522V229.906L510.855 229.401V232.582C510.855 235.864 511.562 238.793 512.976 241.368C514.39 243.943 516.443 245.996 519.136 247.562C521.829 249.11 523.882 249.43 525.296 248.487C525.767 248.184 526.138 247.73 526.457 247.175C526.356 247.275 526.272 247.36 526.155 247.427Z" fill="#3A98B9"/>
<path d="M495.978 205.233L492.46 203.196V199.258C492.46 195.976 493.167 193.872 494.581 192.93C494.631 192.896 494.698 192.862 494.766 192.829C494.042 192.829 493.402 192.997 492.864 193.35C491.45 194.293 490.743 196.397 490.743 199.679V203.617L495.994 206.647V205.233H495.978Z" fill="#3A98B9"/>
<path d="M492.46 230.176V225.783C492.46 222.888 492.864 220.649 493.671 219.034C494.479 217.435 495.927 215.987 498.014 214.675C500.067 213.345 501.481 212.032 502.272 210.703C503.063 209.39 503.45 207.757 503.45 205.839C503.45 204.105 503.198 202.759 502.71 201.799C502.221 200.84 501.515 200.099 500.572 199.544C499.394 198.871 498.586 198.904 498.132 199.645C498.35 199.729 498.586 199.83 498.838 199.981C499.781 200.52 500.488 201.277 500.976 202.237C501.464 203.196 501.716 204.543 501.716 206.276C501.716 208.212 501.313 209.827 500.538 211.14C499.747 212.453 498.334 213.783 496.28 215.112C494.193 216.425 492.746 217.872 491.938 219.471C491.13 221.07 490.726 223.326 490.726 226.22V230.613L506.766 239.87V238.439L492.46 230.176Z" fill="#3A98B9"/>
<path d="M500.252 176.839C498.081 175.594 496.331 176.587 496.331 179.078C496.331 181.569 498.081 184.598 500.252 185.844C502.423 187.089 504.174 186.096 504.174 183.605C504.19 181.114 502.423 178.085 500.252 176.839Z" fill="#5CAFCC"/>
<path d="M523.394 190.59C521.223 189.345 519.473 190.338 519.473 192.829C519.473 195.32 521.223 198.349 523.394 199.594C525.565 200.84 527.316 199.847 527.316 197.356C527.316 194.882 525.548 191.852 523.394 190.59Z" fill="#3A98B9"/>
<path d="M503.484 184.127C501.312 182.881 499.562 179.852 499.562 177.361C499.562 177.075 499.596 176.806 499.629 176.553C497.761 175.813 496.331 176.839 496.331 179.078C496.331 181.569 498.081 184.598 500.252 185.844C502.171 186.954 503.753 186.298 504.106 184.413C503.904 184.329 503.702 184.245 503.484 184.127Z" fill="#D62D69"/>
<path d="M526.626 197.878C524.455 196.632 522.704 193.603 522.704 191.112C522.704 190.826 522.738 190.557 522.771 190.304C520.903 189.563 519.473 190.59 519.473 192.829C519.473 195.32 521.223 198.349 523.394 199.595C525.313 200.705 526.895 200.049 527.248 198.164C527.03 198.08 526.828 197.996 526.626 197.878Z" fill="#D62D69"/>
<path d="M245.066 174.786V18.1437C245.066 11.5124 249.105 8.46604 254.07 11.3441L437.541 117.478C442.506 120.356 446.545 128.048 446.545 134.679V291.339L245.066 174.786Z" fill="#F0F8FF"/>
<path d="M449.104 289.992V133.332C449.104 126.701 445.064 118.993 440.099 116.132L256.629 9.98069C254.659 8.85303 252.842 8.63424 251.361 9.20648C251.176 9.2738 248.668 10.6203 248.483 10.7044H248.466C249.997 9.96386 251.95 10.0985 254.07 11.3271L437.541 117.478C442.506 120.356 446.546 128.048 446.546 134.679V291.338L449.104 289.992Z" fill="#A8CFF0"/>
<path d="M449.104 144.155V133.332C449.104 126.701 445.064 118.993 440.099 116.132L256.629 9.98069C254.659 8.85303 252.842 8.63424 251.361 9.20648C251.176 9.2738 248.668 10.6203 248.483 10.7044H248.466C249.997 9.96386 251.95 10.0985 254.07 11.3271L437.541 117.478C442.506 120.356 446.546 128.048 446.546 134.679V145.501L449.104 144.155Z" fill="#AA4100"/>
<path d="M437.541 117.478L254.07 11.327C249.105 8.44895 245.066 11.4953 245.066 18.1266V28.7467L446.545 145.299V134.679C446.545 128.064 442.523 120.356 437.541 117.478Z" fill="#FF731D"/>
<path d="M287.025 42.0261C287.025 44.4833 285.291 45.4595 283.154 44.2309C281.016 43.0022 279.283 40.0064 279.283 37.5491C279.283 35.0918 281.016 34.1157 283.154 35.3443C285.291 36.5898 287.025 39.5688 287.025 42.0261Z" fill="#F0F8FF"/>
<path d="M274.823 35.2267C274.823 37.684 273.089 38.6602 270.952 37.4316C268.814 36.2029 267.081 33.2071 267.081 30.7498C267.081 28.2925 268.814 27.3163 270.952 28.545C273.089 29.7904 274.823 32.7695 274.823 35.2267Z" fill="#F0F8FF"/>
<path d="M262.502 28.259C262.502 30.7162 260.769 31.6924 258.631 30.4638C256.494 29.2351 254.76 26.2393 254.76 23.782C254.76 21.3247 256.494 20.3486 258.631 21.5772C260.786 22.8058 262.502 25.8017 262.502 28.259Z" fill="#F0F8FF"/>
<path d="M363.587 124.479L344.501 113.506V117.377L363.587 128.35V124.479ZM366.364 129.949L380.502 138.079V134.208L366.364 126.078V129.949ZM341.724 111.924L332.215 106.437V110.308L341.724 115.795V111.924ZM329.455 104.838L307.457 92.1814V96.0525L329.455 108.709V104.838ZM327.687 90.835L265.347 54.3125V60.1864L327.687 96.7089V90.835ZM304.68 90.5825L281.79 77.3705V81.2415L304.68 94.4536V90.5825ZM279.03 75.7716L265.347 67.676V71.5471L279.03 79.6426V75.7716Z" fill="#5CAFCC"/>
<path d="M384.07 206.344L388.648 208.986V205.115L384.07 202.473V206.344ZM370.336 198.45L381.293 204.745V200.874L370.336 194.579V198.45ZM334.47 177.799L346.235 184.582V180.711L334.47 173.928V177.799ZM320.08 169.535L331.693 176.2V172.329L320.08 165.664V169.535ZM348.995 186.181L367.576 196.851V192.98L348.995 182.31V186.181ZM284.736 149.137L317.32 167.936V164.065L284.736 145.266V149.137ZM281.959 143.667L265.33 133.871V137.742L281.959 147.538V143.667ZM327.688 156.862L265.347 120.339V126.213L327.688 162.736V156.862Z" fill="#5CAFCC"/>
<path d="M290.256 179.667C290.122 179.667 289.987 179.633 289.852 179.566L276.287 171.74C276.034 171.605 275.883 171.336 275.883 171.05V155.481C275.883 155.195 276.034 154.926 276.287 154.791C276.539 154.64 276.842 154.64 277.095 154.791L290.66 162.618C290.913 162.752 291.064 163.022 291.064 163.308V178.876C291.064 179.162 290.913 179.431 290.66 179.566C290.525 179.633 290.391 179.667 290.256 179.667ZM277.482 170.562L289.448 177.479V163.762L277.482 156.845V170.562Z" fill="#A8CFF0"/>
<path d="M262.671 160.564C262.62 160.463 262.586 160.379 262.586 160.278L262.62 160.16L265.835 152.115C265.919 151.913 266.087 151.88 266.323 152.014L267.804 152.873C268.04 153.007 268.191 153.226 268.292 153.529L271.473 165.277L271.507 165.428C271.507 165.513 271.473 165.58 271.423 165.614C271.372 165.647 271.305 165.63 271.221 165.597L270.026 164.907C269.84 164.806 269.706 164.621 269.638 164.385L269.016 162.163L265.061 159.874L264.438 161.372C264.37 161.524 264.236 161.557 264.051 161.44L262.856 160.749C262.788 160.716 262.721 160.649 262.671 160.564ZM265.532 158.376L268.561 160.127L267.047 154.522L265.532 158.376Z" fill="#084C94"/>
<path d="M331.677 203.584C331.542 203.584 331.407 203.55 331.273 203.483L317.707 195.656C317.455 195.522 317.303 195.252 317.303 194.966V179.398C317.303 179.112 317.455 178.842 317.707 178.708C317.96 178.556 318.263 178.556 318.515 178.708L332.081 186.534C332.333 186.669 332.484 186.938 332.484 187.224V202.792C332.484 203.079 332.333 203.348 332.081 203.483C331.946 203.533 331.811 203.584 331.677 203.584ZM318.902 194.478L330.869 201.396V187.679L318.902 180.761V194.478Z" fill="#A8CFF0"/>
<path d="M304.966 184.952C304.899 184.851 304.865 184.733 304.865 184.632V174.635C304.865 174.517 304.899 174.45 304.949 174.416C305.017 174.382 305.084 174.382 305.185 174.45L309.073 176.688C310.116 177.294 310.891 178.001 311.412 178.826C311.934 179.65 312.187 180.526 312.187 181.435C312.187 181.973 312.069 182.36 311.85 182.596C311.631 182.831 311.362 182.949 311.059 182.949C311.429 183.353 311.749 183.858 312.001 184.447C312.254 185.036 312.389 185.609 312.389 186.181C312.389 187.14 312.102 187.746 311.547 187.998C310.992 188.251 310.201 188.099 309.191 187.51L305.185 185.205C305.101 185.137 305.017 185.07 304.966 184.952ZM308.82 180.963C309.275 181.233 309.628 181.3 309.864 181.182C310.116 181.064 310.234 180.795 310.234 180.374C310.234 179.937 310.116 179.549 309.864 179.162C309.628 178.792 309.275 178.472 308.804 178.203L306.733 177.008V179.768L308.82 180.963ZM308.955 185.726C309.41 185.996 309.78 186.063 310.032 185.911C310.285 185.76 310.419 185.474 310.419 185.019C310.419 184.565 310.285 184.127 310.015 183.673C309.746 183.235 309.393 182.882 308.938 182.613L306.733 181.334V184.43L308.955 185.726Z" fill="#084C94"/>
<path d="M372.019 226.877C371.885 226.877 371.75 226.843 371.615 226.776L358.05 218.95C357.797 218.815 357.646 218.546 357.646 218.26V202.691C357.646 202.405 357.797 202.136 358.05 202.001C358.302 201.85 358.605 201.85 358.858 202.001L372.423 209.828C372.676 209.962 372.827 210.231 372.827 210.518V226.086C372.827 226.372 372.676 226.641 372.423 226.776C372.305 226.843 372.154 226.877 372.019 226.877ZM359.245 217.772L371.211 224.689V210.972L359.245 204.055V217.772Z" fill="#A8CFF0"/>
<path d="M345.966 207.808C345.292 206.697 344.939 205.468 344.888 204.105C344.872 203.819 344.872 203.364 344.872 202.742C344.872 202.102 344.872 201.648 344.888 201.362C344.939 200.082 345.292 199.258 345.966 198.921C346.639 198.585 347.598 198.77 348.81 199.477C349.601 199.931 350.291 200.486 350.88 201.143C351.469 201.799 351.924 202.489 352.26 203.213C352.58 203.937 352.765 204.644 352.782 205.334V205.367C352.782 205.451 352.748 205.502 352.698 205.519C352.647 205.536 352.58 205.536 352.513 205.485L351.217 204.728C351.116 204.66 351.032 204.593 350.981 204.509C350.931 204.425 350.88 204.29 350.846 204.139C350.712 203.432 350.476 202.843 350.156 202.388C349.82 201.934 349.382 201.547 348.844 201.244C347.564 200.503 346.908 200.941 346.858 202.557C346.841 202.826 346.841 203.247 346.841 203.819C346.841 204.391 346.841 204.829 346.858 205.132C346.908 206.798 347.581 208.01 348.844 208.733C349.382 209.036 349.82 209.171 350.156 209.104C350.493 209.036 350.729 208.717 350.863 208.161C350.897 208.043 350.947 207.959 350.998 207.942C351.048 207.926 351.133 207.942 351.234 207.993L352.53 208.75C352.614 208.801 352.681 208.868 352.731 208.969C352.782 209.07 352.816 209.154 352.799 209.238C352.782 209.912 352.614 210.417 352.277 210.77C351.957 211.123 351.486 211.292 350.897 211.258C350.308 211.224 349.618 210.989 348.827 210.534C347.598 209.827 346.639 208.919 345.966 207.808Z" fill="#084C94"/>
<path d="M290.256 114.028C290.122 114.028 289.987 113.994 289.852 113.927L276.287 106.101C276.034 105.966 275.883 105.697 275.883 105.411V89.8422C275.883 89.5561 276.034 89.2868 276.287 89.1522C276.539 89.0007 276.842 89.0007 277.095 89.1522L290.66 96.9784C290.913 97.1131 291.064 97.3824 291.064 97.6685V113.237C291.064 113.523 290.913 113.792 290.66 113.927C290.525 113.994 290.391 114.028 290.256 114.028ZM277.482 104.922L289.448 111.84V98.1229L277.482 91.2055V104.922Z" fill="#A8CFF0"/>
<path d="M262.671 94.9247C262.62 94.8237 262.586 94.7396 262.586 94.6386L262.62 94.5208L265.835 86.4757C265.919 86.2738 266.087 86.2401 266.323 86.3747L267.804 87.2331C268.04 87.3677 268.191 87.5865 268.292 87.8895L271.473 99.6373L271.507 99.7888C271.507 99.8729 271.473 99.9402 271.423 99.9739C271.372 100.008 271.305 99.9907 271.221 99.9571L270.026 99.267C269.84 99.166 269.706 98.9809 269.638 98.7452L269.016 96.5236L265.061 94.2515L264.438 95.7494C264.37 95.9009 264.236 95.9177 264.051 95.8167L262.856 95.1267C262.788 95.0762 262.721 95.0089 262.671 94.9247ZM265.532 92.7367L268.561 94.4871L267.047 88.8825L265.532 92.7367Z" fill="#084C94"/>
<path d="M331.677 137.944C331.542 137.944 331.407 137.91 331.273 137.843L317.707 130.017C317.455 129.882 317.303 129.613 317.303 129.327V113.758C317.303 113.472 317.455 113.203 317.707 113.068C317.96 112.917 318.263 112.917 318.515 113.068L332.081 120.894C332.333 121.029 332.484 121.298 332.484 121.584V137.153C332.484 137.439 332.333 137.708 332.081 137.843C331.946 137.91 331.811 137.944 331.677 137.944ZM318.902 128.839L330.869 135.756V122.039L318.902 115.122V128.839Z" fill="#A8CFF0"/>
<path d="M304.966 119.329C304.899 119.228 304.865 119.11 304.865 119.009V109.012C304.865 108.894 304.899 108.827 304.949 108.793C305.017 108.759 305.084 108.759 305.185 108.827L309.073 111.065C310.116 111.671 310.891 112.378 311.412 113.203C311.934 114.027 312.187 114.903 312.187 115.811C312.187 116.35 312.069 116.737 311.85 116.973C311.631 117.208 311.362 117.326 311.059 117.326C311.429 117.73 311.749 118.235 312.001 118.824C312.254 119.413 312.389 119.985 312.389 120.558C312.389 121.517 312.102 122.123 311.547 122.375C310.992 122.628 310.201 122.476 309.191 121.887L305.185 119.582C305.101 119.514 305.017 119.43 304.966 119.329ZM308.82 115.323C309.275 115.593 309.628 115.66 309.864 115.542C310.116 115.424 310.234 115.155 310.234 114.734C310.234 114.314 310.116 113.91 309.864 113.523C309.628 113.152 309.275 112.832 308.804 112.563L306.733 111.368V114.128L308.82 115.323ZM308.955 120.103C309.41 120.373 309.78 120.44 310.032 120.288C310.285 120.137 310.419 119.851 310.419 119.396C310.419 118.942 310.285 118.504 310.015 118.05C309.746 117.612 309.393 117.259 308.938 116.99L306.733 115.71V118.807L308.955 120.103Z" fill="#084C94"/>
<path d="M372.019 161.238C371.885 161.238 371.75 161.204 371.615 161.137L358.05 153.311C357.797 153.176 357.646 152.907 357.646 152.621V137.052C357.646 136.766 357.797 136.497 358.05 136.362C358.302 136.211 358.605 136.211 358.858 136.362L372.423 144.188C372.676 144.323 372.827 144.592 372.827 144.878V160.447C372.827 160.733 372.676 161.002 372.423 161.137C372.305 161.204 372.154 161.238 372.019 161.238ZM359.245 152.132L371.211 159.05V145.333L359.245 138.415V152.132Z" fill="#A8CFF0"/>
<path d="M345.966 142.185C345.292 141.074 344.939 139.846 344.888 138.482C344.872 138.196 344.872 137.742 344.872 137.119C344.872 136.48 344.872 136.025 344.888 135.739C344.939 134.46 345.292 133.635 345.966 133.299C346.639 132.962 347.598 133.147 348.81 133.854C349.601 134.308 350.291 134.864 350.88 135.52C351.469 136.177 351.924 136.867 352.26 137.59C352.58 138.314 352.765 139.021 352.782 139.711V139.745C352.782 139.829 352.748 139.879 352.698 139.896C352.647 139.913 352.58 139.913 352.513 139.863L351.217 139.105C351.116 139.038 351.032 138.971 350.981 138.886C350.931 138.802 350.88 138.668 350.846 138.516C350.712 137.809 350.476 137.22 350.156 136.766C349.82 136.311 349.382 135.924 348.844 135.621C347.564 134.881 346.908 135.318 346.858 136.934C346.841 137.203 346.841 137.624 346.841 138.196C346.841 138.769 346.841 139.206 346.858 139.509C346.908 141.175 347.581 142.387 348.844 143.111C349.382 143.414 349.82 143.548 350.156 143.481C350.493 143.414 350.729 143.094 350.863 142.539C350.897 142.421 350.947 142.337 350.998 142.32C351.048 142.303 351.133 142.32 351.234 142.37L352.53 143.128C352.614 143.178 352.681 143.246 352.731 143.347C352.782 143.447 352.816 143.532 352.799 143.616C352.782 144.289 352.614 144.794 352.277 145.147C351.957 145.501 351.486 145.669 350.897 145.635C350.308 145.602 349.618 145.366 348.827 144.912C347.598 144.205 346.639 143.296 345.966 142.185Z" fill="#084C94"/>
<path d="M414.601 251.45C414.466 251.45 414.332 251.416 414.197 251.349L400.631 243.523C400.379 243.388 400.228 243.119 400.228 242.832V227.264C400.228 226.978 400.379 226.709 400.631 226.574C400.884 226.423 401.187 226.423 401.439 226.574L415.005 234.4C415.257 234.535 415.409 234.804 415.409 235.09V250.659C415.409 250.945 415.257 251.214 415.005 251.349C414.87 251.416 414.736 251.45 414.601 251.45ZM401.826 242.361L413.793 249.279V235.562L401.826 228.644V242.361Z" fill="#A8CFF0"/>
<path d="M387.891 232.835C387.823 232.717 387.79 232.616 387.79 232.515V222.518C387.79 222.4 387.823 222.333 387.874 222.299C387.941 222.265 388.008 222.265 388.109 222.333L391.374 224.218C394 225.732 395.347 227.904 395.397 230.714C395.414 231.32 395.431 231.724 395.431 231.926C395.431 232.128 395.414 232.515 395.397 233.087C395.363 234.501 395.027 235.36 394.387 235.679C393.748 235.999 392.771 235.763 391.442 234.989L388.109 233.071C388.025 233.02 387.941 232.936 387.891 232.835ZM391.374 233.172C392.115 233.592 392.654 233.727 392.973 233.525C393.31 233.34 393.478 232.801 393.495 231.943C393.512 231.337 393.529 230.967 393.529 230.798C393.529 230.63 393.529 230.243 393.495 229.654C393.478 228.796 393.293 228.089 392.94 227.483C392.586 226.894 392.048 226.372 391.29 225.934L389.658 224.992V232.179L391.374 233.172Z" fill="#084C94"/>
<path d="M319.289 188.083L324.086 196.363L336.355 189.429L333.427 185.423L324.759 193.956L323.16 187.561L319.289 188.083Z" fill="#EB4680"/>
<path d="M278.778 99.3177L283.575 107.582L295.861 100.647L292.916 96.6416L284.248 105.192L282.649 98.7791L278.778 99.3177Z" fill="#EB4680"/>
<path opacity="0.3" d="M385.888 207.959C385.888 242.495 410.377 284.74 440.487 302.126C448.734 306.889 456.88 309.397 464.05 309.397C481.082 309.397 491.652 295.445 491.652 272.992C491.652 238.456 467.163 196.211 437.053 178.825C428.806 174.062 420.66 171.554 413.49 171.554C396.458 171.554 385.888 185.507 385.888 207.959Z" fill="#03336E"/>
<path d="M361.753 216.577C361.753 251.113 386.242 293.358 416.352 310.744C424.599 315.507 432.745 318.015 439.914 318.015C456.947 318.015 467.517 304.062 467.517 281.61C467.517 247.074 443.028 204.829 412.918 187.443C404.671 182.68 396.525 180.172 389.355 180.172C372.339 180.172 361.753 194.124 361.753 216.577Z" fill="white"/>
<path d="M406.119 280.701C406.371 280.701 406.607 280.667 406.842 280.617L447.101 271.309C450.198 270.602 450.198 265.335 447.101 261.043L406.842 205.266C405.058 202.792 402.921 201.546 401.238 201.546C399.504 201.546 398.225 202.842 398.225 205.417V270.502C398.225 275.265 402.601 280.701 406.119 280.701Z" fill="#FECEA5"/>
<path d="M416.94 314.127C384.929 295.647 358.892 250.726 358.892 214.001C358.892 187.712 372.423 170.713 393.378 170.713C401.877 170.713 410.949 173.473 420.374 178.909C452.386 197.389 478.423 242.31 478.423 279.035C478.423 305.324 464.891 322.323 443.937 322.323C435.437 322.306 426.366 319.563 416.94 314.127ZM365.775 213.984C365.775 248.521 390.264 290.766 420.374 308.152C428.621 312.915 436.767 315.423 443.937 315.423C460.969 315.423 471.539 301.47 471.539 279.018C471.539 244.482 447.05 202.237 416.94 184.851C408.693 180.088 400.547 177.58 393.378 177.58C376.362 177.58 365.775 191.532 365.775 213.984Z" fill="#FECEA5"/>
<path d="M402.87 282.771C403.123 282.771 403.358 282.738 403.594 282.687L443.853 273.38C446.95 272.673 446.95 267.405 443.853 263.113L403.594 207.336C401.81 204.862 399.672 203.617 397.989 203.617C396.256 203.617 394.977 204.913 394.977 207.488V272.572C394.977 277.335 399.336 282.771 402.87 282.771Z" fill="white"/>
<path d="M402.231 283.192C402.483 283.192 402.719 283.158 402.954 283.108L443.213 273.801C446.31 273.094 446.31 267.826 443.213 263.534L402.954 207.757C401.17 205.283 399.033 204.038 397.35 204.038C395.616 204.038 394.337 205.334 394.337 207.909V272.993C394.32 277.773 398.696 283.192 402.231 283.192Z" fill="#FFAB77"/>
<path d="M413.776 316.281C381.765 297.801 355.728 252.88 355.728 216.156C355.728 189.866 369.259 172.867 390.214 172.867C398.713 172.867 407.785 175.627 417.21 181.064C449.222 199.544 475.259 244.465 475.259 281.189C475.259 307.479 461.727 324.478 440.773 324.478C432.29 324.461 423.202 321.717 413.776 316.281ZM362.611 216.156C362.611 250.692 387.1 292.937 417.21 310.323C425.457 315.086 433.603 317.594 440.773 317.594C457.805 317.594 468.375 303.641 468.375 281.189C468.375 246.653 443.886 204.408 413.776 187.022C405.529 182.259 397.383 179.751 390.214 179.751C373.198 179.734 362.611 193.687 362.611 216.156Z" fill="white"/>
<path d="M412.918 316.702C380.906 298.222 354.869 253.301 354.869 216.576C354.869 190.287 368.401 173.288 389.355 173.288C397.855 173.288 406.926 176.048 416.351 181.485C448.363 199.965 474.4 244.886 474.4 281.61C474.4 307.9 460.868 324.898 439.914 324.898C431.415 324.898 422.343 322.138 412.918 316.702ZM361.753 216.576C361.753 251.113 386.241 293.358 416.351 310.744C424.598 315.507 432.744 318.015 439.914 318.015C456.947 318.015 467.517 304.062 467.517 281.61C467.517 247.074 443.028 204.829 412.918 187.443C404.671 182.68 396.525 180.172 389.355 180.172C372.339 180.172 361.753 194.124 361.753 216.576Z" fill="#FFAB77"/>
<path d="M215.259 337.925V365.578C215.259 370.392 220.645 373.236 224.617 370.51L304.714 309.515V260.252C304.714 257.021 301.096 255.119 298.436 256.936L230.07 309.835C220.813 316.163 215.259 326.683 215.259 337.925Z" fill="#72B5E8"/>
<path d="M215.259 365.578V337.926C215.259 326.683 220.797 316.18 230.07 309.835L298.436 256.937C299.682 256.078 301.146 256.061 302.341 256.6L159.971 174.349C158.776 173.793 157.295 173.81 156.049 174.685L87.683 227.55C78.4093 233.895 72.8721 244.415 72.8721 255.641V283.293C72.8721 286.003 74.572 288.09 76.7768 288.898L218.592 370.998L218.659 370.93C216.724 370.022 215.259 368.069 215.259 365.578Z" fill="#A8CFF0"/>
<path d="M215.259 365.696V338.043C215.259 326.8 220.796 316.298 230.07 309.953L298.436 257.071C299.227 256.533 300.119 256.314 300.961 256.381C299.749 254.782 297.393 254.21 295.508 255.489L227.142 308.371C217.868 314.716 212.331 325.235 212.331 336.461V364.114C212.331 367.144 214.485 369.399 217.06 369.971C215.983 368.911 215.259 367.43 215.259 365.696Z" fill="#D1EBFF"/>
<path d="M239.748 358.022V333.196C239.748 325.135 244.662 313.791 252.876 308.169L309.494 256.668C310.605 255.91 311.901 255.893 312.961 256.365L310.756 254.968C309.696 254.48 308.4 254.496 307.272 255.254L250.654 306.756C242.441 312.377 237.526 323.704 237.526 331.783V364.182L235.304 363.172L233.453 364.518L239.748 368.053L242.76 362.768C241.044 361.96 239.748 360.226 239.748 358.022Z" fill="#3A98B9"/>
<path d="M239.748 333.196V368.069L304.36 332.708C311.042 328.13 315.048 320.54 315.048 312.444V259.613C315.048 256.752 311.85 255.069 309.494 256.684L252.875 308.186C244.662 313.791 239.748 325.134 239.748 333.196Z" fill="#03336E"/>
<path opacity="0.5" d="M227.899 306.637C217.565 313.706 211.405 325.404 211.405 337.926V362.414L78.4431 285.431L78.1401 285.313C77.4669 285.061 76.7432 284.404 76.7432 283.327V255.657C76.7432 245.694 81.6577 236.386 89.8711 230.748L227.899 306.637Z" fill="#D1EBFF"/>
<path d="M211.405 332.405V362.398L78.4431 285.414L78.1401 285.296C77.4669 285.044 76.7432 284.388 76.7432 283.31V255.658L211.405 332.405Z" fill="#A8CFF0"/>
<path d="M82.2131 285.263L81.9102 285.145C81.2369 284.892 80.5132 284.236 80.5132 283.159V255.506C80.5132 245.542 85.4278 236.235 93.6411 230.597L162.007 177.715L163.892 176.655L162.159 175.662L158.237 177.883L89.8711 230.748C81.6409 236.37 76.7432 245.694 76.7432 255.658V283.31C76.7432 284.388 77.4669 285.044 78.1401 285.296L78.4431 285.414L211.405 362.398V360.075L82.2131 285.263Z" fill="#5CAFCC"/>
<path d="M263.159 271.024L282.868 255.759L159.55 183.875L139.303 199.511C136.66 201.312 136.812 205.25 139.572 206.849L250.452 271.495C254.407 273.801 259.372 273.616 263.159 271.024Z" fill="#001A46"/>
<path d="M90.1235 272.858V289.824L198.748 352.888V335.721L90.1235 272.858Z" fill="#001A46"/>
<path d="M92.8333 288.696V274.895L90.1235 273.347V289.824L198.748 352.888V350.195L92.8333 288.696Z" fill="#9D9EB3"/>
<path d="M224.499 268.112C222.984 269.156 220.493 269.273 218.928 268.381L209.873 263.181C208.308 262.289 208.274 260.707 209.772 259.663C211.287 258.62 213.778 258.502 215.343 259.394L224.398 264.595C225.963 265.487 226.014 267.069 224.499 268.112Z" fill="#3A98B9"/>
<path d="M242.323 278.328C240.808 279.372 238.317 279.49 236.752 278.598L227.697 273.397C226.132 272.505 226.098 270.923 227.596 269.879C229.094 268.836 231.602 268.718 233.167 269.61L242.222 274.811C243.787 275.72 243.837 277.285 242.323 278.328Z" fill="#3A98B9"/>
<path d="M224.415 263.467L215.36 258.266C213.794 257.374 211.304 257.492 209.789 258.536C208.274 259.579 208.325 261.144 209.89 262.053L218.945 267.254C220.51 268.146 223.001 268.028 224.516 266.985C226.014 265.941 225.963 264.359 224.415 263.467Z" fill="#EB4680"/>
<path d="M242.222 273.683L233.167 268.483C231.602 267.591 229.111 267.708 227.596 268.752C226.081 269.795 226.132 271.361 227.697 272.27L236.752 277.47C238.317 278.362 240.808 278.244 242.323 277.201C243.837 276.157 243.787 274.592 242.222 273.683Z" fill="#FF731D"/>
<path d="M242.322 276.444C240.808 277.487 238.317 277.605 236.751 276.713L227.697 271.512C227.04 271.142 226.67 270.637 226.552 270.115C226.35 270.906 226.737 271.714 227.697 272.27L236.751 277.47C238.317 278.362 240.808 278.244 242.322 277.201C243.198 276.595 243.534 275.804 243.366 275.08C243.248 275.568 242.895 276.04 242.322 276.444Z" fill="#E35600"/>
<path d="M224.499 266.227C222.984 267.271 220.493 267.389 218.928 266.497L209.873 261.296C209.217 260.926 208.847 260.421 208.729 259.899C208.527 260.69 208.914 261.498 209.873 262.053L218.928 267.254C220.493 268.146 222.984 268.028 224.499 266.985C225.374 266.379 225.711 265.588 225.543 264.864C225.425 265.352 225.088 265.823 224.499 266.227Z" fill="#F76195"/>
<path d="M54.8462 305.712V312.714L51.9009 310.913V303.911L54.8462 305.712Z" fill="#A8CFF0"/>
<path d="M54.8296 305.712V312.714L92.547 290.733V283.748L54.8296 305.712Z" fill="#72B5E8"/>
<path d="M92.5469 283.748L54.8294 305.712L51.9009 303.911L89.6688 281.93L92.5469 283.748Z" fill="#D1EBFF"/>
<path d="M149.384 374.617V378.1L44.041 318.47V314.969L149.384 374.617Z" fill="#A8CFF0"/>
<path d="M149.35 374.616V378.1L198.092 349.69V346.223L149.35 374.616Z" fill="#72B5E8"/>
<path d="M198.092 346.223L149.35 374.616L44.041 314.969L92.833 286.559L198.092 346.223Z" fill="#D1EBFF"/>
<path d="M161.485 367.396V374.398L158.523 372.597V365.595L161.485 367.396Z" fill="#A8CFF0"/>
<path d="M161.452 367.396V374.398L199.186 352.4V345.432L161.452 367.396Z" fill="#72B5E8"/>
<path d="M199.186 345.432L161.451 367.396L158.523 365.595L196.291 343.614L199.186 345.432Z" fill="#D1EBFF"/>
<path d="M276.152 173.574V259.411L154.097 190.287V104.468L276.152 173.574Z" fill="#A8CFF0"/>
<path d="M276.119 173.574V259.411L279.417 257.643V171.841L276.119 173.574Z" fill="#72B5E8"/>
<path d="M279.418 171.841L276.119 173.574L154.097 104.468L157.463 102.701L279.418 171.841Z" fill="#D1EBFF"/>
<path d="M267.064 194.209V259.764L161.586 200.049V134.477L267.064 194.209Z" fill="white"/>
<path d="M100.137 400.771L0.5 343.244L96.3336 286.138L195.971 343.665L100.137 400.771Z" fill="#92B4D1"/>
<path d="M100.356 398.297L0.71875 340.77L96.2999 285.97L195.954 343.497L100.356 398.297Z" fill="white"/>
<path d="M94.0615 345.449L96.788 343.883L86.9926 338.228L84.2661 339.793L94.0615 345.449ZM109.091 344.237L87.0599 331.513L84.3334 333.078L106.365 345.802L109.091 344.237ZM59.8785 325.723L81.9098 338.447L84.6363 336.865L62.605 324.141L59.8785 325.723ZM137.081 353.645L106.331 335.889L103.604 337.454L134.354 355.21L137.081 353.645ZM103.958 334.525L81.9266 321.802L79.2 323.367L101.231 336.091L103.958 334.525ZM111.448 345.6L108.721 347.165L114.208 350.329L116.934 348.764L111.448 345.6ZM139.42 355.008L136.693 356.574L148.963 363.659L151.69 362.094L139.42 355.008ZM143.678 364.198L119.291 350.111L116.564 351.676L140.952 365.763L143.678 364.198ZM79.5703 320.455L65.887 312.562L63.1604 314.127L76.8438 322.02L79.5703 320.455ZM72.3836 364.602L50.3523 351.878L47.6089 353.443L69.6402 366.167L72.3836 364.602ZM47.9792 350.515L34.2959 342.621L31.5693 344.186L45.2526 352.08L47.9792 350.515ZM60.2487 322.778L54.2065 319.294L51.48 320.859L57.5222 324.343L60.2487 322.778ZM84.7037 330.15L60.0468 315.911L57.3202 317.476L81.9771 331.715L84.7037 330.15Z" fill="#5CAFCC"/>
<path d="M100.609 386.162C100.508 386.162 100.39 386.162 100.272 386.145C99.9185 386.095 99.6323 385.842 99.5482 385.489C98.6393 381.769 99.9353 377.68 103.503 373.017C103.099 372.243 102.527 371.57 101.82 371.015C101.652 370.88 100.979 370.392 100.844 370.291C100.642 371.267 100.205 372.21 99.565 373.051C99.3967 373.27 99.1443 373.388 98.875 373.388L98.7067 373.371C98.3869 373.304 98.1176 373.051 98.0503 372.715C97.5958 370.762 97.0909 368.541 97.6968 366.353C97.9661 365.41 98.4374 364.518 99.0938 363.777L96.5187 364.165C97.6632 367.48 97.4107 370.813 95.7781 373.825C95.694 373.977 95.5593 374.111 95.4079 374.179C94.6505 374.566 93.7416 374.768 92.7654 374.768C92.311 374.768 91.8566 374.717 91.4022 374.633C91.318 377.057 90.6785 379.464 89.5508 381.668C89.3993 381.955 89.1132 382.14 88.7766 382.14C87.3796 382.022 86.1342 381.214 85.5283 380.07C85.0065 379.06 84.9897 377.999 84.9897 377.141C84.9729 374.785 85.0065 372.428 85.057 370.089C84.266 368.961 83.7442 367.817 83.5254 366.689C83.4918 366.655 83.4076 366.487 83.3235 366.319C82.3641 364.299 82.2968 363.003 82.2463 361.842C82.1958 360.714 82.1453 359.738 81.3374 358.021L81.1187 357.55L82.6839 356.81L82.9027 357.281C83.8789 359.317 83.9294 360.613 83.9799 361.758C83.9967 362.145 84.0135 362.515 84.064 362.919C84.1987 362.801 84.367 362.717 84.5353 362.7L86.1342 362.515C86.4371 362.515 86.6391 362.599 86.8074 362.751C86.9925 362.936 87.0935 363.172 87.0767 363.441C86.9925 364.821 86.9252 366.218 86.8747 367.598C87.1777 367.665 87.4133 367.699 87.6826 367.733C88.3053 367.8 89.0122 367.884 89.6181 368.254C90.4765 368.759 90.7794 369.601 90.9477 370.274C91.1665 371.116 91.3012 371.991 91.3685 372.866C91.8229 372.984 92.311 373.034 92.7654 373.034C93.3714 373.034 93.9268 372.933 94.398 372.748C95.8118 369.971 95.8623 366.874 94.5327 363.811C94.4317 363.559 94.4485 363.289 94.5663 363.054C94.701 362.818 94.9366 362.65 95.2059 362.616C95.2059 362.616 103.318 361.404 103.335 361.404C103.874 361.404 104.227 361.707 104.294 362.111C104.379 362.582 104.059 363.02 103.604 363.104C101.147 363.559 99.8007 365.376 99.3967 366.79C99.5314 366.672 99.7165 366.588 99.9185 366.588C100.356 366.588 100.676 366.824 100.777 367.211C100.861 367.48 100.911 367.766 100.962 368.036C101.231 368.406 101.787 368.81 102.308 369.18C102.51 369.332 102.712 369.483 102.914 369.635C103.621 370.173 104.227 370.829 104.698 371.553C104.884 371.334 105.069 371.099 105.254 370.897C105.91 370.123 106.6 369.365 107.29 368.591C108.67 367.043 110.101 365.444 111.346 363.811C111.481 363.02 111.666 362.162 111.902 361.27C112.424 359.25 113.484 358.055 115.032 357.685L115.1 357.668L115.234 357.651C115.47 357.651 115.706 357.752 115.874 357.92C116.076 358.156 116.16 358.476 116.059 358.762C115.487 360.58 114.494 362.448 113.013 364.468C112.743 366.302 112.777 367.918 113.097 369.399C113.686 372.109 115.319 374.431 117.708 375.946L118.146 376.232L117.22 377.696L116.783 377.41C114.006 375.643 112.104 372.933 111.414 369.769C111.212 368.843 111.111 367.884 111.111 366.874C110.286 367.85 109.445 368.793 108.603 369.719C107.93 370.476 107.24 371.233 106.583 371.991C106.247 372.378 105.893 372.799 105.557 373.219C105.977 374.398 106.112 375.677 105.961 377.006C105.675 379.565 104.48 381.904 103.318 384.176C102.628 385.455 101.652 386.162 100.609 386.162ZM104.16 375.037C101.719 378.487 100.71 381.517 101.08 384.26C101.383 384.025 101.618 383.638 101.719 383.436C102.813 381.298 103.941 379.11 104.193 376.872C104.244 376.232 104.244 375.626 104.16 375.037ZM86.7064 372.041C86.6728 373.741 86.6728 375.424 86.6728 377.09C86.6728 377.831 86.6896 378.605 87.0262 379.245C87.2113 379.615 87.6489 380.07 88.2548 380.271C89.1637 378.319 89.6518 376.198 89.6518 374.078C88.6251 373.64 87.6658 372.984 86.7064 372.041ZM86.7737 369.517C87.0767 369.921 87.3796 370.24 87.6153 370.493C88.2548 371.166 88.8776 371.671 89.5003 372.075C89.433 371.604 89.3488 371.149 89.231 370.678C89.0964 370.139 88.9449 369.87 88.6924 369.719C88.4063 369.55 87.9351 369.5 87.447 369.433C87.2282 369.399 87.0094 369.382 86.7737 369.348V369.517ZM99.1274 368.322C99.1106 368.759 99.1443 369.214 99.1948 369.651C99.2452 369.298 99.2621 368.944 99.2452 368.608C99.1947 368.507 99.1611 368.406 99.1274 368.322ZM85.2422 364.367C85.0738 364.956 85.0402 365.578 85.158 366.235C85.1917 365.595 85.2253 364.972 85.2422 364.367Z" fill="#084C94"/>
<path d="M76.5069 306.132C76.5574 305.358 77.2138 304.618 78.4761 303.877L87.1607 298.862C88.423 298.138 89.7189 297.751 91.0654 297.717C92.395 297.683 93.6741 298.02 94.9028 298.727C96.1314 299.434 96.7205 300.174 96.67 300.949C96.6195 301.723 95.9631 302.463 94.7008 303.204L92.9841 304.197L90.5605 302.8L92.4287 301.723C93.4217 301.151 93.5058 300.612 92.6475 300.124C91.7891 299.636 90.8634 299.669 89.8704 300.259L80.8324 305.476C79.8394 306.048 79.772 306.57 80.6304 307.075C81.4888 307.563 82.3976 307.529 83.3906 306.957L85.8647 305.527L88.2883 306.923L85.9994 308.236C84.7371 308.96 83.4411 309.347 82.0947 309.381C80.765 309.414 79.4691 309.078 78.2573 308.371C77.0455 307.647 76.4564 306.907 76.5069 306.132Z" fill="#FF731D"/>
<path d="M99.9855 301.941L106.953 305.964L104.648 307.294L100.238 304.735L95.963 307.209L99.4806 309.229L97.1748 310.559L93.6572 308.539L88.6922 311.4L93.1018 313.958L90.796 315.288L83.8281 311.266L99.9855 301.941Z" fill="#FF731D"/>
<path d="M108.418 306.806L112.205 308.994C113.518 309.751 114.174 310.492 114.174 311.182C114.174 311.889 113.534 312.595 112.272 313.319L111.279 313.891C109.596 314.868 107.98 315.154 106.415 314.767L106.365 314.8C106.802 315.271 106.853 315.743 106.55 316.214C106.23 316.685 105.607 317.207 104.648 317.762L101.803 319.395C101.349 319.664 100.979 319.883 100.726 320.068C100.474 320.253 100.272 320.455 100.12 320.691L97.5116 319.193C97.68 318.991 97.8651 318.806 98.0671 318.654C98.269 318.503 98.673 318.251 99.262 317.914L102.224 316.214C102.965 315.793 103.352 315.423 103.419 315.12C103.47 314.817 103.2 314.48 102.611 314.144L101.736 313.639L94.8019 317.645L92.2437 316.164L108.418 306.806ZM104.968 312.831C105.473 313.134 105.994 313.269 106.516 313.269C107.038 313.269 107.593 313.083 108.216 312.73L109.461 312.006C110.05 311.67 110.37 311.367 110.421 311.097C110.471 310.828 110.269 310.559 109.832 310.306L108.67 309.633L104.042 312.309L104.968 312.831Z" fill="#FF731D"/>
<path d="M117.422 314.682L114.746 313.134L117.052 311.804L124.962 316.365L122.656 317.695L119.98 316.147L106.112 324.158L103.554 322.677L117.422 314.682Z" fill="#FF731D"/>
<path d="M126.208 317.072L128.766 318.553L112.592 327.894L110.034 326.413L126.208 317.072Z" fill="#FF731D"/>
<path d="M130.668 319.647L137.434 323.552L135.128 324.882L130.92 322.458L126.41 325.067L129.709 326.969L127.403 328.298L124.104 326.397L117.052 330.47L114.494 328.988L130.668 319.647Z" fill="#FF731D"/>
<path d="M138.663 324.276L141.221 325.757L125.047 335.081L122.488 333.6L138.663 324.276Z" fill="#FF731D"/>
<path d="M128.564 336.192C128.615 335.418 129.271 334.677 130.533 333.937L139.218 328.921C140.48 328.197 141.776 327.81 143.123 327.777C144.452 327.743 145.731 328.08 146.96 328.787C148.189 329.493 148.778 330.234 148.727 331.008C148.677 331.782 148.02 332.523 146.758 333.263L145.041 334.257L142.618 332.86L144.486 331.782C145.479 331.21 145.563 330.672 144.705 330.183C143.846 329.695 142.921 329.729 141.928 330.318L132.89 335.536C131.897 336.108 131.829 336.63 132.688 337.135C133.546 337.623 134.455 337.589 135.448 337.017L137.922 335.586L140.345 336.983L138.057 338.296C136.794 339.02 135.498 339.407 134.152 339.44C132.822 339.474 131.526 339.137 130.314 338.431C129.103 337.69 128.514 336.949 128.564 336.192Z" fill="#FF731D"/>
<path d="M154.012 333.129L157.479 335.132L143.964 346.004L141.406 344.523L144.149 342.403L144.099 342.436L141.187 340.753L137.552 342.318L135.179 340.955L154.012 333.129ZM145.984 340.989L152.834 335.721L152.784 335.687L143.678 339.659L145.984 340.989Z" fill="#FF731D"/>
<path d="M159.97 339.238L157.294 337.69L159.6 336.36L167.51 340.921L165.204 342.251L162.528 340.703L148.66 348.714L146.102 347.233L159.97 339.238Z" fill="#FF731D"/>
<path d="M168.756 341.645L175.723 345.668L173.418 346.997L169.008 344.439L164.733 346.913L168.251 348.933L165.945 350.262L162.427 348.243L157.462 351.104L161.872 353.662L159.566 354.992L152.598 350.969L168.756 341.645Z" fill="#FF731D"/>
<path d="M530.295 354.874V400.064L537.111 396.311V350.768L530.295 354.874Z" fill="#AA4100"/>
<path d="M530.345 354.874V400.064L436.245 344.961V299.417L530.345 354.874Z" fill="#FF731D"/>
<path d="M436.245 299.417L530.345 354.874L537.111 350.767L442.927 295.428L436.245 299.417Z" fill="#E35600"/>
<path opacity="0.5" d="M436.245 299.417L530.345 354.874L537.111 350.767L530.009 352.703L436.245 299.417Z" fill="white"/>
<path d="M610.678 351.323V419.015L617.561 415.043V346.778L610.678 351.323Z" fill="#3A98B9"/>
<path d="M500.605 286.643L610.762 351.323L617.562 346.778L507.27 282.3L500.605 286.643Z" fill="#72B5E8"/>
<path opacity="0.7" d="M500.605 286.643L610.762 351.323L617.562 346.778L611.048 349.741L500.605 286.643Z" fill="white"/>
<path d="M500.605 286.643V331.951L535.075 352.164V374.835L610.762 419.016V351.323L500.605 286.643Z" fill="#5CAFCC"/>
<path d="M536.118 315.574L510.62 300.847C509.055 299.939 507.792 300.662 507.792 302.463V319.731C507.792 321.532 509.055 323.72 510.62 324.612L526.559 333.819L534.52 347.569V338.43L536.118 339.356C537.684 340.265 538.946 339.541 538.946 337.74V320.455C538.946 318.654 537.684 316.466 536.118 315.574ZM518.143 318.806C517.319 319.277 515.972 318.503 515.131 317.072C514.306 315.642 514.306 314.093 515.131 313.622C515.955 313.151 517.302 313.925 518.143 315.355C518.968 316.786 518.968 318.334 518.143 318.806ZM525.044 322.795C524.219 323.266 522.873 322.492 522.031 321.061C521.206 319.63 521.206 318.082 522.031 317.611C522.856 317.14 524.202 317.914 525.044 319.344C525.885 320.775 525.885 322.323 525.044 322.795ZM531.961 326.783C531.137 327.255 529.79 326.481 528.949 325.05C528.124 323.619 528.124 322.071 528.949 321.6C529.773 321.128 531.12 321.903 531.961 323.333C532.786 324.764 532.786 326.295 531.961 326.783Z" fill="white"/>
<path d="M548.388 346.761V351.087L602.515 382.24V377.932L548.388 346.761Z" fill="white"/>
<path d="M581.443 383.705L548.388 364.686V368.995L581.443 388.013V383.705Z" fill="white"/>
<path d="M548.388 360.041L602.515 391.194V386.885L548.388 355.732V360.041Z" fill="white"/>
<path d="M484.617 339.474V343.782L522.486 365.679V361.353L484.617 339.474Z" fill="white"/>
<path d="M501.414 367.143L484.617 357.381V361.707L501.414 371.452V367.143Z" fill="white"/>
<path d="M484.617 352.736L522.486 374.633V370.324L484.617 348.428V352.736Z" fill="white"/>
<path d="M548.388 329.039V333.347L602.515 364.501V360.192L548.388 329.039Z" fill="white"/>
<path d="M548.388 342.301L602.515 373.455V369.146L548.388 337.993V342.301Z" fill="white"/>
<path d="M474.67 329.645L448.953 314.8C447.37 313.891 446.091 314.615 446.091 316.433V333.852C446.091 335.67 447.37 337.875 448.953 338.784L450.551 339.71V348.933L458.596 344.355L474.67 353.628C476.252 354.537 477.531 353.814 477.531 351.996V334.576C477.514 332.758 476.235 330.554 474.67 329.645ZM456.173 332.691C455.331 333.162 453.985 332.388 453.143 330.941C452.302 329.493 452.302 327.945 453.143 327.457C453.985 326.986 455.331 327.76 456.173 329.207C457.014 330.655 457.014 332.22 456.173 332.691ZM463.141 336.714C462.299 337.185 460.953 336.411 460.111 334.963C459.27 333.516 459.27 331.967 460.111 331.479C460.953 331.008 462.299 331.782 463.141 333.23C463.982 334.677 463.982 336.242 463.141 336.714ZM470.109 340.736C469.267 341.207 467.921 340.433 467.079 338.986C466.238 337.538 466.238 335.99 467.079 335.502C467.921 335.031 469.267 335.805 470.109 337.252C470.95 338.7 470.95 340.265 470.109 340.736Z" fill="white"/>
<path d="M332.249 423.795H280.982V431.504C280.982 431.504 280.982 431.638 280.982 431.706C280.982 439.953 292.461 446.635 306.615 446.635C320.77 446.635 332.249 439.953 332.249 431.706C332.249 431.638 332.249 431.571 332.232 431.504H332.249V423.795Z" fill="#D62D69"/>
<path d="M306.615 438.825C320.772 438.825 332.249 432.141 332.249 423.897C332.249 415.652 320.772 408.968 306.615 408.968C292.459 408.968 280.982 415.652 280.982 423.897C280.982 432.141 292.459 438.825 306.615 438.825Z" fill="#F76195"/>
<path d="M306.615 435.931C318.03 435.931 327.283 430.543 327.283 423.897C327.283 417.251 318.03 411.863 306.615 411.863C295.201 411.863 285.947 417.251 285.947 423.897C285.947 430.543 295.201 435.931 306.615 435.931Z" fill="#F0F8FF"/>
<path d="M306.615 413.63C317.522 413.63 326.425 418.545 327.199 424.772C327.233 424.486 327.283 424.183 327.283 423.897C327.283 417.249 318.026 411.863 306.615 411.863C295.204 411.863 285.947 417.249 285.947 423.897C285.947 424.2 285.981 424.486 286.031 424.772C286.806 418.545 295.709 413.63 306.615 413.63Z" fill="#A8CFF0"/>
<path opacity="0.7" d="M306.615 438.758C292.612 438.758 281.235 432.211 280.999 424.099C280.999 424.183 280.982 424.284 280.982 424.368C280.982 432.615 292.461 439.297 306.615 439.297C320.77 439.297 332.249 432.615 332.249 424.368C332.249 424.284 332.232 424.183 332.232 424.099C331.996 432.211 320.619 438.758 306.615 438.758Z" fill="white"/>
<path d="M349.348 474.22C364.119 474.22 376.092 467.25 376.092 458.652C376.092 450.054 364.119 443.083 349.348 443.083C334.578 443.083 322.604 450.054 322.604 458.652C322.604 467.25 334.578 474.22 349.348 474.22Z" fill="#084C94"/>
<path d="M349.348 445.372C363.452 445.372 374.981 451.734 375.991 459.796C376.042 459.426 376.092 459.039 376.092 458.652C376.092 450.051 364.126 443.083 349.348 443.083C334.588 443.083 322.604 450.051 322.604 458.652C322.604 459.039 322.655 459.409 322.705 459.796C323.732 451.734 335.244 445.372 349.348 445.372Z" fill="#001A46"/>
<path d="M374.998 432.968H323.732V440.677C323.732 440.677 323.732 440.811 323.732 440.879C323.732 449.126 335.21 455.807 349.365 455.807C363.52 455.807 374.998 449.126 374.998 440.879C374.998 440.811 374.998 440.744 374.981 440.677H374.998V432.968Z" fill="#FECEA5"/>
<path d="M349.348 447.998C363.505 447.998 374.981 441.314 374.981 433.069C374.981 424.824 363.505 418.141 349.348 418.141C335.192 418.141 323.715 424.824 323.715 433.069C323.715 441.314 335.192 447.998 349.348 447.998Z" fill="#FFAB77"/>
<path d="M328.697 433.07C328.697 439.718 337.954 445.103 349.365 445.103C360.776 445.103 370.033 439.718 370.033 433.07C370.033 426.421 360.776 421.036 349.365 421.036C337.937 421.036 328.697 426.421 328.697 433.07Z" fill="#F0F8FF"/>
<path d="M349.348 422.803C360.254 422.803 369.158 427.717 369.932 433.945C369.966 433.659 370.016 433.356 370.016 433.07C370.016 426.421 360.759 421.036 349.348 421.036C337.937 421.036 328.68 426.421 328.68 433.07C328.68 433.372 328.714 433.659 328.764 433.945C329.555 427.717 338.459 422.803 349.348 422.803Z" fill="#A8CFF0"/>
<path d="M349.348 447.931C335.345 447.931 323.968 441.384 323.732 433.271C323.732 433.356 323.715 433.457 323.715 433.541C323.715 441.788 335.194 448.47 349.348 448.47C363.503 448.47 374.981 441.788 374.981 433.541C374.981 433.457 374.965 433.356 374.965 433.271C374.729 441.401 363.368 447.931 349.348 447.931Z" fill="white"/>
<path d="M350.526 438.893L338.324 431.858C337.516 431.386 337.247 430.36 337.702 429.552C338.173 428.744 339.199 428.475 340.007 428.929L350.526 435.005L360.086 429.484C360.894 429.013 361.921 429.299 362.392 430.107C362.863 430.915 362.577 431.942 361.769 432.413L350.526 438.893Z" fill="#A8CFF0"/>
<path d="M350.526 436.772L338.324 429.737C337.516 429.266 337.247 428.239 337.702 427.431C338.173 426.623 339.199 426.354 340.007 426.808L350.526 432.884L360.086 427.364C360.894 426.893 361.921 427.179 362.392 427.987C362.863 428.794 362.577 429.821 361.769 430.292L350.526 436.772Z" fill="#FFAB77"/>
<path d="M308.046 434.079L321.039 426.573C321.712 426.186 321.712 425.563 321.039 425.176L318.616 423.779C317.084 422.887 314.694 422.735 312.843 423.392C311.698 423.796 310.402 424.015 309.106 424.048C308.854 424.048 308.601 423.998 308.416 423.897C308.214 423.779 308.096 423.627 308.096 423.459C308.096 422.82 307.894 422.163 307.524 421.591C307.878 421.137 307.911 420.531 307.272 420.16C306.683 419.824 305.908 419.672 305.252 419.773C302.138 418.225 299.159 418.242 296.382 419.841C293.605 421.439 293.555 423.173 296.248 424.957C296.096 425.327 296.349 425.782 296.938 426.118C297.577 426.489 298.638 426.472 299.412 426.27C300.405 426.489 301.516 426.59 302.643 426.607C302.929 426.607 303.199 426.674 303.384 426.792C303.569 426.893 303.653 427.044 303.653 427.179C303.619 427.919 303.232 428.677 302.526 429.333C301.381 430.41 301.65 431.774 303.199 432.666L305.622 434.062C306.296 434.466 307.373 434.466 308.046 434.079Z" fill="#A8CFF0"/>
<path d="M308.046 432.665L321.039 425.159C321.712 424.772 321.712 424.149 321.039 423.762L318.616 422.365C317.084 421.473 314.694 421.321 312.843 421.978C311.698 422.382 310.402 422.601 309.106 422.634C308.854 422.634 308.601 422.584 308.416 422.483C308.214 422.365 308.096 422.213 308.096 422.045C308.096 421.406 307.894 420.749 307.524 420.177C307.878 419.722 307.911 419.117 307.272 418.746C306.683 418.41 305.908 418.258 305.252 418.359C302.138 416.811 299.159 416.828 296.382 418.427C293.605 420.025 293.555 421.759 296.248 423.543C296.096 423.913 296.349 424.368 296.938 424.704C297.577 425.075 298.638 425.058 299.412 424.856C300.405 425.075 301.516 425.176 302.643 425.192C302.929 425.192 303.199 425.26 303.384 425.378C303.569 425.479 303.653 425.63 303.653 425.765C303.619 426.505 303.232 427.263 302.526 427.919C301.381 428.996 301.65 430.359 303.199 431.251L305.622 432.648C306.296 433.052 307.373 433.052 308.046 432.665Z" fill="#F76195"/>
<path d="M419.717 473.042H368.451V480.75C368.451 480.75 368.451 480.885 368.451 480.952C368.451 489.199 379.93 495.881 394.084 495.881C408.239 495.881 419.717 489.199 419.717 480.952C419.717 480.885 419.717 480.818 419.7 480.75H419.717V473.042Z" fill="#AA4100"/>
<path d="M394.084 488.072C408.241 488.072 419.717 481.388 419.717 473.143C419.717 464.898 408.241 458.214 394.084 458.214C379.928 458.214 368.451 464.898 368.451 473.143C368.451 481.388 379.928 488.072 394.084 488.072Z" fill="#E35600"/>
<path d="M373.416 473.143C373.416 479.791 382.673 485.177 394.084 485.177C405.495 485.177 414.752 479.791 414.752 473.143C414.752 466.495 405.495 461.109 394.084 461.109C382.673 461.109 373.416 466.495 373.416 473.143Z" fill="#F0F8FF"/>
<path d="M394.084 462.877C404.99 462.877 413.894 467.791 414.668 474.018C414.702 473.732 414.752 473.429 414.752 473.143C414.752 466.495 405.495 461.109 394.084 461.109C382.673 461.109 373.416 466.495 373.416 473.143C373.416 473.446 373.45 473.732 373.5 474.018C374.274 467.791 383.178 462.877 394.084 462.877Z" fill="#A8CFF0"/>
<path opacity="0.5" d="M394.084 488.021C380.081 488.021 368.704 481.474 368.468 473.362C368.468 473.446 368.451 473.547 368.451 473.631C368.451 481.878 379.93 488.56 394.084 488.56C408.239 488.56 419.717 481.878 419.717 473.631C419.717 473.547 419.7 473.446 419.7 473.362C419.465 481.474 408.087 488.021 394.084 488.021Z" fill="white"/>
<path d="M385.181 480.717L402.011 482.332L396.743 465.047L389.372 467.37L395.902 478.815L387.756 477.721L385.181 480.717Z" fill="#A8CFF0"/>
<path d="M385.181 479.286L402.011 480.919L396.743 463.634L389.372 465.956L395.902 477.384L387.756 476.307L385.181 479.286Z" fill="#FF731D"/>
<path d="M344.08 226.574C343.676 226.574 343.323 226.288 343.256 225.884C343.155 225.329 343.054 224.773 342.97 224.218C342.885 223.764 343.205 223.326 343.66 223.242C344.114 223.174 344.552 223.477 344.636 223.932C344.72 224.487 344.821 225.026 344.922 225.581C345.006 226.036 344.703 226.473 344.249 226.557C344.181 226.557 344.131 226.574 344.08 226.574Z" fill="#FF731D"/>
<path d="M343.037 219.842C342.616 219.842 342.263 219.539 342.195 219.101C342.044 217.957 341.909 216.829 341.791 215.685C341.741 215.23 342.078 214.809 342.549 214.759C343.003 214.725 343.424 215.045 343.475 215.516C343.592 216.644 343.727 217.755 343.862 218.883C343.929 219.337 343.592 219.758 343.138 219.825C343.104 219.842 343.071 219.842 343.037 219.842ZM342.229 211.359C341.791 211.359 341.421 211.023 341.388 210.568C341.32 209.424 341.27 208.279 341.236 207.135C341.219 206.663 341.589 206.276 342.044 206.26C342.061 206.26 342.061 206.26 342.078 206.26C342.532 206.26 342.902 206.613 342.919 207.067C342.953 208.195 343.003 209.323 343.071 210.45C343.104 210.922 342.751 211.309 342.28 211.342C342.263 211.359 342.246 211.359 342.229 211.359ZM342.027 202.826C341.556 202.826 341.186 202.439 341.186 201.968C341.202 200.806 341.236 199.662 341.303 198.534C341.32 198.08 341.707 197.71 342.179 197.743C342.65 197.76 343.003 198.164 342.97 198.618C342.919 199.729 342.885 200.857 342.869 202.001C342.869 202.456 342.482 202.826 342.027 202.826ZM342.532 194.31C342.498 194.31 342.465 194.31 342.448 194.31C341.993 194.259 341.657 193.855 341.69 193.384C341.808 192.223 341.96 191.078 342.111 189.967C342.179 189.513 342.616 189.176 343.071 189.261C343.525 189.328 343.845 189.749 343.777 190.22C343.609 191.314 343.475 192.442 343.357 193.569C343.323 193.99 342.953 194.31 342.532 194.31ZM343.845 185.878C343.777 185.878 343.727 185.878 343.676 185.861C343.222 185.76 342.936 185.322 343.02 184.868C343.256 183.723 343.525 182.612 343.811 181.518C343.929 181.064 344.383 180.795 344.838 180.913C345.292 181.03 345.562 181.485 345.444 181.939C345.158 183.016 344.905 184.11 344.67 185.221C344.585 185.608 344.232 185.878 343.845 185.878ZM346.117 177.664C346.033 177.664 345.932 177.647 345.848 177.614C345.41 177.462 345.174 176.974 345.326 176.537C345.713 175.426 346.117 174.349 346.555 173.305C346.74 172.884 347.228 172.666 347.649 172.851C348.069 173.036 348.288 173.524 348.103 173.945C347.682 174.971 347.278 176.015 346.908 177.092C346.79 177.445 346.47 177.664 346.117 177.664ZM349.5 169.855C349.365 169.855 349.231 169.821 349.113 169.754C348.709 169.535 348.541 169.03 348.759 168.609C349.298 167.583 349.887 166.573 350.493 165.597C350.745 165.21 351.25 165.092 351.654 165.327C352.041 165.58 352.176 166.085 351.924 166.489C351.334 167.431 350.779 168.407 350.257 169.4C350.089 169.687 349.803 169.855 349.5 169.855ZM433.855 166.034C433.687 166.034 433.502 165.984 433.35 165.866C432.441 165.193 431.516 164.536 430.59 163.897C430.203 163.628 430.119 163.106 430.388 162.719C430.657 162.332 431.179 162.247 431.566 162.517C432.509 163.173 433.434 163.846 434.36 164.52C434.73 164.789 434.814 165.327 434.545 165.698C434.36 165.916 434.108 166.034 433.855 166.034ZM354.145 162.719C353.96 162.719 353.775 162.651 353.623 162.534C353.253 162.247 353.203 161.709 353.489 161.355C354.212 160.43 354.97 159.555 355.744 158.713C356.064 158.376 356.586 158.36 356.939 158.679C357.276 158.999 357.292 159.521 356.99 159.874C356.249 160.682 355.508 161.524 354.818 162.416C354.633 162.601 354.398 162.719 354.145 162.719ZM426.82 161.187C426.668 161.187 426.5 161.137 426.365 161.052C425.406 160.447 424.447 159.857 423.487 159.268C423.083 159.033 422.949 158.511 423.201 158.107C423.437 157.703 423.959 157.585 424.363 157.821C425.339 158.41 426.315 159.016 427.291 159.622C427.678 159.874 427.796 160.396 427.544 160.783C427.375 161.052 427.089 161.187 426.82 161.187ZM419.465 156.878C419.33 156.878 419.196 156.845 419.061 156.777C418.051 156.239 417.041 155.717 416.048 155.229C415.627 155.027 415.459 154.522 415.661 154.101C415.863 153.681 416.368 153.512 416.789 153.714C417.799 154.219 418.825 154.741 419.852 155.28C420.256 155.498 420.424 156.003 420.205 156.424C420.054 156.727 419.751 156.878 419.465 156.878ZM360.086 156.609C359.851 156.609 359.598 156.508 359.447 156.306C359.144 155.953 359.194 155.414 359.565 155.128C360.457 154.387 361.399 153.681 362.342 153.024C362.712 152.755 363.251 152.856 363.52 153.243C363.789 153.63 363.688 154.152 363.301 154.421C362.392 155.044 361.5 155.734 360.642 156.441C360.457 156.542 360.271 156.609 360.086 156.609ZM411.773 153.193C411.655 153.193 411.554 153.176 411.437 153.125C410.376 152.671 409.333 152.267 408.306 151.863C407.869 151.695 407.65 151.207 407.818 150.786C407.986 150.348 408.458 150.129 408.895 150.298C409.956 150.702 411.016 151.122 412.093 151.577C412.514 151.762 412.716 152.25 412.531 152.688C412.413 153.007 412.093 153.193 411.773 153.193ZM367.189 151.93C366.886 151.93 366.583 151.762 366.432 151.476C366.213 151.055 366.381 150.55 366.802 150.348C367.828 149.826 368.906 149.338 369.966 148.901C370.404 148.732 370.892 148.934 371.06 149.372C371.228 149.81 371.026 150.298 370.589 150.466C369.562 150.887 368.535 151.341 367.559 151.846C367.441 151.897 367.307 151.93 367.189 151.93ZM403.745 150.281C403.661 150.281 403.577 150.264 403.509 150.247C402.415 149.911 401.338 149.608 400.261 149.338C399.807 149.221 399.537 148.766 399.655 148.312C399.773 147.857 400.211 147.588 400.682 147.706C401.776 147.975 402.887 148.295 404.014 148.631C404.452 148.766 404.704 149.237 404.57 149.675C404.452 150.045 404.115 150.281 403.745 150.281ZM375.133 148.918C374.763 148.918 374.409 148.665 374.325 148.295C374.207 147.84 374.477 147.386 374.931 147.268C376.042 146.982 377.186 146.73 378.331 146.528C378.785 146.443 379.223 146.746 379.307 147.218C379.391 147.672 379.088 148.11 378.617 148.194C377.506 148.379 376.412 148.631 375.352 148.901C375.284 148.918 375.217 148.918 375.133 148.918ZM395.448 148.312C395.397 148.312 395.347 148.312 395.313 148.295C394.185 148.11 393.074 147.958 391.98 147.84C391.526 147.79 391.189 147.369 391.24 146.915C391.29 146.443 391.711 146.124 392.166 146.174C393.293 146.292 394.438 146.46 395.599 146.645C396.053 146.73 396.373 147.15 396.289 147.622C396.222 148.026 395.851 148.312 395.448 148.312ZM383.548 147.622C383.111 147.622 382.74 147.285 382.707 146.831C382.673 146.359 383.027 145.972 383.498 145.939C384.44 145.888 385.383 145.838 386.393 145.854H386.982C387.453 145.854 387.823 146.241 387.806 146.713C387.806 147.167 387.419 147.537 386.965 147.537C386.965 147.537 386.965 147.537 386.948 147.537H386.393C386.376 147.537 386.359 147.537 386.359 147.537C385.433 147.537 384.524 147.571 383.616 147.622C383.582 147.622 383.565 147.622 383.548 147.622Z" fill="#FF731D"/>
<path d="M439.292 170.276C439.106 170.276 438.921 170.208 438.753 170.091C438.315 169.737 437.895 169.384 437.457 169.03C437.087 168.744 437.036 168.205 437.322 167.852C437.609 167.482 438.147 167.431 438.501 167.717C438.938 168.071 439.376 168.424 439.813 168.778C440.167 169.081 440.217 169.602 439.931 169.956C439.78 170.158 439.527 170.276 439.292 170.276Z" fill="#FF731D"/>
<path d="M11.7088 313.706C11.4227 313.706 11.1366 313.555 10.9851 313.286C10.7495 312.882 10.8841 312.377 11.288 312.141L14.1829 310.441C14.5868 310.206 15.0918 310.34 15.3274 310.744C15.563 311.148 15.4284 311.653 15.0244 311.889L12.1296 313.589C12.0118 313.673 11.8603 313.706 11.7088 313.706ZM18.9628 309.448C18.6767 309.448 18.3906 309.297 18.2391 309.027C18.0035 308.623 18.1381 308.119 18.542 307.883L21.4369 306.183C21.8408 305.947 22.3458 306.082 22.5814 306.486C22.817 306.89 22.6824 307.395 22.2784 307.63L19.3836 309.33C19.2658 309.414 19.1143 309.448 18.9628 309.448ZM26.2168 305.173C25.9307 305.173 25.6446 305.022 25.4931 304.752C25.2575 304.348 25.3921 303.844 25.796 303.608L28.6909 301.908C29.0949 301.672 29.5998 301.807 29.8354 302.211C30.071 302.615 29.9364 303.12 29.5324 303.355L26.6376 305.055C26.5198 305.14 26.3683 305.173 26.2168 305.173ZM33.4708 300.915C33.1847 300.915 32.8986 300.764 32.7471 300.494C32.5115 300.09 32.6461 299.585 33.0501 299.35L35.9449 297.65C36.3489 297.414 36.8538 297.549 37.0894 297.953C37.325 298.357 37.1904 298.862 36.7864 299.097L33.8916 300.797C33.7738 300.881 33.6223 300.915 33.4708 300.915ZM40.7248 296.64C40.4387 296.64 40.1526 296.489 40.0011 296.219C39.7655 295.815 39.9001 295.31 40.3041 295.075L43.1989 293.375C43.6029 293.139 44.1078 293.274 44.3434 293.678C44.579 294.082 44.4444 294.587 44.0405 294.822L41.1456 296.522C41.0109 296.606 40.8763 296.64 40.7248 296.64ZM47.9788 292.382C47.6927 292.382 47.4066 292.23 47.2551 291.961C47.0195 291.557 47.1541 291.052 47.5581 290.817L50.4529 289.117C50.8569 288.881 51.3618 289.016 51.5974 289.42C51.833 289.824 51.6984 290.329 51.2945 290.564L48.3996 292.264C48.2649 292.331 48.1303 292.382 47.9788 292.382ZM55.2328 288.107C54.9467 288.107 54.6606 287.955 54.5091 287.686C54.2735 287.282 54.4081 286.777 54.8121 286.542L57.7069 284.842C58.1109 284.606 58.6158 284.741 58.8514 285.145C59.087 285.549 58.9524 286.054 58.5485 286.289L55.6536 287.989C55.5189 288.073 55.3843 288.107 55.2328 288.107ZM59.087 281.896C58.6158 281.896 58.2455 281.526 58.2455 281.055V277.689C58.2455 277.218 58.6158 276.847 59.087 276.847C59.5583 276.847 59.9286 277.218 59.9286 277.689V281.055C59.9286 281.526 59.5583 281.896 59.087 281.896ZM59.087 273.481C58.6158 273.481 58.2455 273.111 58.2455 272.64V269.273C58.2455 268.802 58.6158 268.432 59.087 268.432C59.5583 268.432 59.9286 268.802 59.9286 269.273V272.64C59.9286 273.111 59.5583 273.481 59.087 273.481ZM59.087 265.066C58.6158 265.066 58.2455 264.696 58.2455 264.224V260.858C58.2455 260.387 58.6158 260.017 59.087 260.017C59.5583 260.017 59.9286 260.387 59.9286 260.858V264.224C59.9286 264.696 59.5583 265.066 59.087 265.066Z" fill="#FF731D"/>
<path d="M387.756 530.199C387.301 530.199 386.931 529.845 386.914 529.374C386.897 528.903 387.268 528.516 387.739 528.516C388.85 528.482 389.961 528.398 391.021 528.28C391.475 528.213 391.896 528.55 391.964 529.021C392.014 529.475 391.694 529.896 391.223 529.963C390.112 530.098 388.951 530.182 387.79 530.216C387.773 530.199 387.773 530.199 387.756 530.199ZM382.724 530.014C382.69 530.014 382.673 530.014 382.639 530.014C381.495 529.896 380.35 529.744 379.24 529.526C378.785 529.442 378.482 529.004 378.566 528.55C378.65 528.095 379.088 527.792 379.543 527.876C380.603 528.078 381.697 528.23 382.808 528.348C383.262 528.398 383.599 528.802 383.565 529.273C383.515 529.694 383.144 530.014 382.724 530.014ZM396.07 528.97C395.7 528.97 395.363 528.735 395.262 528.348C395.145 527.893 395.397 527.439 395.851 527.304C396.912 527.001 397.955 526.648 398.931 526.244C399.369 526.075 399.857 526.277 400.025 526.698C400.194 527.136 399.992 527.624 399.571 527.792C398.527 528.213 397.417 528.6 396.289 528.92C396.222 528.953 396.138 528.97 396.07 528.97ZM374.493 528.297C374.409 528.297 374.325 528.28 374.224 528.263C373.113 527.91 372.036 527.489 371.009 527.035C370.589 526.85 370.387 526.345 370.572 525.924C370.757 525.503 371.262 525.301 371.683 525.486C372.659 525.907 373.702 526.311 374.763 526.648C375.2 526.799 375.453 527.27 375.301 527.708C375.183 528.078 374.847 528.297 374.493 528.297ZM403.728 525.554C403.442 525.554 403.156 525.402 403.004 525.133C402.769 524.729 402.903 524.224 403.307 523.988L406.219 522.305C406.623 522.07 407.128 522.204 407.364 522.608C407.599 523.012 407.465 523.517 407.061 523.753L404.149 525.436C404.014 525.52 403.863 525.554 403.728 525.554ZM366.886 524.763C366.734 524.763 366.6 524.729 366.465 524.645L363.553 522.945C363.149 522.709 363.015 522.204 363.25 521.8C363.486 521.397 364.008 521.262 364.395 521.498L367.307 523.197C367.711 523.433 367.845 523.938 367.61 524.342C367.458 524.611 367.172 524.763 366.886 524.763ZM411.016 521.346C410.73 521.346 410.444 521.195 410.292 520.925C410.056 520.521 410.191 520.016 410.595 519.781L413.507 518.098C413.911 517.862 414.416 517.997 414.651 518.401C414.887 518.805 414.752 519.31 414.348 519.545L411.437 521.228C411.302 521.312 411.15 521.346 411.016 521.346ZM359.615 520.538C359.464 520.538 359.329 520.504 359.194 520.42L356.283 518.72C355.879 518.485 355.744 517.98 355.98 517.576C356.215 517.172 356.737 517.037 357.124 517.273L360.036 518.973C360.44 519.209 360.574 519.713 360.339 520.117C360.17 520.387 359.901 520.538 359.615 520.538ZM418.303 517.138C418.017 517.138 417.731 516.987 417.58 516.718C417.344 516.314 417.479 515.809 417.883 515.573L420.794 513.89C421.198 513.654 421.72 513.789 421.939 514.193C422.174 514.597 422.04 515.102 421.636 515.337L418.724 517.021C418.59 517.105 418.438 517.138 418.303 517.138ZM352.327 516.297C352.176 516.297 352.041 516.263 351.907 516.179L348.995 514.479C348.591 514.243 348.456 513.722 348.692 513.335C348.928 512.931 349.449 512.796 349.836 513.032L352.748 514.732C353.152 514.967 353.287 515.489 353.051 515.876C352.9 516.145 352.63 516.297 352.327 516.297ZM425.591 512.931C425.305 512.931 425.019 512.779 424.867 512.51C424.632 512.106 424.766 511.601 425.17 511.365L428.082 509.682C428.469 509.447 428.991 509.581 429.227 509.985C429.462 510.389 429.328 510.894 428.924 511.13L426.012 512.813C425.877 512.897 425.726 512.931 425.591 512.931ZM345.057 512.056C344.905 512.056 344.77 512.022 344.636 511.938L341.724 510.238C341.32 510.002 341.185 509.48 341.421 509.093C341.657 508.689 342.162 508.555 342.566 508.79L345.477 510.49C345.881 510.726 346.016 511.248 345.78 511.635C345.629 511.904 345.359 512.056 345.057 512.056ZM432.879 508.723C432.593 508.723 432.307 508.572 432.155 508.302C431.919 507.898 432.054 507.393 432.458 507.158L435.37 505.475C435.774 505.239 436.279 505.374 436.514 505.778C436.75 506.182 436.615 506.687 436.211 506.922L433.3 508.605C433.165 508.673 433.013 508.723 432.879 508.723ZM440.15 504.499C439.864 504.499 439.577 504.347 439.426 504.078C439.19 503.674 439.325 503.169 439.729 502.933L442.641 501.25C443.045 501.015 443.549 501.149 443.785 501.553C444.021 501.957 443.886 502.462 443.482 502.698L440.57 504.381C440.453 504.465 440.301 504.499 440.15 504.499ZM447.437 500.291C447.151 500.291 446.865 500.139 446.714 499.87C446.478 499.466 446.613 498.944 447.017 498.726L449.928 497.043C450.332 496.807 450.854 496.942 451.073 497.346C451.308 497.749 451.174 498.254 450.77 498.49L447.858 500.173C447.723 500.257 447.589 500.291 447.437 500.291ZM454.725 496.083C454.439 496.083 454.153 495.932 454.001 495.662C453.766 495.259 453.9 494.754 454.304 494.518L457.216 492.835C457.62 492.599 458.125 492.734 458.36 493.138C458.596 493.542 458.461 494.047 458.057 494.282L455.146 495.965C455.011 496.05 454.876 496.083 454.725 496.083ZM462.013 491.876C461.726 491.876 461.44 491.724 461.289 491.455C461.053 491.051 461.188 490.546 461.592 490.31L464.504 488.627C464.908 488.392 465.412 488.526 465.648 488.93C465.884 489.334 465.749 489.839 465.345 490.075L462.433 491.758C462.299 491.842 462.164 491.876 462.013 491.876ZM469.3 487.668C469.014 487.668 468.728 487.516 468.577 487.247C468.341 486.843 468.476 486.338 468.88 486.103L471.791 484.42C472.195 484.184 472.7 484.319 472.936 484.723C473.171 485.126 473.037 485.631 472.633 485.867L469.721 487.55C469.586 487.634 469.452 487.668 469.3 487.668ZM476.588 483.46C476.302 483.46 476.016 483.309 475.864 483.039C475.629 482.636 475.763 482.131 476.167 481.895L479.079 480.212C479.483 479.976 479.988 480.111 480.223 480.515C480.459 480.919 480.324 481.424 479.92 481.659L477.009 483.342C476.874 483.41 476.739 483.46 476.588 483.46ZM483.876 479.236C483.59 479.236 483.303 479.084 483.152 478.815C482.916 478.411 483.051 477.906 483.455 477.671L486.367 475.987C486.77 475.752 487.275 475.886 487.511 476.29C487.747 476.694 487.612 477.199 487.208 477.435L484.296 479.118C484.162 479.202 484.027 479.236 483.876 479.236ZM491.163 475.028C490.877 475.028 490.591 474.877 490.44 474.607C490.204 474.203 490.339 473.698 490.743 473.463L493.654 471.78C494.058 471.544 494.563 471.679 494.799 472.083C495.034 472.487 494.9 473.008 494.496 473.227L491.584 474.91C491.449 474.994 491.298 475.028 491.163 475.028ZM498.451 470.82C498.165 470.82 497.879 470.669 497.727 470.4C497.492 469.996 497.626 469.474 498.03 469.255L500.942 467.572C501.346 467.337 501.868 467.471 502.086 467.875C502.322 468.279 502.187 468.784 501.783 469.02L498.872 470.703C498.737 470.787 498.586 470.82 498.451 470.82ZM505.739 466.613C505.452 466.613 505.166 466.461 505.015 466.192C504.779 465.788 504.914 465.283 505.318 465.048L508.23 463.364C508.617 463.129 509.138 463.263 509.374 463.667C509.61 464.071 509.475 464.576 509.071 464.812L506.159 466.495C506.025 466.579 505.873 466.613 505.739 466.613Z" fill="#FF731D"/>
<path d="M341.926 231.59C341.926 233.929 343.576 236.773 345.612 237.952C346.168 238.271 346.723 238.44 347.211 238.44C348.356 238.44 349.079 237.497 349.079 235.982C349.079 233.643 347.43 230.799 345.393 229.62C344.838 229.301 344.283 229.132 343.794 229.132C342.65 229.132 341.926 230.075 341.926 231.59Z" fill="#FF731D"/>
<path d="M55.8052 251.786C55.8052 254.126 57.4546 256.97 59.4911 258.148C60.0465 258.468 60.6019 258.636 61.09 258.636C62.2345 258.636 62.9582 257.694 62.9582 256.179C62.9582 253.84 61.3088 250.995 59.2723 249.817C58.7169 249.497 58.1615 249.329 57.6734 249.329C56.5289 249.329 55.8052 250.272 55.8052 251.786Z" fill="#FF731D"/>
<path d="M438.887 165.227L443.095 172.531L435.521 171.117L438.887 165.227Z" fill="#FF731D"/>
<path d="M331.592 505.777C331.592 507.393 333.83 508.689 336.607 508.689C339.384 508.689 341.623 507.376 341.623 505.777C341.623 504.162 339.384 502.866 336.607 502.866C333.83 502.866 331.592 504.162 331.592 505.777Z" fill="#FF731D"/>
<path d="M380.637 422.18C380.166 422.18 379.795 421.81 379.795 421.338C379.795 420.329 379.61 419.319 379.24 418.343C379.072 417.905 379.307 417.417 379.745 417.265C380.182 417.097 380.67 417.333 380.822 417.753C381.26 418.932 381.478 420.127 381.478 421.338C381.478 421.81 381.108 422.18 380.637 422.18ZM377.321 414.673C377.102 414.673 376.884 414.589 376.715 414.404C376.008 413.664 375.2 412.957 374.292 412.3C373.921 412.031 373.837 411.509 374.106 411.122C374.376 410.752 374.914 410.668 375.285 410.937C376.278 411.661 377.17 412.435 377.944 413.243C378.264 413.579 378.247 414.118 377.91 414.438C377.742 414.606 377.523 414.673 377.321 414.673ZM370.421 409.961C370.303 409.961 370.185 409.944 370.067 409.894C369.091 409.456 368.064 409.052 367.021 408.699C366.583 408.547 366.348 408.076 366.482 407.638C366.634 407.201 367.105 406.965 367.543 407.1C368.653 407.47 369.731 407.891 370.757 408.362C371.178 408.564 371.363 409.052 371.178 409.473C371.043 409.776 370.74 409.961 370.421 409.961ZM362.392 407.453C362.342 407.453 362.291 407.453 362.224 407.436C361.164 407.234 360.07 407.066 358.959 406.948C358.504 406.898 358.168 406.477 358.218 406.023C358.269 405.568 358.673 405.231 359.144 405.282C360.289 405.417 361.433 405.585 362.544 405.804C362.998 405.888 363.301 406.342 363.217 406.797C363.15 407.184 362.796 407.453 362.392 407.453ZM354.028 406.662H353.994C353.523 406.662 353.152 406.292 353.152 405.821C353.152 405.349 353.523 404.979 353.994 404.979C354.465 404.979 354.852 405.349 354.852 405.821C354.852 406.292 354.499 406.662 354.028 406.662Z" fill="#EB4680"/>
<path d="M507.051 460.335L513.363 464.543L517.57 457.39L507.051 460.335Z" fill="#FF731D"/>
<path d="M12.9376 316.012L6.62612 311.805L2.41846 318.958L12.9376 316.012Z" fill="#FF731D"/>
<path d="M620.658 203.129C620.187 203.129 619.817 202.759 619.817 202.288V198.921C619.817 198.45 620.187 198.08 620.658 198.08C621.129 198.08 621.5 198.45 621.5 198.921V202.288C621.5 202.742 621.129 203.129 620.658 203.129ZM620.658 194.714C620.187 194.714 619.817 194.344 619.817 193.872V190.506C619.817 190.035 620.187 189.665 620.658 189.665C621.129 189.665 621.5 190.035 621.5 190.506V193.872C621.5 194.327 621.129 194.714 620.658 194.714ZM620.658 186.298C620.187 186.298 619.817 185.928 619.817 185.457V182.091C619.817 181.62 620.187 181.249 620.658 181.249C621.129 181.249 621.5 181.62 621.5 182.091V185.457C621.5 185.911 621.129 186.298 620.658 186.298ZM620.658 177.883C620.187 177.883 619.817 177.513 619.817 177.042V173.676C619.817 173.204 620.187 172.834 620.658 172.834C621.129 172.834 621.5 173.204 621.5 173.676V177.042C621.5 177.496 621.129 177.883 620.658 177.883ZM620.658 169.468C620.187 169.468 619.817 169.098 619.817 168.626V165.26C619.817 164.789 620.187 164.419 620.658 164.419C621.129 164.419 621.5 164.789 621.5 165.26V168.626C621.5 169.081 621.129 169.468 620.658 169.468ZM620.658 161.053C620.187 161.053 619.817 160.682 619.817 160.211V159.908C619.817 158.966 619.749 157.973 619.615 156.963C619.547 156.508 619.884 156.071 620.338 156.02C620.776 155.953 621.214 156.273 621.281 156.744C621.415 157.821 621.5 158.881 621.5 159.908V160.211C621.5 160.665 621.129 161.053 620.658 161.053ZM619.328 152.772C618.975 152.772 618.638 152.553 618.521 152.183C618.184 151.156 617.797 150.129 617.342 149.12C617.157 148.699 617.342 148.194 617.763 148.009C618.184 147.824 618.689 148.009 618.874 148.43C619.345 149.49 619.766 150.567 620.103 151.661C620.237 152.099 620.002 152.57 619.564 152.721C619.497 152.755 619.413 152.772 619.328 152.772ZM615.71 145.198C615.441 145.198 615.171 145.063 615.003 144.828C614.38 143.902 613.724 143.027 613.034 142.236C612.731 141.882 612.765 141.361 613.118 141.041C613.471 140.738 613.993 140.772 614.313 141.125C615.054 141.967 615.76 142.909 616.417 143.902C616.669 144.289 616.568 144.811 616.181 145.063C616.03 145.164 615.861 145.198 615.71 145.198ZM609.937 139.139C609.769 139.139 609.617 139.089 609.466 138.988C609.196 138.802 608.927 138.634 608.641 138.466L606.621 137.288C606.217 137.052 606.083 136.547 606.318 136.143C606.554 135.739 607.076 135.605 607.463 135.84L609.483 137.018C609.785 137.204 610.105 137.389 610.408 137.591C610.795 137.843 610.896 138.382 610.627 138.752C610.476 139.004 610.206 139.139 609.937 139.139ZM602.683 134.898C602.532 134.898 602.397 134.864 602.262 134.78L599.351 133.097C598.947 132.861 598.812 132.356 599.048 131.952C599.283 131.548 599.805 131.414 600.192 131.649L603.104 133.332C603.508 133.568 603.642 134.073 603.407 134.477C603.255 134.746 602.969 134.898 602.683 134.898ZM595.395 130.69C595.261 130.69 595.109 130.656 594.975 130.572L592.063 128.889C591.659 128.654 591.524 128.149 591.76 127.745C591.996 127.341 592.517 127.206 592.904 127.442L595.816 129.125C596.22 129.36 596.355 129.865 596.119 130.269C595.968 130.539 595.681 130.69 595.395 130.69ZM588.108 126.466C587.956 126.466 587.822 126.432 587.687 126.348L584.775 124.665C584.371 124.429 584.237 123.924 584.472 123.52C584.708 123.116 585.23 122.982 585.617 123.217L588.528 124.9C588.932 125.136 589.067 125.641 588.831 126.045C588.68 126.314 588.394 126.466 588.108 126.466ZM580.82 122.258C580.685 122.258 580.534 122.224 580.399 122.14L577.488 120.457C577.084 120.221 576.949 119.716 577.185 119.313C577.42 118.909 577.942 118.774 578.329 119.01L581.241 120.693C581.645 120.928 581.779 121.433 581.544 121.837C581.392 122.106 581.123 122.258 580.82 122.258ZM573.549 118.033C573.415 118.033 573.263 118 573.128 117.916L572.051 117.293C571.647 117.057 571.513 116.552 571.748 116.148C571.984 115.744 572.506 115.61 572.893 115.845L573.97 116.468C574.374 116.704 574.508 117.209 574.273 117.613C574.121 117.899 573.835 118.033 573.549 118.033Z" fill="#A8CFF0"/>
<path d="M606.773 190.826C606.302 190.826 605.932 190.456 605.932 189.985V186.618C605.932 186.147 606.302 185.777 606.773 185.777C607.244 185.777 607.615 186.147 607.615 186.618V189.985C607.615 190.456 607.244 190.826 606.773 190.826ZM606.773 182.411C606.302 182.411 605.932 182.04 605.932 181.569V178.203C605.932 177.732 606.302 177.362 606.773 177.362C607.244 177.362 607.615 177.732 607.615 178.203V181.569C607.615 182.04 607.244 182.411 606.773 182.411ZM606.773 173.995C606.302 173.995 605.932 173.625 605.932 173.154V169.788C605.932 169.317 606.302 168.946 606.773 168.946C607.244 168.946 607.615 169.317 607.615 169.788V173.154C607.615 173.625 607.244 173.995 606.773 173.995ZM606.773 165.58C606.302 165.58 605.932 165.21 605.932 164.739V163.88C605.932 163.123 605.864 162.332 605.713 161.524C605.629 161.07 605.948 160.632 606.403 160.548C606.874 160.464 607.295 160.783 607.379 161.238C607.53 162.147 607.615 163.022 607.615 163.88V164.739C607.615 165.21 607.244 165.58 606.773 165.58ZM605.006 157.434C604.686 157.434 604.383 157.266 604.248 156.946C603.777 155.953 603.222 155.027 602.616 154.186C602.347 153.815 602.431 153.277 602.801 153.008C603.171 152.738 603.71 152.822 603.979 153.193C604.652 154.118 605.258 155.128 605.763 156.222C605.965 156.643 605.78 157.148 605.359 157.35C605.258 157.4 605.141 157.434 605.006 157.434ZM599.216 150.954L596.321 149.288C595.917 149.052 595.783 148.547 596.018 148.144C596.254 147.74 596.776 147.605 597.163 147.841L600.058 149.507L599.216 150.954ZM592.383 146.881C592.248 146.881 592.097 146.848 591.962 146.763L589.05 145.08C588.646 144.845 588.512 144.34 588.747 143.936C588.983 143.532 589.505 143.397 589.892 143.633L592.804 145.316C593.208 145.552 593.342 146.057 593.107 146.461C592.955 146.73 592.669 146.881 592.383 146.881ZM585.095 142.657C584.961 142.657 584.809 142.623 584.674 142.539L581.763 140.856C581.359 140.62 581.224 140.115 581.46 139.711C581.695 139.307 582.217 139.173 582.604 139.408L585.516 141.092C585.92 141.327 586.055 141.832 585.819 142.236C585.667 142.505 585.381 142.657 585.095 142.657ZM577.808 138.449C577.656 138.449 577.521 138.415 577.387 138.331L576.663 137.911C576.259 137.675 576.124 137.17 576.36 136.766C576.596 136.362 577.117 136.227 577.505 136.463L578.228 136.884C578.632 137.12 578.767 137.624 578.531 138.028C578.38 138.298 578.094 138.449 577.808 138.449Z" fill="#EB4680"/>
<path d="M101.063 412.165C100.76 412.165 100.474 412.014 100.322 411.728C100.104 411.324 100.238 410.819 100.642 410.583L103.588 408.951C103.992 408.732 104.513 408.867 104.732 409.271C104.951 409.674 104.816 410.179 104.412 410.415L101.484 412.048C101.349 412.132 101.198 412.165 101.063 412.165ZM96.6534 411.795C96.5187 411.795 96.3672 411.761 96.2494 411.694L93.3041 410.062C92.9001 409.843 92.7486 409.321 92.9843 408.917C93.2031 408.513 93.7248 408.362 94.1288 408.597L97.0741 410.23C97.4781 410.449 97.6295 410.97 97.3939 411.374C97.2424 411.627 96.9563 411.795 96.6534 411.795ZM108.418 408.059C108.132 408.059 107.846 407.907 107.677 407.621C107.459 407.217 107.593 406.712 107.997 406.477L110.943 404.844C111.347 404.625 111.868 404.76 112.087 405.164C112.306 405.568 112.171 406.073 111.767 406.308L108.822 407.941C108.687 408.025 108.553 408.059 108.418 408.059ZM89.2984 407.705C89.1637 407.705 89.0122 407.672 88.8944 407.604L85.9491 405.972C85.5451 405.753 85.3937 405.231 85.6293 404.827C85.8481 404.423 86.3698 404.272 86.7738 404.507L89.7023 406.123C90.1062 406.342 90.2577 406.864 90.0221 407.268C89.8874 407.554 89.5845 407.705 89.2984 407.705ZM115.756 403.952C115.47 403.952 115.184 403.801 115.016 403.514C114.797 403.111 114.931 402.589 115.335 402.37L118.281 400.737C118.685 400.519 119.19 400.653 119.425 401.057C119.644 401.461 119.509 401.983 119.105 402.202L116.16 403.834C116.042 403.918 115.908 403.952 115.756 403.952ZM81.9434 403.615C81.8087 403.615 81.6573 403.582 81.5394 403.514L78.5941 401.882C78.1902 401.663 78.0387 401.141 78.2743 400.737C78.4931 400.333 79.0148 400.182 79.4188 400.418L82.3641 402.05C82.7681 402.269 82.9196 402.791 82.6839 403.195C82.5156 403.464 82.2295 403.615 81.9434 403.615ZM123.111 399.862C122.825 399.862 122.539 399.711 122.371 399.425C122.152 399.021 122.286 398.499 122.69 398.28L122.892 398.162C123.296 397.944 123.818 398.078 124.037 398.482C124.256 398.886 124.121 399.408 123.717 399.627L123.515 399.744C123.397 399.829 123.246 399.862 123.111 399.862Z" fill="#EB4680"/>
</g>
<defs>
<clipPath id="clip0_257_2501">
<rect width="621" height="530.199" fill="white" transform="translate(0.5)"/>
</clipPath>
</defs>
</svg>
