<svg width="437" height="337" viewBox="0 0 437 337" fill="none" xmlns="http://www.w3.org/2000/svg">
<path d="M27.4621 52.7012C2.91334 84.6791 -4.15545 108.589 2.21323 138.013L28.2074 229.766C22.855 204.139 25.2037 180.929 53.4337 144.454C47.0198 121.855 38.5057 91.7301 32.0918 69.1308C30.7142 64.2042 28.8397 57.6278 27.4621 52.7012Z" fill="#E35600"/>
<path d="M2.23581 138.013C22.8776 195.144 96.4788 219.393 199.078 202.85C195.487 190.127 190.677 173.178 187.063 160.454C209.896 165.946 279.364 182.624 370.919 172.387C339.663 239.868 303.371 284.479 237.041 337C233.451 324.276 228.64 307.327 225.027 294.603C122.247 311.078 48.6685 286.852 28.1848 229.766L2.23581 138.013Z" fill="#FF731D"/>
<path d="M185.938 105.946C208.952 92.2672 216.527 62.5091 202.857 39.4796C189.187 16.4501 159.449 8.87003 136.435 22.549C113.422 36.2279 105.847 65.986 119.516 89.0155C133.186 112.045 162.924 119.625 185.938 105.946Z" fill="#3A98B9"/>
<path d="M215.045 115.686C47.0424 190.896 10.2531 1.19776 9.91438 0H9.89179C9.89179 0 8.40125 92.5213 69.92 175.935C230.492 393.679 361.931 322.401 361.931 322.401C365.86 321.158 369.542 319.44 372.929 317.316C268.275 308.706 223.265 57.0179 437 94.4875C377.536 46.3059 318.931 69.1763 215.045 115.686Z" fill="#3A98B9"/>
<path d="M301.338 260.592C264.097 186.105 285.845 68.0011 437 94.4875C377.536 46.3059 318.931 69.1763 215.045 115.686C47.0424 190.896 10.2531 1.19776 9.91437 0C9.91437 0 26.22 231.755 301.338 260.592Z" fill="#2E7A94"/>
<path d="M31.5498 180.997C26.3103 182.873 20.8676 184.025 15.3571 184.364L28.2074 229.766C24.8876 213.834 24.5488 198.828 31.5498 180.997Z" fill="#E35600"/>
<path d="M187.086 160.455C190.699 173.178 195.487 190.127 199.1 202.851C127.057 214.467 69.4006 205.902 34.2599 180.026C28.23 182.534 21.8387 183.958 15.3797 184.365L28.23 229.766C48.7137 286.852 122.315 311.101 225.072 294.604C228.663 307.327 233.473 324.277 237.087 337C303.416 284.502 339.686 239.891 370.964 172.387C279.386 182.624 209.896 165.946 187.086 160.455Z" fill="#FF731D"/>
</svg>
