<svg width="41" height="14" viewBox="0 0 41 14" fill="none" xmlns="http://www.w3.org/2000/svg">
<g clip-path="url(#clip0_536_12617)">
<path d="M7.75266 0.500977C7.17709 0.500977 6.8418 0.94057 6.8418 1.57031V1.97721V5.96991V6.38834C6.8418 7.00407 7.17709 7.45022 7.75266 7.45022C8.31731 7.45022 8.66754 7.00407 8.66754 6.38834V5.96991V1.97721V1.57031C8.66754 0.94057 8.31727 0.500977 7.75266 0.500977Z" fill="#1756C2"/>
<path d="M12.0328 2.40887H11.6037V2.14459C11.6037 1.84807 11.7781 1.72316 12.2394 1.77505C12.7304 1.82027 12.8408 1.51078 12.8408 1.26352C12.8408 1.07226 12.7843 0.975149 12.6353 0.803908C12.3172 0.491448 11.5123 0.500714 11.5123 0.500714C11.5123 0.500714 10.7826 0.467356 10.2879 0.85654C9.79506 1.23535 9.83809 1.92509 9.83809 1.92509V2.40876H9.75914C9.4317 2.40876 9.08398 2.61076 9.08398 3.02515C9.08398 3.44254 9.47844 3.63384 9.79502 3.63384H9.83806V6.50932C9.83806 7.00384 10.1442 7.45 10.7478 7.45C11.3638 7.45 11.6036 7.01785 11.6036 6.53719V3.63384H12.0328C12.27 3.63384 12.7412 3.5193 12.7412 3.04935C12.7412 2.56147 12.3696 2.40876 12.0328 2.40876" fill="#1756C2"/>
<path d="M17.182 2.24951C16.8868 2.24951 16.6506 2.38109 16.496 2.5805C16.212 2.38517 15.8378 2.24951 15.4015 2.24951C13.5424 2.24951 12.7188 3.63386 12.7188 4.97047C12.7188 6.40148 13.7194 7.50858 15.4015 7.50858C15.8001 7.50858 16.184 7.377 16.4938 7.17499C16.6453 7.37959 16.883 7.50858 17.182 7.50858C17.7602 7.50858 18.0898 7.06717 18.0898 6.44411V3.31769C18.0898 2.70534 17.7602 2.24951 17.182 2.24951ZM14.5244 4.90142C14.5244 3.76277 15.0823 3.56088 15.4569 3.56088C15.4718 3.56088 15.4905 3.56088 15.5036 3.56088C15.9343 3.59424 16.2734 3.87853 16.2734 4.95071C16.2734 6.00566 15.9059 6.21697 15.5249 6.23802C15.5024 6.23802 15.4912 6.23802 15.4673 6.23802C15.0395 6.23802 14.5243 6.03602 14.5243 4.90142" fill="#1756C2"/>
<path d="M6.13704 6.08136C6.04237 5.79967 4.50616 1.46156 4.42985 1.25692C4.34528 1.05121 4.26745 0.902205 4.08184 0.773663C3.77498 0.543117 3.11791 0.556832 3.11791 0.556832C3.11791 0.556832 2.4697 0.542006 2.15723 0.773663C1.97462 0.902279 1.89678 1.05128 1.81633 1.25692C1.73849 1.46152 0.202353 5.7997 0.096451 6.08136C0.0103821 6.35676 -0.0640858 6.69409 0.096451 6.96907C0.272704 7.22668 0.563391 7.45014 0.939099 7.45014C1.32008 7.45014 1.65803 7.28631 1.80551 6.82682C1.94921 6.35676 2.02442 6.12699 2.02442 6.12699H3.11791H4.2173C4.2173 6.12699 4.28878 6.35679 4.4336 6.82682C4.57842 7.28643 4.92456 7.45014 5.29514 7.45014C5.68496 7.45014 5.9829 7.22664 6.13712 6.96907C6.30402 6.69405 6.23928 6.35676 6.13712 6.08136H6.13704ZM2.43748 4.63282L3.11791 2.4327L3.80039 4.63282H2.43748Z" fill="#1756C2"/>
<path d="M38.6104 12.6746H0V13.5001H38.6104C39.7951 13.5001 40.7875 12.6375 40.9686 11.52C40.4377 12.2231 39.5737 12.6746 38.6104 12.6746Z" fill="#EFCF00"/>
<path d="M40.9982 9.74072V9.0791H2.39499C1.07709 9.0791 0 10.1468 0 11.4534V12.115H38.6104C39.9306 12.115 40.9982 11.0457 40.9982 9.74072Z" fill="#D60F27"/>
<path d="M25.979 2.19609C25.0023 2.19609 24.0525 3.49152 23.7158 3.99271C23.7308 3.87855 23.7558 3.70435 23.8097 3.50523C23.8808 3.17535 23.9426 2.70803 23.7158 2.43264C23.5829 2.27326 23.3872 2.19616 23.1245 2.19616C22.2201 2.19616 21.3265 3.33899 20.9444 3.89823C20.9897 3.73478 21.0436 3.53018 21.0799 3.41198C21.139 3.13695 21.2558 2.70811 21.0687 2.45821C20.9571 2.30402 20.7734 2.23471 20.513 2.23471C20.0875 2.23471 19.6141 2.43264 19.5943 2.43264L19.4978 2.47564L19.5861 2.52716C19.5861 2.52716 19.7163 2.65614 19.616 3.33888C19.4442 4.53898 19.0487 5.96973 18.8946 6.53724C18.8059 6.82672 18.8194 7.06312 18.9361 7.21991C19.0592 7.37966 19.2834 7.47121 19.563 7.47121C19.9529 7.47121 20.3073 7.34222 20.3271 7.32369L20.3848 7.30886L20.3391 7.25067C20.3391 7.24696 20.1355 6.94748 20.4038 6.36559C21.3079 4.37363 22.0388 3.58044 22.243 3.44511C22.2913 3.42287 22.3194 3.39619 22.3542 3.39619C22.3766 3.39619 22.3879 3.41101 22.3879 3.42213C22.4103 3.43325 22.4141 3.48218 22.4103 3.52703C22.3366 4.21937 22.0413 5.37554 21.8514 6.14869C21.8106 6.32549 21.7668 6.4693 21.7436 6.59013C21.674 6.88628 21.6972 7.11605 21.8106 7.26876C21.9236 7.39515 22.1062 7.46817 22.3647 7.46817C22.77 7.46817 23.1285 7.32065 23.1431 7.31806L23.2168 7.2884L23.1618 7.23911C23.1618 7.22057 22.9661 6.96779 23.2408 6.3518C23.909 4.81956 24.8116 3.62236 25.0463 3.44819C25.1256 3.39296 25.166 3.38592 25.19 3.38592C25.1975 3.38592 25.2012 3.38592 25.2162 3.40816C25.2349 3.42669 25.2424 3.4923 25.2349 3.57162C25.2312 3.60127 25.205 3.69653 25.184 3.83849C25.05 4.36881 24.8124 5.46524 24.6822 6.22808C24.6044 6.68361 24.6422 7.02491 24.8124 7.2192C24.9505 7.37599 25.1668 7.46754 25.4296 7.46754C25.8883 7.46754 26.3123 7.18436 26.331 7.17398L26.398 7.12876L26.3366 7.08762C26.3366 7.08762 26.0118 6.78443 26.1712 5.89042C26.2842 5.29103 26.4301 4.60166 26.5402 4.10046C26.5925 3.84916 26.6262 3.64048 26.6543 3.52632L26.6618 3.48147C26.7205 3.20645 26.8092 2.70425 26.569 2.41959C26.4417 2.25502 26.2498 2.19238 25.983 2.19238" fill="#D60F27"/>
<path d="M31.6868 2.24966C31.4095 2.24966 31.1839 2.32305 31.0297 2.47131C30.9167 2.40237 30.5316 2.19629 30.0261 2.19629C29.7376 2.19629 29.3135 2.24966 28.8376 2.54841C28.3091 2.87273 27.8635 3.39086 27.5001 4.10037C26.678 5.68828 27.072 6.84797 27.2786 7.13263C27.4586 7.37986 27.7078 7.49142 28.0674 7.49142C28.5759 7.49142 29.2521 7.2935 30.2835 5.68828C30.2535 5.91437 30.2195 6.23199 30.2195 6.5029C30.2195 7.37726 30.8414 7.47141 31.0978 7.47141C31.762 7.47141 31.9936 7.16451 31.9955 7.15413L32.0217 7.12077L31.9955 7.08741C31.988 7.07629 31.686 6.77088 31.8847 5.14449C32.0763 3.59513 32.6192 2.52698 32.6192 2.5139L32.6454 2.47091L32.5994 2.44125C32.5807 2.43384 32.1328 2.25 31.6875 2.25L31.6868 2.24966ZM28.8174 6.30082C28.6819 6.30082 28.6097 6.07101 28.6097 5.83046C28.6097 5.56989 28.7411 4.06982 29.3821 3.30042C29.5243 3.15068 29.6935 3.05616 29.8623 3.05616C30.2728 3.05616 30.6567 3.49157 30.7518 3.60362C30.2541 4.60549 29.555 5.64332 29.0576 6.15185C28.9663 6.25304 28.878 6.30082 28.8174 6.30082Z" fill="#D60F27"/>
<path d="M36.7835 2.19629C36.0654 2.19629 35.2032 3.37352 34.8383 3.91956C34.8985 3.68346 34.9872 3.33534 35.0553 3.01473C35.1025 2.77454 35.0703 2.58699 34.9764 2.46097C34.8529 2.32309 34.6493 2.2497 34.3646 2.2497C33.9571 2.2497 33.4649 2.42613 33.4474 2.4328L33.3759 2.46245L33.4391 2.51583C33.4391 2.52324 33.572 2.70968 33.49 3.3647C33.3759 4.07824 32.9175 5.85733 32.7241 6.57754C32.6354 6.86702 32.6571 7.07822 32.7645 7.22833C32.928 7.44776 33.2461 7.47297 33.465 7.47297C33.8373 7.47297 34.2078 7.34398 34.2239 7.32545L34.295 7.31062L34.2523 7.25243C34.2497 7.24872 34.075 6.97296 34.2785 6.44029C34.8271 5.06892 35.4367 4.2679 35.8027 3.99291C35.8872 3.93435 35.9733 3.8984 36.0579 3.8984C36.2588 3.8984 36.3864 4.1219 36.3864 4.1219L36.4164 4.17787L36.4609 4.13265C36.6525 3.94399 36.9945 3.54357 37.1191 3.1823C37.2052 2.96584 37.3167 2.58069 37.1491 2.35723C37.0795 2.24566 36.9549 2.19636 36.7831 2.19636" fill="#D60F27"/>
<path d="M40.93 2.84083C40.7287 2.90977 40.2339 2.95499 39.5697 2.95499C39.4949 2.95499 39.4331 2.95499 39.3916 2.95499C39.4215 2.78486 39.5417 2.30409 39.6719 1.84826C39.7538 1.57324 39.7445 1.34747 39.6274 1.2014C39.5121 1.06166 39.3231 0.999023 39.0361 0.999023C38.6334 0.999023 38.0539 1.17731 38.0313 1.18769L37.9452 1.21363L38.0193 1.28035C38.2416 1.5057 38.0006 2.59172 37.897 2.99539C37.8857 3.01763 37.3203 5.17186 37.3203 6.20142C37.3203 7.06508 37.7978 7.49318 38.7127 7.49318C39.1394 7.49318 39.7617 7.37902 40.18 7.01986C40.3626 6.86344 40.4431 6.63998 40.3948 6.40346C40.3686 6.23371 40.2837 6.10064 40.2837 6.09397L40.2537 6.03133L40.2002 6.08063C40.1927 6.08063 40.0045 6.2641 39.6283 6.39012C39.4865 6.43126 39.375 6.45943 39.2597 6.45943C39.1389 6.45943 39.0371 6.41014 38.9417 6.33045C38.7299 6.1151 38.8664 5.34599 38.9117 5.09873C38.9828 4.70814 39.1568 3.98125 39.1946 3.79926C39.2605 3.79926 39.3986 3.79663 39.5756 3.79663C39.7275 3.79663 39.8574 3.79926 39.9846 3.79926C40.7719 3.81409 40.9924 3.20807 41.0002 2.88787V2.80781L40.93 2.84083Z" fill="#D60F27"/>
</g>
<defs>
<clipPath id="clip0_536_12617">
<rect width="41" height="13" fill="white" transform="translate(0 0.5)"/>
</clipPath>
</defs>
</svg>
