<svg width="32" height="32" viewBox="0 0 32 32" fill="none" xmlns="http://www.w3.org/2000/svg">
<path d="M29.7143 5H2.28571C1.67951 5 1.09812 5.23193 0.66947 5.64477C0.240816 6.05761 0 6.61753 0 7.20138V24.7986C0 25.3825 0.240816 25.9424 0.66947 26.3552C1.09812 26.7681 1.67951 27 2.28571 27H29.7143C30.3205 27 30.9019 26.7681 31.3305 26.3552C31.7592 25.9424 32 25.3825 32 24.7986V7.20138C32 6.61753 31.7592 6.05761 31.3305 5.64477C30.9019 5.23193 30.3205 5 29.7143 5ZM17.1429 22.611H14.8571C14.554 22.611 14.2633 22.495 14.049 22.2886C13.8347 22.0822 13.7143 21.8022 13.7143 21.5103C13.7143 21.2184 13.8347 20.9384 14.049 20.732C14.2633 20.5256 14.554 20.4096 14.8571 20.4096H17.1429C17.446 20.4096 17.7367 20.5256 17.951 20.732C18.1653 20.9384 18.2857 21.2184 18.2857 21.5103C18.2857 21.8022 18.1653 22.0822 17.951 22.2886C17.7367 22.495 17.446 22.611 17.1429 22.611ZM26.2857 22.611H21.7143C21.4112 22.611 21.1205 22.495 20.9062 22.2886C20.6918 22.0822 20.5714 21.8022 20.5714 21.5103C20.5714 21.2184 20.6918 20.9384 20.9062 20.732C21.1205 20.5256 21.4112 20.4096 21.7143 20.4096H26.2857C26.5888 20.4096 26.8795 20.5256 27.0938 20.732C27.3082 20.9384 27.4286 21.2184 27.4286 21.5103C27.4286 21.8022 27.3082 22.0822 27.0938 22.2886C26.8795 22.495 26.5888 22.611 26.2857 22.611ZM2.28571 10.6273V7.20138H29.7143V10.6273H2.28571Z" fill="#334155"/>
</svg>
