<svg width="435" height="516" viewBox="0 0 435 516" fill="none" xmlns="http://www.w3.org/2000/svg">
<g clip-path="url(#clip0_257_484)">
<path d="M30.865 404.2C30.9762 404.255 31.106 404.292 31.2172 404.348C32.1997 404.754 33.349 404.514 34.0905 403.757L96.2095 341.36C96.9696 340.603 97.192 339.477 96.7842 338.48C96.7286 338.369 96.6915 338.24 96.6359 338.129L30.865 404.2Z" fill="#FF731D"/>
<path d="M24.5437 401.025C25.5818 401.634 26.8794 401.468 27.7136 400.637L93.0211 335.046C93.8553 334.197 94.0036 332.904 93.3918 331.889L93.3733 331.871L24.5437 401.025Z" fill="#FF731D"/>
<path d="M18.927 397.148C19.4461 397.554 19.9651 397.979 20.5027 398.366L90.667 327.902C90.2591 327.366 89.8513 326.849 89.425 326.333L18.927 397.148Z" fill="#FF731D"/>
<path d="M46.1399 407.91C46.6219 407.947 47.1224 407.984 47.6229 408.003C48.3644 408.04 49.0874 407.744 49.6249 407.227L99.8244 356.792C100.343 356.257 100.64 355.537 100.584 354.799C100.547 354.3 100.51 353.82 100.473 353.34L46.1399 407.91Z" fill="#FF731D"/>
<path d="M68.1252 404.864C69.6824 404.274 71.221 403.609 72.704 402.871C72.9635 402.742 73.223 402.557 73.427 402.354L95.1343 380.552C95.3382 380.349 95.5236 380.09 95.6534 379.832C96.3763 378.355 97.0437 376.823 97.6183 375.253L68.1252 404.864Z" fill="#FF731D"/>
<path d="M37.9834 406.581C38.2615 406.655 38.5395 406.711 38.8176 406.784C39.7074 406.988 40.6528 406.711 41.3016 406.046L98.5824 348.522C99.2312 347.876 99.5092 346.935 99.2868 346.049C99.2126 345.772 99.157 345.495 99.0829 345.218L37.9834 406.581Z" fill="#FF731D"/>
<path d="M55.7051 407.8C56.5207 407.707 57.3178 407.597 58.1149 407.467C58.6711 407.375 59.1901 407.117 59.5794 406.71L99.4164 366.706C99.8057 366.3 100.084 365.801 100.158 365.248C100.269 364.454 100.38 363.66 100.455 362.848L55.7051 407.8Z" fill="#FF731D"/>
<path d="M9.62109 387.474C10.0104 388.01 10.4182 388.545 10.826 389.062L81.2498 318.339C80.7308 317.932 80.1932 317.526 79.6556 317.139L9.62109 387.474Z" fill="#FF731D"/>
<path d="M1.37203 348.153C0.982744 348.541 0.723219 349.039 0.630532 349.574C0.50077 350.387 0.371008 351.217 0.27832 352.048L44.0082 308.13C43.174 308.241 42.3398 308.351 41.5242 308.499C40.9866 308.591 40.4861 308.868 40.0968 309.256L1.37203 348.153Z" fill="#FF731D"/>
<path d="M6.32137 333.661C6.136 333.846 5.96916 334.067 5.8394 334.307C4.98668 335.913 4.2081 337.575 3.52222 339.273L31.1986 311.49C29.4932 312.191 27.8434 312.967 26.2306 313.834C25.9896 313.963 25.7857 314.13 25.5818 314.314L6.32137 333.661Z" fill="#FF731D"/>
<path d="M0.778711 358.288C0.259663 358.805 -0.0183992 359.525 0.000138226 360.245C0.0186757 360.762 0.0557506 361.26 0.0928255 361.777L53.7588 307.872C53.2583 307.835 52.7392 307.816 52.2202 307.798C51.4787 307.779 50.7742 308.056 50.2552 308.573L0.778711 358.288Z" fill="#FF731D"/>
<path d="M4.18966 373.887C3.44816 374.626 3.20717 375.752 3.59646 376.712C3.65207 376.841 3.70768 376.989 3.76329 377.118L69.2005 311.398C69.0708 311.342 68.9225 311.287 68.7927 311.231C67.8102 310.844 66.698 311.102 65.9565 311.841L4.18966 373.887Z" fill="#FF731D"/>
<path d="M7.32233 380.275C6.48815 381.105 6.33985 382.398 6.93305 383.413L6.95158 383.45L75.5958 314.517C74.5577 313.908 73.223 314.093 72.3888 314.942L7.32233 380.275Z" fill="#FF731D"/>
<path d="M84.8645 321.422L13.9587 392.625C14.4222 393.105 14.8856 393.567 15.349 394.028L86.2734 322.788C85.8285 322.326 85.3465 321.865 84.8645 321.422Z" fill="#FF731D"/>
<path d="M1.92811 366.65C1.29784 367.297 1.00124 368.22 1.20515 369.087C1.2793 369.383 1.33491 369.678 1.40906 369.955L62.008 309.09C61.7114 309.016 61.4148 308.961 61.1182 308.887C60.2284 308.702 59.3201 308.979 58.6713 309.625L1.92811 366.65Z" fill="#FF731D"/>
<path d="M318.956 362.091C327.013 362.091 333.545 355.586 333.545 347.562C333.545 339.538 327.013 333.034 318.956 333.034C310.898 333.034 304.367 339.538 304.367 347.562C304.367 355.586 310.898 362.091 318.956 362.091Z" fill="#FFE9E9"/>
<path d="M271.704 115.732H61.1367V429.916H271.704V115.732Z" fill="#F0C27A"/>
<path d="M282.826 103.29H72.259V417.473H282.826V103.29Z" fill="white"/>
<path d="M169.544 307.429H104.922V312.967H169.544V307.429Z" fill="#FF731D"/>
<path d="M260.581 338.055H104.922V343.593H260.581V338.055Z" fill="#94A3C0"/>
<path d="M173.548 352.935H104.922V358.473H173.548V352.935Z" fill="#94A3C0"/>
<path d="M128.557 318.505H104.922V324.044H128.557V318.505Z" fill="#FF731D"/>
<path d="M254.501 297.054H100.566C95.8573 297.054 92.0571 293.251 92.0571 288.58V126.975C92.0571 122.286 95.8758 118.501 100.566 118.501H254.482C259.191 118.501 262.991 122.304 262.991 126.975V288.562C263.01 293.251 259.191 297.054 254.501 297.054Z" fill="#FF731D"/>
<mask id="mask0_257_484" style="mask-type:luminance" maskUnits="userSpaceOnUse" x="92" y="118" width="172" height="180">
<path d="M263.01 118.501H92.0571V297.054H263.01V118.501Z" fill="white"/>
</mask>
<g mask="url(#mask0_257_484)">
<path d="M256.688 313.853C255.446 302.814 251.257 267.701 247.142 260.409C242.248 251.733 196.182 232.478 196.182 232.478L176.44 244.957L156.623 232.589C156.623 232.589 110.669 252.102 105.831 260.797C101.752 268.107 97.7482 303.238 96.5803 314.296L256.688 313.853Z" fill="#235B6F"/>
<path d="M166.114 238.515L156.623 232.589L138.049 271.393L153.527 288.063L144.166 302.131L157.587 314.13L170.953 314.093L166.114 238.515Z" fill="#505E83"/>
<path d="M188.211 238.459L197.665 232.478L216.462 271.19L201.076 287.934L210.512 301.946L197.165 314.019L183.799 314.056L188.211 238.459Z" fill="#505E83"/>
<path d="M195.441 193.304C195.441 193.304 190.825 220.368 195.403 239.087C195.403 239.087 190.009 243.942 178.071 251.917L174.808 252.674C162.815 244.773 156.642 239.438 156.642 239.438C159.608 220.626 156.808 193.415 156.808 193.415" fill="#DC6457"/>
<path d="M160.015 145.454C160.015 145.454 198.332 122.119 213.422 134.82C228.511 147.521 208.621 167.053 208.621 167.053C208.621 167.053 214.645 168.53 215.035 173.403C215.424 178.277 205.673 186.548 205.673 186.548L145.093 186.714C145.093 186.714 134.879 168.751 135.991 160.13C137.103 151.509 144.648 160.481 144.648 160.481C144.648 160.481 152.879 140.968 156.642 140.968C160.386 140.968 160.015 145.454 160.015 145.454Z" fill="#5D1111"/>
<path d="M203.449 188.117C203.449 188.117 206.563 184.148 210.549 186.677C214.534 189.206 209.751 205.064 203.504 202.812C197.239 200.578 203.449 188.117 203.449 188.117Z" fill="#EA5764"/>
<path d="M148.318 188.283C148.318 188.283 145.186 184.332 141.219 186.88C137.252 189.428 142.127 205.248 148.355 202.978C154.584 200.707 148.318 188.283 148.318 188.283Z" fill="#EA5764"/>
<path d="M176.31 144.217C176.31 144.217 196.534 146.211 202.466 160.592C208.398 174.954 206.804 203.052 200.928 211.285C195.051 219.519 187.21 225.943 176.273 226.663H176.291C165.336 226.017 157.457 219.629 151.544 211.433C145.63 203.236 143.869 175.139 149.709 160.739C155.566 146.34 175.772 144.217 175.772 144.217H176.31Z" fill="#F98879"/>
<path d="M174.475 201.777C174.475 201.777 177.459 203.033 181 201.611C181 201.611 180.295 203.457 178.738 204.159C177.181 204.879 174.623 203.753 174.475 201.777Z" fill="#EA5764"/>
<path d="M208.621 167.053C208.621 167.053 187.97 181.341 172.899 178.019C157.847 174.696 169.08 160.425 169.08 160.425L151.062 174.345C151.062 174.345 154.844 183.704 145.834 190.849C145.834 190.849 143.536 178.48 145.019 169.49C146.502 160.499 151.748 152.229 155.492 149.22C159.255 146.211 173.14 138.679 182.186 139.786C191.251 140.875 209.696 145.325 208.621 167.053Z" fill="#5D1111"/>
<path d="M176.44 244.958L156.623 232.589C156.623 232.589 155.937 232.884 154.751 233.401L164.724 314.112L187.896 314.056L197.461 233.032C196.646 232.681 196.201 232.497 196.201 232.497L176.44 244.958Z" fill="#F9FBFC"/>
<path d="M174.567 253.246L169.896 263.621L177.292 267.277L183.317 262.255L178.59 252.914L174.567 253.246Z" fill="#FF8F4A"/>
<path d="M169.377 314.093L186.524 314.037L180.129 260.926L174.605 263.953L169.377 314.093Z" fill="#FF8F4A"/>
</g>
<path d="M114.284 374.534L116.527 381.438C116.638 381.789 116.971 382.029 117.342 382.029H124.627C125.462 382.029 125.795 383.081 125.128 383.579L119.233 387.844C118.936 388.065 118.807 388.453 118.918 388.804L121.161 395.708C121.42 396.502 120.512 397.148 119.845 396.668L113.95 392.404C113.653 392.182 113.245 392.182 112.949 392.404L107.054 396.668C106.387 397.148 105.478 396.502 105.738 395.708L107.981 388.804C108.092 388.453 107.962 388.065 107.666 387.844L101.771 383.579C101.103 383.099 101.437 382.029 102.271 382.029H109.557C109.927 382.029 110.261 381.789 110.372 381.438L112.615 374.534C112.912 373.758 114.024 373.758 114.284 374.534Z" fill="#FFAB77"/>
<path d="M147.707 374.534L149.95 381.438C150.061 381.789 150.395 382.029 150.765 382.029H158.051C158.885 382.029 159.218 383.081 158.551 383.579L152.656 387.844C152.36 388.065 152.23 388.453 152.341 388.804L154.584 395.708C154.844 396.502 153.935 397.148 153.268 396.668L147.373 392.404C147.076 392.182 146.669 392.182 146.372 392.404L140.477 396.668C139.81 397.148 138.901 396.502 139.161 395.708L141.404 388.804C141.515 388.453 141.385 388.065 141.089 387.844L135.194 383.579C134.527 383.099 134.86 382.029 135.694 382.029H142.98C143.35 382.029 143.684 381.789 143.795 381.438L146.038 374.534C146.335 373.758 147.447 373.758 147.707 374.534Z" fill="#FFAB77"/>
<path d="M181.13 374.534L183.373 381.438C183.484 381.789 183.818 382.029 184.188 382.029H191.474C192.308 382.029 192.642 383.081 191.974 383.579L186.079 387.844C185.783 388.065 185.653 388.453 185.764 388.804L188.007 395.708C188.267 396.502 187.358 397.148 186.691 396.668L180.796 392.404C180.499 392.182 180.092 392.182 179.795 392.404L173.9 396.668C173.233 397.148 172.324 396.502 172.584 395.708L174.827 388.804C174.938 388.453 174.808 388.065 174.512 387.844L168.617 383.579C167.95 383.099 168.283 382.029 169.117 382.029H176.403C176.773 382.029 177.107 381.789 177.218 381.438L179.461 374.534C179.758 373.758 180.87 373.758 181.13 374.534Z" fill="#FFAB77"/>
<path d="M214.553 374.534L216.796 381.438C216.907 381.789 217.241 382.029 217.611 382.029H224.897C225.731 382.029 226.064 383.081 225.397 383.579L219.502 387.844C219.206 388.065 219.076 388.453 219.187 388.804L221.43 395.708C221.69 396.502 220.781 397.148 220.114 396.668L214.219 392.404C213.922 392.182 213.515 392.182 213.218 392.404L207.323 396.668C206.656 397.148 205.747 396.502 206.007 395.708L208.25 388.804C208.361 388.453 208.231 388.065 207.935 387.844L202.04 383.579C201.372 383.099 201.706 382.029 202.54 382.029H209.826C210.196 382.029 210.53 381.789 210.641 381.438L212.884 374.534C213.181 373.758 214.293 373.758 214.553 374.534Z" fill="#FFAB77"/>
<path d="M247.976 374.534L250.219 381.438C250.33 381.789 250.664 382.029 251.034 382.029H258.32C259.154 382.029 259.487 383.081 258.82 383.579L252.925 387.844C252.629 388.065 252.499 388.453 252.61 388.804L254.853 395.708C255.113 396.502 254.204 397.148 253.537 396.668L247.642 392.404C247.345 392.182 246.938 392.182 246.641 392.404L240.746 396.668C240.079 397.148 239.17 396.502 239.43 395.708L241.673 388.804C241.784 388.453 241.654 388.065 241.358 387.844L235.463 383.579C234.796 383.099 235.129 382.029 235.963 382.029H243.249C243.619 382.029 243.953 381.789 244.064 381.438L246.307 374.534C246.604 373.758 247.716 373.758 247.976 374.534Z" fill="#FFAB77"/>
<path d="M34.2946 119.461H23.1721V130.538H34.2946V119.461Z" fill="#235B6F"/>
<path d="M51.4046 143.423H45.6765V149.128H51.4046V143.423Z" fill="#235B6F"/>
<path d="M19.3533 135.024H15.1824V139.177H19.3533V135.024Z" fill="#235B6F"/>
<path d="M419.021 185.625H278.303V272.815H419.021V185.625Z" fill="white"/>
<path d="M330.245 196.018H407.546V231.315" stroke="#235B6F" stroke-width="1.1246" stroke-miterlimit="10"/>
<path d="M266.828 219.537V196.018H289.592" stroke="#235B6F" stroke-width="2.2492" stroke-miterlimit="10"/>
<path d="M297.934 283.208H266.828V232.7" stroke="#235B6F" stroke-width="1.1246" stroke-miterlimit="10"/>
<path d="M407.546 257.788V283.208H333.897" stroke="#235B6F" stroke-width="2.2492" stroke-miterlimit="10"/>
<path d="M381.909 185.625H417.426" stroke="#235B6F" stroke-width="1.1246" stroke-linecap="round" stroke-linejoin="round"/>
<path d="M422.487 196.701V224.392" stroke="#235B6F" stroke-width="1.1246" stroke-linecap="round" stroke-linejoin="round"/>
<path d="M335.973 225.075C341.153 225.075 345.353 220.893 345.353 215.734C345.353 210.575 341.153 206.393 335.973 206.393C330.793 206.393 326.593 210.575 326.593 215.734C326.593 220.893 330.793 225.075 335.973 225.075Z" fill="#FFAB77"/>
<path d="M388.434 231.998H291.149V235.45H388.434V231.998Z" fill="#FF731D"/>
<path d="M361.684 243.074H317.899V246.526H361.684V243.074Z" fill="#94A3C0"/>
<path d="M368.858 254.151H310.743V257.603H368.858V254.151Z" fill="#94A3C0"/>
<path d="M312.993 425.206L323.529 415.644L310.73 401.658L300.194 411.221L312.993 425.206Z" fill="#A6D0F4"/>
<path opacity="0.53" d="M315.504 372.727C316.679 347.795 297.337 326.635 272.302 325.465C247.267 324.294 226.02 343.556 224.844 368.488C223.669 393.419 243.011 414.579 268.046 415.749C293.081 416.92 314.328 397.658 315.504 372.727Z" fill="white"/>
<path d="M316.601 321.976C291.798 298.438 252.925 297.183 226.62 319.428" stroke="#4361C4" stroke-width="0.8539" stroke-linecap="round" stroke-linejoin="round"/>
<path d="M228.826 408.114C249.625 430.857 285.013 432.482 307.833 411.769C330.671 391.056 332.302 355.814 311.503 333.089C290.704 310.346 255.316 308.721 232.497 329.434C209.659 350.147 208.027 385.37 228.826 408.114ZM236.631 401.025C219.743 382.583 221.078 354.005 239.597 337.188C258.116 320.37 286.812 321.699 303.699 340.141C320.587 358.584 319.252 387.161 300.733 403.979C282.214 420.796 253.518 419.467 236.631 401.025Z" fill="#235B6F"/>
<path d="M379.074 510.259L401.01 490.35L324.503 406.751L302.568 426.66L379.074 510.259Z" fill="#235B6F"/>
<path d="M383.876 515.508L405.811 495.6L401.016 490.36L379.081 510.269L383.876 515.508Z" fill="#FF8F4A"/>
<path d="M327.983 113.665C327.983 101.813 337.623 92.2131 349.524 92.2131C361.425 92.2131 371.064 101.813 371.064 113.665C371.064 113.905 371.046 114.126 371.027 114.348H404.395C404.395 114.108 404.413 113.886 404.413 113.665C404.413 83.4627 379.833 59.0022 349.524 59.0022C319.215 59.0022 294.635 83.4812 294.635 113.665C294.635 113.905 294.653 114.126 294.653 114.348H328.02C328.02 114.126 327.983 113.886 327.983 113.665Z" fill="#FF8F4A"/>
<path d="M385.542 154.906L360.387 132.162C357.198 134.027 353.491 135.116 349.524 135.116C348.337 135.116 347.188 135.005 346.057 134.821V168.216C347.207 168.29 348.356 168.345 349.524 168.345C363.316 168.327 375.903 163.269 385.542 154.906Z" fill="#FFAB77"/>
<path d="M328.021 114.348H294.653C295.005 143.054 317.584 166.425 346.057 168.198V134.821C336.047 133.196 328.354 124.704 328.021 114.348Z" fill="#FF731D"/>
<path d="M286.979 114.015C286.979 79.6227 314.97 51.7285 349.524 51.7285" stroke="#235B6F" stroke-width="0.8435" stroke-miterlimit="10" stroke-linecap="round" stroke-linejoin="round"/>
<path d="M435 309.164H351.619V315.385H435V309.164Z" fill="#173D4A"/>
<path d="M409.215 340.308H351.619V346.529H409.215V340.308Z" fill="#C7D8F2"/>
<path d="M381.334 324.727H351.619V330.948H381.334V324.727Z" fill="#C7D8F2"/>
<path d="M394.088 324.727H385.227V330.948H394.088V324.727Z" fill="#C7D8F2"/>
<path d="M348.838 119.886L400.261 170.413" stroke="#235B6F" stroke-width="0.8435" stroke-miterlimit="10" stroke-linecap="round" stroke-linejoin="round"/>
<path d="M8.32349 251.382L19.446 262.458" stroke="#235B6F" stroke-width="0.8435" stroke-miterlimit="10" stroke-linecap="round" stroke-linejoin="round"/>
<path d="M18.7415 252.767L29.8639 263.825" stroke="#235B6F" stroke-width="0.8435" stroke-miterlimit="10" stroke-linecap="round" stroke-linejoin="round"/>
<path d="M28.4736 252.767L39.5961 263.825" stroke="#235B6F" stroke-width="0.8435" stroke-miterlimit="10" stroke-linecap="round" stroke-linejoin="round"/>
<path d="M368.284 375.937L379.406 387.013" stroke="#E35600" stroke-width="0.8435" stroke-miterlimit="10" stroke-linecap="round" stroke-linejoin="round"/>
<path d="M378.72 377.321L389.824 388.398" stroke="#E35600" stroke-width="0.8435" stroke-miterlimit="10" stroke-linecap="round" stroke-linejoin="round"/>
<path d="M388.434 377.321L399.556 388.398" stroke="#E35600" stroke-width="0.8435" stroke-miterlimit="10" stroke-linecap="round" stroke-linejoin="round"/>
<path d="M186.227 57.5991H69.4785V71.4447H186.227V57.5991Z" stroke="#235B6F" stroke-width="1.1246" stroke-miterlimit="10"/>
<path d="M201.521 76.9829H191.789V86.6748H201.521V76.9829Z" stroke="#235B6F" stroke-width="1.1246" stroke-miterlimit="10"/>
<path d="M391.908 431.297H403.03V420.22H391.908V431.297Z" fill="#235B6F"/>
<path d="M374.802 407.345H380.53V401.641H374.802V407.345Z" fill="#235B6F"/>
<path d="M406.85 415.733H411.021V411.58H406.85V415.733Z" fill="#235B6F"/>
<path d="M61.4702 372.208V429.916H105.033" stroke="#235B6F" stroke-width="1.1246" stroke-miterlimit="10"/>
<path d="M119.863 430.359H140.254" stroke="#235B6F" stroke-width="1.1246" stroke-miterlimit="10"/>
<path d="M245.918 446.973C246.942 446.973 247.772 446.147 247.772 445.127C247.772 444.108 246.942 443.281 245.918 443.281C244.894 443.281 244.064 444.108 244.064 445.127C244.064 446.147 244.894 446.973 245.918 446.973Z" fill="#235B6F"/>
<path d="M261.36 446.973C262.383 446.973 263.213 446.147 263.213 445.127C263.213 444.108 262.383 443.281 261.36 443.281C260.336 443.281 259.506 444.108 259.506 445.127C259.506 446.147 260.336 446.973 261.36 446.973Z" fill="#235B6F"/>
<path d="M276.82 446.973C277.844 446.973 278.674 446.147 278.674 445.127C278.674 444.108 277.844 443.281 276.82 443.281C275.796 443.281 274.966 444.108 274.966 445.127C274.966 446.147 275.796 446.973 276.82 446.973Z" fill="#235B6F"/>
<path d="M292.262 446.973C293.286 446.973 294.115 446.147 294.115 445.127C294.115 444.108 293.286 443.281 292.262 443.281C291.238 443.281 290.408 444.108 290.408 445.127C290.408 446.147 291.238 446.973 292.262 446.973Z" fill="#235B6F"/>
<path d="M245.918 460.191C246.942 460.191 247.772 459.365 247.772 458.345C247.772 457.326 246.942 456.499 245.918 456.499C244.894 456.499 244.064 457.326 244.064 458.345C244.064 459.365 244.894 460.191 245.918 460.191Z" fill="#235B6F"/>
<path d="M261.36 460.191C262.383 460.191 263.213 459.365 263.213 458.345C263.213 457.326 262.383 456.499 261.36 456.499C260.336 456.499 259.506 457.326 259.506 458.345C259.506 459.365 260.336 460.191 261.36 460.191Z" fill="#235B6F"/>
<path d="M276.82 460.191C277.844 460.191 278.674 459.365 278.674 458.345C278.674 457.326 277.844 456.499 276.82 456.499C275.796 456.499 274.966 457.326 274.966 458.345C274.966 459.365 275.796 460.191 276.82 460.191Z" fill="#235B6F"/>
<path d="M292.262 460.191C293.286 460.191 294.115 459.365 294.115 458.345C294.115 457.326 293.286 456.499 292.262 456.499C291.238 456.499 290.408 457.326 290.408 458.345C290.408 459.365 291.238 460.191 292.262 460.191Z" fill="#235B6F"/>
<path d="M245.918 473.428C246.942 473.428 247.772 472.601 247.772 471.581C247.772 470.562 246.942 469.735 245.918 469.735C244.894 469.735 244.064 470.562 244.064 471.581C244.064 472.601 244.894 473.428 245.918 473.428Z" fill="#235B6F"/>
<path d="M261.36 473.428C262.383 473.428 263.213 472.601 263.213 471.581C263.213 470.562 262.383 469.735 261.36 469.735C260.336 469.735 259.506 470.562 259.506 471.581C259.506 472.601 260.336 473.428 261.36 473.428Z" fill="#235B6F"/>
<path d="M276.82 473.428C277.844 473.428 278.674 472.601 278.674 471.581C278.674 470.562 277.844 469.735 276.82 469.735C275.796 469.735 274.966 470.562 274.966 471.581C274.966 472.601 275.796 473.428 276.82 473.428Z" fill="#235B6F"/>
<path d="M292.262 473.428C293.286 473.428 294.115 472.601 294.115 471.581C294.115 470.562 293.286 469.735 292.262 469.735C291.238 469.735 290.408 470.562 290.408 471.581C290.408 472.601 291.238 473.428 292.262 473.428Z" fill="#235B6F"/>
<path d="M245.918 486.664C246.942 486.664 247.772 485.837 247.772 484.818C247.772 483.798 246.942 482.972 245.918 482.972C244.894 482.972 244.064 483.798 244.064 484.818C244.064 485.837 244.894 486.664 245.918 486.664Z" fill="#235B6F"/>
<path d="M261.36 486.664C262.383 486.664 263.213 485.837 263.213 484.818C263.213 483.798 262.383 482.972 261.36 482.972C260.336 482.972 259.506 483.798 259.506 484.818C259.506 485.837 260.336 486.664 261.36 486.664Z" fill="#235B6F"/>
<path d="M276.82 486.664C277.844 486.664 278.674 485.837 278.674 484.818C278.674 483.798 277.844 482.972 276.82 482.972C275.796 482.972 274.966 483.798 274.966 484.818C274.966 485.837 275.796 486.664 276.82 486.664Z" fill="#235B6F"/>
<path d="M292.262 486.664C293.286 486.664 294.115 485.837 294.115 484.818C294.115 483.798 293.286 482.972 292.262 482.972C291.238 482.972 290.408 483.798 290.408 484.818C290.408 485.837 291.238 486.664 292.262 486.664Z" fill="#235B6F"/>
<path d="M26.7867 119.517H16.9062V129.356H26.7867V119.517Z" fill="#235B6F"/>
<path d="M42.006 140.82H36.9082V145.897H42.006V140.82Z" fill="#235B6F"/>
<path d="M13.4953 133.362H9.78784V137.054H13.4953V133.362Z" fill="#235B6F"/>
<path d="M26.7867 119.517H16.9062V129.356H26.7867V119.517Z" fill="#235B6F"/>
<path d="M42.006 140.82H36.9082V145.897H42.006V140.82Z" fill="#235B6F"/>
<path d="M13.4953 133.362H9.78784V137.054H13.4953V133.362Z" fill="#235B6F"/>
<path d="M283.92 71.9801C278.229 71.6293 274.392 69.1371 271.87 66.5711C278.841 59.556 283.141 49.9379 283.141 39.2861C283.141 17.8716 265.716 0.5 244.194 0.5C222.691 0.5 205.247 17.8531 205.247 39.2861C205.247 60.7006 222.672 78.0721 244.194 78.0721C250.886 78.0721 257.189 76.3922 262.694 73.42C274.595 76.8907 283.92 71.9801 283.92 71.9801Z" fill="#FF731D"/>
<path d="M277.432 75.6722C271.741 75.3215 267.904 72.8293 265.382 70.2632C272.353 63.2481 276.653 53.6301 276.653 42.9782C276.653 21.5637 259.228 4.19214 237.706 4.19214C216.203 4.19214 198.759 21.5453 198.759 42.9782C198.759 64.3927 216.184 81.7643 237.706 81.7643C244.398 81.7643 250.701 80.0844 256.206 77.1122C268.107 80.5828 277.432 75.6722 277.432 75.6722Z" stroke="#235B6F" stroke-width="1.1246" stroke-miterlimit="10"/>
<path d="M238.874 57.1376L222.654 40.9844L229.123 34.5232L238.874 44.2335L260.822 22.376L267.31 28.8188L238.874 57.1376Z" fill="white"/>
</g>
<defs>
<clipPath id="clip0_257_484">
<rect width="435" height="515" fill="white" transform="translate(0 0.5)"/>
</clipPath>
</defs>
</svg>
