<svg width="49" height="37" viewBox="0 0 49 37" fill="none" xmlns="http://www.w3.org/2000/svg">
<g clip-path="url(#clip0_409_13223)">
<path d="M11.411 36.3233V17.8737L5.66053 12.6392L0.503906 9.73438V33.0674C0.503906 34.8689 1.97083 36.3233 3.77612 36.3233H11.411Z" fill="#4285F4"/>
<path d="M37.5889 36.3231H45.2238C47.0345 36.3231 48.496 34.8633 48.496 33.0672V9.73438L42.6553 13.0615L37.5889 17.8735V36.3231Z" fill="#34A853"/>
<path d="M11.4114 17.8729L10.6289 10.6642L11.4114 3.76465L24.4999 13.532L37.5884 3.76465L38.4636 10.2917L37.5884 17.8729L24.4999 27.6403L11.4114 17.8729Z" fill="#EA4335"/>
<path d="M37.5889 3.76494V17.8732L48.496 9.73385V5.39277C48.496 1.36655 43.8768 -0.928679 40.6431 1.48593L37.5889 3.76494Z" fill="#FBBC04"/>
<path d="M0.503906 9.73393L5.5203 13.4776L11.411 17.8733V3.76502L8.35685 1.48602C5.11744 -0.92878 0.503906 1.36664 0.503906 5.39267V9.73375V9.73393Z" fill="#C5221F"/>
</g>
<defs>
<clipPath id="clip0_409_13223">
<rect width="48" height="36" fill="white" transform="translate(0.5 0.5)"/>
</clipPath>
</defs>
</svg>
