<svg width="32" height="32" viewBox="0 0 32 32" fill="none" xmlns="http://www.w3.org/2000/svg">
<g clip-path="url(#clip0_552_12315)">
<path d="M31.9784 16.2994C31.9784 14.9884 31.8696 14.0317 31.6341 13.0396H16.3188V18.9569H25.3085C25.1274 20.4274 24.1486 22.642 21.9737 24.1301L21.9432 24.3282L26.7856 27.9952L27.121 28.0279C30.2022 25.2463 31.9784 21.1537 31.9784 16.2994Z" fill="#4285F4"/>
<path d="M16.3187 31.8901C20.7229 31.8901 24.4203 30.4727 27.1209 28.0279L21.9735 24.1301C20.5961 25.0691 18.7474 25.7246 16.3187 25.7246C12.0051 25.7246 8.344 22.9432 7.03891 19.0986L6.84762 19.1145L1.81243 22.9236L1.74658 23.1025C4.42898 28.3112 9.93885 31.8901 16.3187 31.8901Z" fill="#34A853"/>
<path d="M7.03859 19.0987C6.69423 18.1066 6.49494 17.0435 6.49494 15.9451C6.49494 14.8466 6.69423 13.7837 7.02047 12.7915L7.01135 12.5803L1.91307 8.70996L1.74626 8.78752C0.640713 10.949 0.00634766 13.3762 0.00634766 15.9451C0.00634766 18.5141 0.640713 20.9412 1.74626 23.1026L7.03859 19.0987Z" fill="#FBBC05"/>
<path d="M16.3187 6.16537C19.3817 6.16537 21.4479 7.45869 22.626 8.53948L27.2296 4.14571C24.4023 1.57679 20.7229 0 16.3187 0C9.93885 0 4.42898 3.57875 1.74658 8.78742L7.02079 12.7915C8.344 8.94693 12.0051 6.16537 16.3187 6.16537Z" fill="#EB4335"/>
</g>
<defs>
<clipPath id="clip0_552_12315">
<rect width="32" height="32" fill="white"/>
</clipPath>
</defs>
</svg>
