<svg width="48" height="48" viewBox="0 0 48 48" fill="none" xmlns="http://www.w3.org/2000/svg">
<g clip-path="url(#clip0_349_17551)">
<path d="M47.9673 24.4491C47.9673 22.4826 47.804 21.0475 47.4507 19.5593H24.4779V28.4353H37.9624C37.6907 30.6411 36.2226 33.963 32.9601 36.1952L32.9144 36.4923L40.178 41.9927L40.6812 42.0418C45.3029 37.8695 47.9673 31.7306 47.9673 24.4491Z" fill="#4285F4"/>
<path d="M24.4779 47.8351C31.0842 47.8351 36.6302 45.709 40.6812 42.0418L32.9601 36.1951C30.894 37.6036 28.1209 38.5869 24.4779 38.5869C18.0075 38.5869 12.5158 34.4147 10.5582 28.6479L10.2712 28.6718L2.71846 34.3854L2.61969 34.6538C6.64329 42.4668 14.9081 47.8351 24.4779 47.8351Z" fill="#34A853"/>
<path d="M10.558 28.6478C10.0415 27.1597 9.74253 25.565 9.74253 23.9175C9.74253 22.2697 10.0415 20.6753 10.5308 19.1871L10.5171 18.8701L2.86972 13.0647L2.61951 13.181C0.961191 16.4232 0.00964355 20.0641 0.00964355 23.9175C0.00964355 27.7708 0.961191 31.4115 2.61951 34.6537L10.558 28.6478Z" fill="#FBBC05"/>
<path d="M24.4779 9.24806C29.0724 9.24806 32.1716 11.188 33.9389 12.8092L40.8443 6.21856C36.6033 2.36519 31.0842 0 24.4779 0C14.9081 0 6.64329 5.36812 2.61969 13.1811L10.531 19.1872C12.5158 13.4204 18.0075 9.24806 24.4779 9.24806Z" fill="#EB4335"/>
</g>
<defs>
<clipPath id="clip0_349_17551">
<rect width="48" height="48" fill="white"/>
</clipPath>
</defs>
</svg>
