<svg width="48" height="48" viewBox="0 0 48 48" fill="none" xmlns="http://www.w3.org/2000/svg">
<g clip-path="url(#clip0_349_17549)">
<path d="M24 0C10.7452 0 0 10.7454 0 24C0 37.2555 10.7454 48 24 48C37.2557 48 48 37.2555 48 24C48 10.7464 37.2557 0.0013125 23.9996 0.0013125L23.9998 0.0001875L24 0ZM35.0061 34.6151C34.5761 35.3201 33.6533 35.5436 32.9482 35.1109C27.3133 31.6689 20.2198 30.8893 11.8658 32.7981C11.4789 32.8861 11.0729 32.8169 10.7371 32.6057C10.4012 32.3945 10.163 32.0586 10.0747 31.6717C10.0308 31.4803 10.025 31.282 10.0578 31.0883C10.0905 30.8945 10.1612 30.7092 10.2657 30.5428C10.3702 30.3764 10.5065 30.2323 10.6668 30.1186C10.827 30.005 11.0082 29.9241 11.1997 29.8806C20.3422 27.7918 28.1841 28.6911 34.5103 32.5573C35.2153 32.9901 35.4388 33.9101 35.0061 34.6151ZM37.9436 28.0802C37.4017 28.9605 36.2497 29.2386 35.37 28.6969C28.9189 24.7316 19.0851 23.5832 11.4548 25.8994C10.4651 26.1983 9.42 25.6406 9.11963 24.6527C8.8215 23.6631 9.3795 22.6198 10.3674 22.3191C19.0834 19.6742 29.919 20.9554 37.3275 25.5079C38.2072 26.0498 38.4853 27.2016 37.9436 28.0802ZM38.1958 21.2752C30.4607 16.6807 17.6989 16.2581 10.3138 18.4999C9.12788 18.8595 7.87369 18.1899 7.51444 17.004C7.155 15.8175 7.82381 14.5642 9.01069 14.2037C17.4881 11.6301 31.5814 12.1275 40.4867 17.4142C41.5558 18.0473 41.9053 19.425 41.2719 20.4902C40.6416 21.5571 39.2601 21.9086 38.1969 21.2752H38.1958Z" fill="#1ED760"/>
</g>
<defs>
<clipPath id="clip0_349_17549">
<rect width="48" height="48" fill="white"/>
</clipPath>
</defs>
</svg>
