<svg width="49" height="48" viewBox="0 0 49 48" fill="none" xmlns="http://www.w3.org/2000/svg">
<path d="M1.52906 23.7905C1.52794 27.8368 2.58994 31.7877 4.60931 35.2701L1.33594 47.1684L13.5669 43.9757C16.9499 45.8091 20.7402 46.7698 24.5919 46.7701H24.6021C37.3174 46.7701 47.6679 36.4694 47.6734 23.8086C47.6758 17.6735 45.2781 11.9045 40.9217 7.56416C36.5661 3.22423 30.7732 0.832878 24.6011 0.830078C11.8843 0.830078 1.5345 11.1302 1.52925 23.7905" fill="url(#paint0_linear_580_9434)"/>
<path d="M0.706484 23.7839C0.705172 27.9758 1.80523 32.0681 3.89661 35.6752L0.505859 48L13.1754 44.6929C16.6663 46.5877 20.5967 47.5867 24.596 47.5882H24.6064C37.7779 47.5882 48.5002 36.917 48.5059 23.803C48.5081 17.4475 46.0241 11.471 41.5121 6.97525C36.9995 2.48001 30.9995 0.00261329 24.6064 0C11.4326 0 0.711734 10.6697 0.706484 23.7839ZM8.25148 35.0539L7.77842 34.3064C5.7898 31.1585 4.74017 27.5208 4.74167 23.7854C4.74598 12.8852 13.6567 4.017 24.6139 4.017C29.9201 4.01924 34.9069 6.07852 38.6576 9.81478C42.4082 13.5514 44.472 18.5185 44.4707 23.8015C44.4658 34.7017 35.5549 43.571 24.6064 43.571H24.5985C21.0335 43.5692 17.5372 42.6161 14.4881 40.8149L13.7625 40.3866L6.24411 42.3489L8.25148 35.0538V35.0539Z" fill="url(#paint1_linear_580_9434)"/>
<path d="M18.6325 13.8408C18.1852 12.851 17.7144 12.831 17.2889 12.8136C16.9405 12.7987 16.5423 12.7998 16.1444 12.7998C15.7462 12.7998 15.0991 12.949 14.5522 13.5435C14.0047 14.1386 12.4619 15.5766 12.4619 18.5015C12.4619 21.4265 14.6019 24.2531 14.9002 24.6502C15.1989 25.0465 19.0314 31.2407 25.1011 33.6236C30.1456 35.604 31.1722 35.2101 32.267 35.1108C33.362 35.0119 35.8002 33.6731 36.2977 32.2849C36.7955 30.8969 36.7955 29.7071 36.6462 29.4584C36.497 29.2107 36.0987 29.062 35.5015 28.7648C34.9042 28.4674 31.9683 27.0292 31.421 26.8308C30.8735 26.6325 30.4754 26.5336 30.0772 27.1289C29.6789 27.7232 28.5354 29.062 28.1868 29.4584C27.8386 29.8558 27.49 29.9053 26.893 29.608C26.2955 29.3097 24.3723 28.6827 22.0906 26.6575C20.3154 25.0817 19.1169 23.1358 18.7685 22.5405C18.4201 21.9462 18.7312 21.624 19.0306 21.3277C19.2989 21.0614 19.628 20.6335 19.9269 20.2865C20.2246 19.9393 20.324 19.6916 20.5231 19.2952C20.7224 18.8983 20.6227 18.5511 20.4736 18.2538C20.324 17.9564 19.1635 15.0163 18.6325 13.8408Z" fill="white"/>
<defs>
<linearGradient id="paint0_linear_580_9434" x1="2318.21" y1="4634.66" x2="2318.21" y2="0.830078" gradientUnits="userSpaceOnUse">
<stop stop-color="#1FAF38"/>
<stop offset="1" stop-color="#60D669"/>
</linearGradient>
<linearGradient id="paint1_linear_580_9434" x1="2400.51" y1="4800" x2="2400.51" y2="0" gradientUnits="userSpaceOnUse">
<stop stop-color="#F9F9F9"/>
<stop offset="1" stop-color="white"/>
</linearGradient>
</defs>
</svg>
